G75*
%MOIN*%
%OFA0B0*%
%FSLAX25Y25*%
%IPPOS*%
%LPD*%
%AMOC8*
5,1,8,0,0,1.08239X$1,22.5*
%
%ADD10C,0.01600*%
%ADD11R,0.06699X0.01975*%
%ADD12R,0.06502X0.07880*%
%ADD13R,0.10243X0.03943*%
%ADD14R,0.03550X0.03550*%
%ADD15R,0.06699X0.03943*%
%ADD16R,0.02369X0.02369*%
%ADD17R,0.02762X0.02369*%
%ADD18R,0.02762X0.03943*%
%ADD19R,0.10100X0.03500*%
%ADD20C,0.01969*%
%ADD21R,0.01969X0.00984*%
%ADD22R,0.00984X0.01969*%
%ADD23R,0.12802X0.12802*%
%ADD24R,0.08600X0.15400*%
%ADD25R,0.45400X0.35400*%
%ADD26R,0.15400X0.08600*%
%ADD27R,0.35400X0.45400*%
%ADD28R,0.42920X0.41384*%
%ADD29R,0.04600X0.08900*%
%ADD30R,0.03943X0.05518*%
%ADD31R,0.03943X0.02762*%
%ADD32R,0.05518X0.03943*%
%ADD33R,0.02400X0.05200*%
%ADD34R,0.01800X0.08200*%
%ADD35C,0.06400*%
%ADD36C,0.02040*%
%ADD37R,0.05912X0.04337*%
%ADD38C,0.02959*%
%ADD39R,0.05200X0.02400*%
%ADD40R,0.05124X0.05912*%
%ADD41R,0.14180X0.05912*%
%ADD42C,0.07400*%
%ADD43C,0.12211*%
%ADD44R,0.07290X0.04731*%
%ADD45R,0.04400X0.10400*%
%ADD46C,0.05200*%
%ADD47R,0.03400X0.10400*%
%ADD48R,0.05400X0.20400*%
%ADD49C,0.01000*%
%ADD50R,0.08200X0.02500*%
%ADD51R,0.08274X0.16542*%
%ADD52R,0.16542X0.08274*%
%ADD53C,0.04337*%
%ADD54C,0.05906*%
%ADD55C,0.23400*%
%ADD56C,0.18400*%
D10*
X0001800Y0027250D02*
X0476800Y0027250D01*
X0476800Y0227250D01*
X0001800Y0227250D01*
X0001800Y0027250D01*
D11*
X0090265Y0090250D03*
X0090265Y0092809D03*
X0090265Y0095368D03*
X0090265Y0097927D03*
X0106800Y0097927D03*
X0106800Y0095368D03*
X0106800Y0092809D03*
X0106800Y0090250D03*
D12*
X0098532Y0094089D03*
D13*
X0338800Y0132148D03*
X0353800Y0132148D03*
X0353800Y0144352D03*
X0338800Y0144352D03*
X0388800Y0144352D03*
X0388800Y0132148D03*
D14*
X0398800Y0138297D03*
X0398800Y0144203D03*
X0416847Y0167250D03*
X0422753Y0167250D03*
X0355753Y0201250D03*
X0349847Y0201250D03*
X0416800Y0203297D03*
X0416800Y0209203D03*
X0396800Y0110203D03*
X0389800Y0110203D03*
X0389800Y0104297D03*
X0396800Y0104297D03*
X0416847Y0094250D03*
X0422753Y0094250D03*
X0355800Y0091297D03*
X0355800Y0097203D03*
X0332753Y0086250D03*
X0326847Y0086250D03*
X0235800Y0057203D03*
X0235800Y0051297D03*
X0228800Y0048797D03*
X0221800Y0050297D03*
X0228800Y0054703D03*
X0221800Y0056203D03*
X0181800Y0055047D03*
X0181800Y0060953D03*
X0177753Y0071250D03*
X0171847Y0071250D03*
X0055800Y0144297D03*
X0055800Y0150203D03*
X0416800Y0051203D03*
X0416800Y0045297D03*
D15*
X0129800Y0088148D03*
X0129800Y0100352D03*
X0061800Y0093352D03*
X0061800Y0081148D03*
D16*
X0080831Y0094250D03*
X0084769Y0094250D03*
X0114800Y0092219D03*
X0114800Y0088281D03*
D17*
X0119800Y0088281D03*
X0119800Y0092219D03*
X0119800Y0097281D03*
X0119800Y0101219D03*
X0416800Y0101281D03*
X0416800Y0105219D03*
D18*
X0416753Y0111250D03*
X0410847Y0111250D03*
X0327753Y0052250D03*
X0321847Y0052250D03*
X0300753Y0052250D03*
X0294847Y0052250D03*
X0247753Y0058250D03*
X0241847Y0058250D03*
X0199753Y0067250D03*
X0193847Y0067250D03*
X0159753Y0047250D03*
X0153847Y0047250D03*
X0230847Y0133250D03*
X0236753Y0133250D03*
X0241847Y0133250D03*
X0247753Y0133250D03*
X0245847Y0152250D03*
X0251753Y0152250D03*
X0200753Y0152250D03*
X0194847Y0152250D03*
X0308847Y0205250D03*
X0314753Y0205250D03*
X0332847Y0204250D03*
X0338753Y0204250D03*
D19*
X0414800Y0161850D03*
X0418800Y0154650D03*
D20*
X0419753Y0136600D02*
X0419753Y0135616D01*
X0421721Y0135616D02*
X0421721Y0136600D01*
X0423690Y0136600D02*
X0423690Y0135616D01*
X0425166Y0134140D02*
X0426150Y0134140D01*
X0426150Y0132171D02*
X0425166Y0132171D01*
X0425166Y0130203D02*
X0426150Y0130203D01*
X0426150Y0128234D02*
X0425166Y0128234D01*
X0425166Y0126266D02*
X0426150Y0126266D01*
X0426150Y0124297D02*
X0425166Y0124297D01*
X0425166Y0122329D02*
X0426150Y0122329D01*
X0426150Y0120360D02*
X0425166Y0120360D01*
X0423690Y0118884D02*
X0423690Y0117900D01*
X0421721Y0117900D02*
X0421721Y0118884D01*
X0419753Y0118884D02*
X0419753Y0117900D01*
X0417784Y0117900D02*
X0417784Y0118884D01*
X0415816Y0118884D02*
X0415816Y0117900D01*
X0413847Y0117900D02*
X0413847Y0118884D01*
X0411879Y0118884D02*
X0411879Y0117900D01*
X0409910Y0117900D02*
X0409910Y0118884D01*
X0408434Y0120360D02*
X0407450Y0120360D01*
X0407450Y0122329D02*
X0408434Y0122329D01*
X0408434Y0124297D02*
X0407450Y0124297D01*
X0407450Y0126266D02*
X0408434Y0126266D01*
X0408434Y0128234D02*
X0407450Y0128234D01*
X0407450Y0130203D02*
X0408434Y0130203D01*
X0408434Y0132171D02*
X0407450Y0132171D01*
X0407450Y0134140D02*
X0408434Y0134140D01*
X0409910Y0135616D02*
X0409910Y0136600D01*
X0411879Y0136600D02*
X0411879Y0135616D01*
X0413847Y0135616D02*
X0413847Y0136600D01*
X0415816Y0136600D02*
X0415816Y0135616D01*
X0417784Y0135616D02*
X0417784Y0136600D01*
D21*
X0417784Y0137093D03*
X0415816Y0137093D03*
X0413847Y0137093D03*
X0411879Y0137093D03*
X0409910Y0137093D03*
X0419753Y0137093D03*
X0421721Y0137093D03*
X0423690Y0137093D03*
X0423690Y0117407D03*
X0421721Y0117407D03*
X0419753Y0117407D03*
X0417784Y0117407D03*
X0415816Y0117407D03*
X0413847Y0117407D03*
X0411879Y0117407D03*
X0409910Y0117407D03*
D22*
X0406957Y0120360D03*
X0406957Y0122329D03*
X0406957Y0124297D03*
X0406957Y0126266D03*
X0406957Y0128234D03*
X0406957Y0130203D03*
X0406957Y0132171D03*
X0406957Y0134140D03*
X0426643Y0134140D03*
X0426643Y0132171D03*
X0426643Y0130203D03*
X0426643Y0128234D03*
X0426643Y0126266D03*
X0426643Y0124297D03*
X0426643Y0122329D03*
X0426643Y0120360D03*
D23*
X0416800Y0127250D03*
D24*
X0237800Y0152250D03*
X0217800Y0152250D03*
X0187300Y0152250D03*
X0167300Y0152250D03*
X0136800Y0152250D03*
X0116800Y0152250D03*
D25*
X0126800Y0197250D03*
X0177300Y0197250D03*
X0227800Y0197250D03*
D26*
X0136800Y0067250D03*
X0136800Y0047250D03*
D27*
X0091800Y0057250D03*
D28*
X0061800Y0192250D03*
D29*
X0061800Y0159450D03*
X0055100Y0159450D03*
X0048400Y0159450D03*
X0068500Y0159450D03*
X0075200Y0159450D03*
D30*
X0081060Y0159650D03*
X0088540Y0159650D03*
D31*
X0049800Y0150203D03*
X0049800Y0144297D03*
X0146800Y0146297D03*
X0153800Y0146297D03*
X0153800Y0152203D03*
X0146800Y0152203D03*
X0153800Y0136203D03*
X0153800Y0130297D03*
X0195800Y0129297D03*
X0195800Y0135203D03*
X0195800Y0140297D03*
X0195800Y0146203D03*
X0317800Y0097203D03*
X0317800Y0091297D03*
X0214800Y0061203D03*
X0207800Y0061203D03*
X0207800Y0055297D03*
X0214800Y0055297D03*
X0191800Y0054297D03*
X0191800Y0060203D03*
X0167800Y0046203D03*
X0167800Y0040297D03*
X0149800Y0069297D03*
X0149800Y0075203D03*
X0340800Y0161297D03*
X0340800Y0167203D03*
X0351800Y0167203D03*
X0351800Y0161297D03*
D32*
X0091800Y0184510D03*
X0091800Y0191990D03*
D33*
X0168060Y0061750D03*
X0171800Y0061750D03*
X0175540Y0061750D03*
X0175540Y0052750D03*
X0168060Y0052750D03*
D34*
X0223050Y0067550D03*
X0225550Y0067550D03*
X0228050Y0067550D03*
X0230550Y0067550D03*
X0233050Y0067550D03*
X0235550Y0067550D03*
X0238050Y0067550D03*
X0240550Y0067550D03*
X0240550Y0086950D03*
X0238050Y0086950D03*
X0235550Y0086950D03*
X0233050Y0086950D03*
X0230550Y0086950D03*
X0228050Y0086950D03*
X0225550Y0086950D03*
X0223050Y0086950D03*
D35*
X0266800Y0070250D02*
X0266800Y0064250D01*
X0276800Y0064250D02*
X0276800Y0070250D01*
X0135800Y0128250D02*
X0135800Y0134250D01*
X0125800Y0134250D02*
X0125800Y0128250D01*
X0042400Y0130250D02*
X0042400Y0124250D01*
X0032400Y0124250D02*
X0032400Y0130250D01*
X0022400Y0130250D02*
X0022400Y0124250D01*
D36*
X0296980Y0098430D02*
X0296980Y0095070D01*
X0296620Y0095070D01*
X0296620Y0098430D01*
X0296980Y0098430D01*
X0296980Y0097109D02*
X0296620Y0097109D01*
X0306980Y0098430D02*
X0306980Y0095070D01*
X0306620Y0095070D01*
X0306620Y0098430D01*
X0306980Y0098430D01*
X0306980Y0097109D02*
X0306620Y0097109D01*
X0306980Y0087430D02*
X0306980Y0084070D01*
X0306620Y0084070D01*
X0306620Y0087430D01*
X0306980Y0087430D01*
X0306980Y0086109D02*
X0306620Y0086109D01*
X0296980Y0087430D02*
X0296980Y0084070D01*
X0296620Y0084070D01*
X0296620Y0087430D01*
X0296980Y0087430D01*
X0296980Y0086109D02*
X0296620Y0086109D01*
D37*
X0159131Y0060990D03*
X0150469Y0057250D03*
X0159131Y0053510D03*
D38*
X0253311Y0113250D02*
X0257249Y0113250D01*
X0257249Y0113250D01*
X0253311Y0113250D01*
X0253311Y0113250D01*
X0253311Y0123250D02*
X0257249Y0123250D01*
X0257249Y0123250D01*
X0253311Y0123250D01*
X0253311Y0123250D01*
X0253311Y0133250D02*
X0257249Y0133250D01*
X0257249Y0133250D01*
X0253311Y0133250D01*
X0253311Y0133250D01*
X0288351Y0133250D02*
X0292289Y0133250D01*
X0292289Y0133250D01*
X0288351Y0133250D01*
X0288351Y0133250D01*
X0288351Y0123250D02*
X0292289Y0123250D01*
X0292289Y0123250D01*
X0288351Y0123250D01*
X0288351Y0123250D01*
X0288351Y0113250D02*
X0292289Y0113250D01*
X0292289Y0113250D01*
X0288351Y0113250D01*
X0288351Y0113250D01*
D39*
X0342300Y0187510D03*
X0342300Y0191250D03*
X0342300Y0194990D03*
X0351300Y0194990D03*
X0351300Y0187510D03*
D40*
X0332898Y0197451D03*
X0323800Y0197451D03*
X0314702Y0197451D03*
D41*
X0323800Y0173049D03*
D42*
X0294800Y0187250D03*
X0284800Y0187250D03*
D43*
X0264800Y0207250D03*
X0304800Y0167250D03*
D44*
X0340800Y0155250D03*
X0340800Y0149738D03*
X0351627Y0149738D03*
X0351627Y0155250D03*
D45*
X0407800Y0146750D03*
X0416800Y0146750D03*
D46*
X0327800Y0068650D02*
X0327800Y0063850D01*
X0317800Y0063850D02*
X0317800Y0068650D01*
X0307800Y0068650D02*
X0307800Y0063850D01*
D47*
X0416800Y0031250D03*
X0416800Y0222250D03*
D48*
X0433550Y0217250D03*
X0400050Y0217250D03*
X0400050Y0036250D03*
X0433550Y0036250D03*
D49*
X0434650Y0036237D02*
X0432100Y0036237D01*
X0432100Y0037235D02*
X0434650Y0037235D01*
X0434650Y0038150D02*
X0434650Y0026750D01*
X0425300Y0026750D01*
X0425300Y0034750D01*
X0432100Y0034750D01*
X0432100Y0038150D01*
X0434650Y0038150D01*
X0434650Y0035238D02*
X0432100Y0035238D01*
X0434650Y0034240D02*
X0425300Y0034240D01*
X0425300Y0033241D02*
X0434650Y0033241D01*
X0434650Y0032243D02*
X0425300Y0032243D01*
X0425300Y0031244D02*
X0434650Y0031244D01*
X0434650Y0030246D02*
X0425300Y0030246D01*
X0425300Y0029247D02*
X0434650Y0029247D01*
X0434650Y0028249D02*
X0425300Y0028249D01*
X0425300Y0027250D02*
X0434650Y0027250D01*
X0408300Y0027250D02*
X0398950Y0027250D01*
X0398950Y0026750D02*
X0408300Y0026750D01*
X0408300Y0034750D01*
X0401500Y0034750D01*
X0401500Y0040700D01*
X0398950Y0040700D01*
X0398950Y0026750D01*
X0398950Y0028249D02*
X0408300Y0028249D01*
X0408300Y0029247D02*
X0398950Y0029247D01*
X0398950Y0030246D02*
X0408300Y0030246D01*
X0408300Y0031244D02*
X0398950Y0031244D01*
X0398950Y0032243D02*
X0408300Y0032243D01*
X0408300Y0033241D02*
X0398950Y0033241D01*
X0398950Y0034240D02*
X0408300Y0034240D01*
X0401500Y0035238D02*
X0398950Y0035238D01*
X0398950Y0036237D02*
X0401500Y0036237D01*
X0401500Y0037235D02*
X0398950Y0037235D01*
X0398950Y0038234D02*
X0401500Y0038234D01*
X0401500Y0039232D02*
X0398950Y0039232D01*
X0398950Y0040231D02*
X0401500Y0040231D01*
X0432100Y0212800D02*
X0432100Y0218750D01*
X0425300Y0218750D01*
X0425300Y0226750D01*
X0434650Y0226750D01*
X0434650Y0212800D01*
X0432100Y0212800D01*
X0432100Y0212973D02*
X0434650Y0212973D01*
X0434650Y0213972D02*
X0432100Y0213972D01*
X0432100Y0214970D02*
X0434650Y0214970D01*
X0434650Y0215969D02*
X0432100Y0215969D01*
X0432100Y0216967D02*
X0434650Y0216967D01*
X0434650Y0217966D02*
X0432100Y0217966D01*
X0434650Y0218964D02*
X0425300Y0218964D01*
X0425300Y0219963D02*
X0434650Y0219963D01*
X0434650Y0220961D02*
X0425300Y0220961D01*
X0425300Y0221960D02*
X0434650Y0221960D01*
X0434650Y0222958D02*
X0425300Y0222958D01*
X0425300Y0223957D02*
X0434650Y0223957D01*
X0434650Y0224955D02*
X0425300Y0224955D01*
X0425300Y0225954D02*
X0434650Y0225954D01*
X0408300Y0225954D02*
X0398950Y0225954D01*
X0398950Y0226750D02*
X0408300Y0226750D01*
X0408300Y0218750D01*
X0401500Y0218750D01*
X0401500Y0215350D01*
X0398950Y0215350D01*
X0398950Y0226750D01*
X0398950Y0224955D02*
X0408300Y0224955D01*
X0408300Y0223957D02*
X0398950Y0223957D01*
X0398950Y0222958D02*
X0408300Y0222958D01*
X0408300Y0221960D02*
X0398950Y0221960D01*
X0398950Y0220961D02*
X0408300Y0220961D01*
X0408300Y0219963D02*
X0398950Y0219963D01*
X0398950Y0218964D02*
X0408300Y0218964D01*
X0401500Y0217966D02*
X0398950Y0217966D01*
X0398950Y0216967D02*
X0401500Y0216967D01*
X0401500Y0215969D02*
X0398950Y0215969D01*
D50*
X0346500Y0107750D03*
X0346500Y0102750D03*
X0346500Y0097750D03*
X0346500Y0092750D03*
X0327100Y0092750D03*
X0327100Y0097750D03*
X0327100Y0102750D03*
X0327100Y0107750D03*
D51*
X0034800Y0106376D03*
X0034800Y0072124D03*
D52*
X0071674Y0127250D03*
X0105926Y0127250D03*
D53*
X0020800Y0177250D03*
X0050800Y0052250D03*
X0276800Y0168250D03*
X0355800Y0039250D03*
D54*
X0352847Y0039250D02*
X0352849Y0039358D01*
X0352855Y0039467D01*
X0352865Y0039575D01*
X0352879Y0039682D01*
X0352897Y0039789D01*
X0352918Y0039896D01*
X0352944Y0040001D01*
X0352974Y0040106D01*
X0353007Y0040209D01*
X0353044Y0040311D01*
X0353085Y0040411D01*
X0353129Y0040510D01*
X0353178Y0040608D01*
X0353229Y0040703D01*
X0353284Y0040796D01*
X0353343Y0040888D01*
X0353405Y0040977D01*
X0353470Y0041064D01*
X0353538Y0041148D01*
X0353609Y0041230D01*
X0353683Y0041309D01*
X0353760Y0041385D01*
X0353840Y0041459D01*
X0353923Y0041529D01*
X0354008Y0041597D01*
X0354095Y0041661D01*
X0354185Y0041722D01*
X0354277Y0041780D01*
X0354371Y0041834D01*
X0354467Y0041885D01*
X0354564Y0041932D01*
X0354664Y0041976D01*
X0354765Y0042016D01*
X0354867Y0042052D01*
X0354970Y0042084D01*
X0355075Y0042113D01*
X0355181Y0042137D01*
X0355287Y0042158D01*
X0355394Y0042175D01*
X0355502Y0042188D01*
X0355610Y0042197D01*
X0355719Y0042202D01*
X0355827Y0042203D01*
X0355936Y0042200D01*
X0356044Y0042193D01*
X0356152Y0042182D01*
X0356259Y0042167D01*
X0356366Y0042148D01*
X0356472Y0042125D01*
X0356577Y0042099D01*
X0356682Y0042068D01*
X0356784Y0042034D01*
X0356886Y0041996D01*
X0356986Y0041954D01*
X0357085Y0041909D01*
X0357182Y0041860D01*
X0357276Y0041807D01*
X0357369Y0041751D01*
X0357460Y0041692D01*
X0357549Y0041629D01*
X0357635Y0041564D01*
X0357719Y0041495D01*
X0357800Y0041423D01*
X0357878Y0041348D01*
X0357954Y0041270D01*
X0358027Y0041189D01*
X0358097Y0041106D01*
X0358163Y0041021D01*
X0358227Y0040933D01*
X0358287Y0040842D01*
X0358344Y0040750D01*
X0358397Y0040655D01*
X0358447Y0040559D01*
X0358493Y0040461D01*
X0358536Y0040361D01*
X0358575Y0040260D01*
X0358610Y0040157D01*
X0358642Y0040054D01*
X0358669Y0039949D01*
X0358693Y0039843D01*
X0358713Y0039736D01*
X0358729Y0039629D01*
X0358741Y0039521D01*
X0358749Y0039413D01*
X0358753Y0039304D01*
X0358753Y0039196D01*
X0358749Y0039087D01*
X0358741Y0038979D01*
X0358729Y0038871D01*
X0358713Y0038764D01*
X0358693Y0038657D01*
X0358669Y0038551D01*
X0358642Y0038446D01*
X0358610Y0038343D01*
X0358575Y0038240D01*
X0358536Y0038139D01*
X0358493Y0038039D01*
X0358447Y0037941D01*
X0358397Y0037845D01*
X0358344Y0037750D01*
X0358287Y0037658D01*
X0358227Y0037567D01*
X0358163Y0037479D01*
X0358097Y0037394D01*
X0358027Y0037311D01*
X0357954Y0037230D01*
X0357878Y0037152D01*
X0357800Y0037077D01*
X0357719Y0037005D01*
X0357635Y0036936D01*
X0357549Y0036871D01*
X0357460Y0036808D01*
X0357369Y0036749D01*
X0357277Y0036693D01*
X0357182Y0036640D01*
X0357085Y0036591D01*
X0356986Y0036546D01*
X0356886Y0036504D01*
X0356784Y0036466D01*
X0356682Y0036432D01*
X0356577Y0036401D01*
X0356472Y0036375D01*
X0356366Y0036352D01*
X0356259Y0036333D01*
X0356152Y0036318D01*
X0356044Y0036307D01*
X0355936Y0036300D01*
X0355827Y0036297D01*
X0355719Y0036298D01*
X0355610Y0036303D01*
X0355502Y0036312D01*
X0355394Y0036325D01*
X0355287Y0036342D01*
X0355181Y0036363D01*
X0355075Y0036387D01*
X0354970Y0036416D01*
X0354867Y0036448D01*
X0354765Y0036484D01*
X0354664Y0036524D01*
X0354564Y0036568D01*
X0354467Y0036615D01*
X0354371Y0036666D01*
X0354277Y0036720D01*
X0354185Y0036778D01*
X0354095Y0036839D01*
X0354008Y0036903D01*
X0353923Y0036971D01*
X0353840Y0037041D01*
X0353760Y0037115D01*
X0353683Y0037191D01*
X0353609Y0037270D01*
X0353538Y0037352D01*
X0353470Y0037436D01*
X0353405Y0037523D01*
X0353343Y0037612D01*
X0353284Y0037704D01*
X0353229Y0037797D01*
X0353178Y0037892D01*
X0353129Y0037990D01*
X0353085Y0038089D01*
X0353044Y0038189D01*
X0353007Y0038291D01*
X0352974Y0038394D01*
X0352944Y0038499D01*
X0352918Y0038604D01*
X0352897Y0038711D01*
X0352879Y0038818D01*
X0352865Y0038925D01*
X0352855Y0039033D01*
X0352849Y0039142D01*
X0352847Y0039250D01*
X0273847Y0168250D02*
X0273849Y0168358D01*
X0273855Y0168467D01*
X0273865Y0168575D01*
X0273879Y0168682D01*
X0273897Y0168789D01*
X0273918Y0168896D01*
X0273944Y0169001D01*
X0273974Y0169106D01*
X0274007Y0169209D01*
X0274044Y0169311D01*
X0274085Y0169411D01*
X0274129Y0169510D01*
X0274178Y0169608D01*
X0274229Y0169703D01*
X0274284Y0169796D01*
X0274343Y0169888D01*
X0274405Y0169977D01*
X0274470Y0170064D01*
X0274538Y0170148D01*
X0274609Y0170230D01*
X0274683Y0170309D01*
X0274760Y0170385D01*
X0274840Y0170459D01*
X0274923Y0170529D01*
X0275008Y0170597D01*
X0275095Y0170661D01*
X0275185Y0170722D01*
X0275277Y0170780D01*
X0275371Y0170834D01*
X0275467Y0170885D01*
X0275564Y0170932D01*
X0275664Y0170976D01*
X0275765Y0171016D01*
X0275867Y0171052D01*
X0275970Y0171084D01*
X0276075Y0171113D01*
X0276181Y0171137D01*
X0276287Y0171158D01*
X0276394Y0171175D01*
X0276502Y0171188D01*
X0276610Y0171197D01*
X0276719Y0171202D01*
X0276827Y0171203D01*
X0276936Y0171200D01*
X0277044Y0171193D01*
X0277152Y0171182D01*
X0277259Y0171167D01*
X0277366Y0171148D01*
X0277472Y0171125D01*
X0277577Y0171099D01*
X0277682Y0171068D01*
X0277784Y0171034D01*
X0277886Y0170996D01*
X0277986Y0170954D01*
X0278085Y0170909D01*
X0278182Y0170860D01*
X0278276Y0170807D01*
X0278369Y0170751D01*
X0278460Y0170692D01*
X0278549Y0170629D01*
X0278635Y0170564D01*
X0278719Y0170495D01*
X0278800Y0170423D01*
X0278878Y0170348D01*
X0278954Y0170270D01*
X0279027Y0170189D01*
X0279097Y0170106D01*
X0279163Y0170021D01*
X0279227Y0169933D01*
X0279287Y0169842D01*
X0279344Y0169750D01*
X0279397Y0169655D01*
X0279447Y0169559D01*
X0279493Y0169461D01*
X0279536Y0169361D01*
X0279575Y0169260D01*
X0279610Y0169157D01*
X0279642Y0169054D01*
X0279669Y0168949D01*
X0279693Y0168843D01*
X0279713Y0168736D01*
X0279729Y0168629D01*
X0279741Y0168521D01*
X0279749Y0168413D01*
X0279753Y0168304D01*
X0279753Y0168196D01*
X0279749Y0168087D01*
X0279741Y0167979D01*
X0279729Y0167871D01*
X0279713Y0167764D01*
X0279693Y0167657D01*
X0279669Y0167551D01*
X0279642Y0167446D01*
X0279610Y0167343D01*
X0279575Y0167240D01*
X0279536Y0167139D01*
X0279493Y0167039D01*
X0279447Y0166941D01*
X0279397Y0166845D01*
X0279344Y0166750D01*
X0279287Y0166658D01*
X0279227Y0166567D01*
X0279163Y0166479D01*
X0279097Y0166394D01*
X0279027Y0166311D01*
X0278954Y0166230D01*
X0278878Y0166152D01*
X0278800Y0166077D01*
X0278719Y0166005D01*
X0278635Y0165936D01*
X0278549Y0165871D01*
X0278460Y0165808D01*
X0278369Y0165749D01*
X0278277Y0165693D01*
X0278182Y0165640D01*
X0278085Y0165591D01*
X0277986Y0165546D01*
X0277886Y0165504D01*
X0277784Y0165466D01*
X0277682Y0165432D01*
X0277577Y0165401D01*
X0277472Y0165375D01*
X0277366Y0165352D01*
X0277259Y0165333D01*
X0277152Y0165318D01*
X0277044Y0165307D01*
X0276936Y0165300D01*
X0276827Y0165297D01*
X0276719Y0165298D01*
X0276610Y0165303D01*
X0276502Y0165312D01*
X0276394Y0165325D01*
X0276287Y0165342D01*
X0276181Y0165363D01*
X0276075Y0165387D01*
X0275970Y0165416D01*
X0275867Y0165448D01*
X0275765Y0165484D01*
X0275664Y0165524D01*
X0275564Y0165568D01*
X0275467Y0165615D01*
X0275371Y0165666D01*
X0275277Y0165720D01*
X0275185Y0165778D01*
X0275095Y0165839D01*
X0275008Y0165903D01*
X0274923Y0165971D01*
X0274840Y0166041D01*
X0274760Y0166115D01*
X0274683Y0166191D01*
X0274609Y0166270D01*
X0274538Y0166352D01*
X0274470Y0166436D01*
X0274405Y0166523D01*
X0274343Y0166612D01*
X0274284Y0166704D01*
X0274229Y0166797D01*
X0274178Y0166892D01*
X0274129Y0166990D01*
X0274085Y0167089D01*
X0274044Y0167189D01*
X0274007Y0167291D01*
X0273974Y0167394D01*
X0273944Y0167499D01*
X0273918Y0167604D01*
X0273897Y0167711D01*
X0273879Y0167818D01*
X0273865Y0167925D01*
X0273855Y0168033D01*
X0273849Y0168142D01*
X0273847Y0168250D01*
X0047847Y0052250D02*
X0047849Y0052358D01*
X0047855Y0052467D01*
X0047865Y0052575D01*
X0047879Y0052682D01*
X0047897Y0052789D01*
X0047918Y0052896D01*
X0047944Y0053001D01*
X0047974Y0053106D01*
X0048007Y0053209D01*
X0048044Y0053311D01*
X0048085Y0053411D01*
X0048129Y0053510D01*
X0048178Y0053608D01*
X0048229Y0053703D01*
X0048284Y0053796D01*
X0048343Y0053888D01*
X0048405Y0053977D01*
X0048470Y0054064D01*
X0048538Y0054148D01*
X0048609Y0054230D01*
X0048683Y0054309D01*
X0048760Y0054385D01*
X0048840Y0054459D01*
X0048923Y0054529D01*
X0049008Y0054597D01*
X0049095Y0054661D01*
X0049185Y0054722D01*
X0049277Y0054780D01*
X0049371Y0054834D01*
X0049467Y0054885D01*
X0049564Y0054932D01*
X0049664Y0054976D01*
X0049765Y0055016D01*
X0049867Y0055052D01*
X0049970Y0055084D01*
X0050075Y0055113D01*
X0050181Y0055137D01*
X0050287Y0055158D01*
X0050394Y0055175D01*
X0050502Y0055188D01*
X0050610Y0055197D01*
X0050719Y0055202D01*
X0050827Y0055203D01*
X0050936Y0055200D01*
X0051044Y0055193D01*
X0051152Y0055182D01*
X0051259Y0055167D01*
X0051366Y0055148D01*
X0051472Y0055125D01*
X0051577Y0055099D01*
X0051682Y0055068D01*
X0051784Y0055034D01*
X0051886Y0054996D01*
X0051986Y0054954D01*
X0052085Y0054909D01*
X0052182Y0054860D01*
X0052276Y0054807D01*
X0052369Y0054751D01*
X0052460Y0054692D01*
X0052549Y0054629D01*
X0052635Y0054564D01*
X0052719Y0054495D01*
X0052800Y0054423D01*
X0052878Y0054348D01*
X0052954Y0054270D01*
X0053027Y0054189D01*
X0053097Y0054106D01*
X0053163Y0054021D01*
X0053227Y0053933D01*
X0053287Y0053842D01*
X0053344Y0053750D01*
X0053397Y0053655D01*
X0053447Y0053559D01*
X0053493Y0053461D01*
X0053536Y0053361D01*
X0053575Y0053260D01*
X0053610Y0053157D01*
X0053642Y0053054D01*
X0053669Y0052949D01*
X0053693Y0052843D01*
X0053713Y0052736D01*
X0053729Y0052629D01*
X0053741Y0052521D01*
X0053749Y0052413D01*
X0053753Y0052304D01*
X0053753Y0052196D01*
X0053749Y0052087D01*
X0053741Y0051979D01*
X0053729Y0051871D01*
X0053713Y0051764D01*
X0053693Y0051657D01*
X0053669Y0051551D01*
X0053642Y0051446D01*
X0053610Y0051343D01*
X0053575Y0051240D01*
X0053536Y0051139D01*
X0053493Y0051039D01*
X0053447Y0050941D01*
X0053397Y0050845D01*
X0053344Y0050750D01*
X0053287Y0050658D01*
X0053227Y0050567D01*
X0053163Y0050479D01*
X0053097Y0050394D01*
X0053027Y0050311D01*
X0052954Y0050230D01*
X0052878Y0050152D01*
X0052800Y0050077D01*
X0052719Y0050005D01*
X0052635Y0049936D01*
X0052549Y0049871D01*
X0052460Y0049808D01*
X0052369Y0049749D01*
X0052277Y0049693D01*
X0052182Y0049640D01*
X0052085Y0049591D01*
X0051986Y0049546D01*
X0051886Y0049504D01*
X0051784Y0049466D01*
X0051682Y0049432D01*
X0051577Y0049401D01*
X0051472Y0049375D01*
X0051366Y0049352D01*
X0051259Y0049333D01*
X0051152Y0049318D01*
X0051044Y0049307D01*
X0050936Y0049300D01*
X0050827Y0049297D01*
X0050719Y0049298D01*
X0050610Y0049303D01*
X0050502Y0049312D01*
X0050394Y0049325D01*
X0050287Y0049342D01*
X0050181Y0049363D01*
X0050075Y0049387D01*
X0049970Y0049416D01*
X0049867Y0049448D01*
X0049765Y0049484D01*
X0049664Y0049524D01*
X0049564Y0049568D01*
X0049467Y0049615D01*
X0049371Y0049666D01*
X0049277Y0049720D01*
X0049185Y0049778D01*
X0049095Y0049839D01*
X0049008Y0049903D01*
X0048923Y0049971D01*
X0048840Y0050041D01*
X0048760Y0050115D01*
X0048683Y0050191D01*
X0048609Y0050270D01*
X0048538Y0050352D01*
X0048470Y0050436D01*
X0048405Y0050523D01*
X0048343Y0050612D01*
X0048284Y0050704D01*
X0048229Y0050797D01*
X0048178Y0050892D01*
X0048129Y0050990D01*
X0048085Y0051089D01*
X0048044Y0051189D01*
X0048007Y0051291D01*
X0047974Y0051394D01*
X0047944Y0051499D01*
X0047918Y0051604D01*
X0047897Y0051711D01*
X0047879Y0051818D01*
X0047865Y0051925D01*
X0047855Y0052033D01*
X0047849Y0052142D01*
X0047847Y0052250D01*
X0017847Y0177250D02*
X0017849Y0177358D01*
X0017855Y0177467D01*
X0017865Y0177575D01*
X0017879Y0177682D01*
X0017897Y0177789D01*
X0017918Y0177896D01*
X0017944Y0178001D01*
X0017974Y0178106D01*
X0018007Y0178209D01*
X0018044Y0178311D01*
X0018085Y0178411D01*
X0018129Y0178510D01*
X0018178Y0178608D01*
X0018229Y0178703D01*
X0018284Y0178796D01*
X0018343Y0178888D01*
X0018405Y0178977D01*
X0018470Y0179064D01*
X0018538Y0179148D01*
X0018609Y0179230D01*
X0018683Y0179309D01*
X0018760Y0179385D01*
X0018840Y0179459D01*
X0018923Y0179529D01*
X0019008Y0179597D01*
X0019095Y0179661D01*
X0019185Y0179722D01*
X0019277Y0179780D01*
X0019371Y0179834D01*
X0019467Y0179885D01*
X0019564Y0179932D01*
X0019664Y0179976D01*
X0019765Y0180016D01*
X0019867Y0180052D01*
X0019970Y0180084D01*
X0020075Y0180113D01*
X0020181Y0180137D01*
X0020287Y0180158D01*
X0020394Y0180175D01*
X0020502Y0180188D01*
X0020610Y0180197D01*
X0020719Y0180202D01*
X0020827Y0180203D01*
X0020936Y0180200D01*
X0021044Y0180193D01*
X0021152Y0180182D01*
X0021259Y0180167D01*
X0021366Y0180148D01*
X0021472Y0180125D01*
X0021577Y0180099D01*
X0021682Y0180068D01*
X0021784Y0180034D01*
X0021886Y0179996D01*
X0021986Y0179954D01*
X0022085Y0179909D01*
X0022182Y0179860D01*
X0022276Y0179807D01*
X0022369Y0179751D01*
X0022460Y0179692D01*
X0022549Y0179629D01*
X0022635Y0179564D01*
X0022719Y0179495D01*
X0022800Y0179423D01*
X0022878Y0179348D01*
X0022954Y0179270D01*
X0023027Y0179189D01*
X0023097Y0179106D01*
X0023163Y0179021D01*
X0023227Y0178933D01*
X0023287Y0178842D01*
X0023344Y0178750D01*
X0023397Y0178655D01*
X0023447Y0178559D01*
X0023493Y0178461D01*
X0023536Y0178361D01*
X0023575Y0178260D01*
X0023610Y0178157D01*
X0023642Y0178054D01*
X0023669Y0177949D01*
X0023693Y0177843D01*
X0023713Y0177736D01*
X0023729Y0177629D01*
X0023741Y0177521D01*
X0023749Y0177413D01*
X0023753Y0177304D01*
X0023753Y0177196D01*
X0023749Y0177087D01*
X0023741Y0176979D01*
X0023729Y0176871D01*
X0023713Y0176764D01*
X0023693Y0176657D01*
X0023669Y0176551D01*
X0023642Y0176446D01*
X0023610Y0176343D01*
X0023575Y0176240D01*
X0023536Y0176139D01*
X0023493Y0176039D01*
X0023447Y0175941D01*
X0023397Y0175845D01*
X0023344Y0175750D01*
X0023287Y0175658D01*
X0023227Y0175567D01*
X0023163Y0175479D01*
X0023097Y0175394D01*
X0023027Y0175311D01*
X0022954Y0175230D01*
X0022878Y0175152D01*
X0022800Y0175077D01*
X0022719Y0175005D01*
X0022635Y0174936D01*
X0022549Y0174871D01*
X0022460Y0174808D01*
X0022369Y0174749D01*
X0022277Y0174693D01*
X0022182Y0174640D01*
X0022085Y0174591D01*
X0021986Y0174546D01*
X0021886Y0174504D01*
X0021784Y0174466D01*
X0021682Y0174432D01*
X0021577Y0174401D01*
X0021472Y0174375D01*
X0021366Y0174352D01*
X0021259Y0174333D01*
X0021152Y0174318D01*
X0021044Y0174307D01*
X0020936Y0174300D01*
X0020827Y0174297D01*
X0020719Y0174298D01*
X0020610Y0174303D01*
X0020502Y0174312D01*
X0020394Y0174325D01*
X0020287Y0174342D01*
X0020181Y0174363D01*
X0020075Y0174387D01*
X0019970Y0174416D01*
X0019867Y0174448D01*
X0019765Y0174484D01*
X0019664Y0174524D01*
X0019564Y0174568D01*
X0019467Y0174615D01*
X0019371Y0174666D01*
X0019277Y0174720D01*
X0019185Y0174778D01*
X0019095Y0174839D01*
X0019008Y0174903D01*
X0018923Y0174971D01*
X0018840Y0175041D01*
X0018760Y0175115D01*
X0018683Y0175191D01*
X0018609Y0175270D01*
X0018538Y0175352D01*
X0018470Y0175436D01*
X0018405Y0175523D01*
X0018343Y0175612D01*
X0018284Y0175704D01*
X0018229Y0175797D01*
X0018178Y0175892D01*
X0018129Y0175990D01*
X0018085Y0176089D01*
X0018044Y0176189D01*
X0018007Y0176291D01*
X0017974Y0176394D01*
X0017944Y0176499D01*
X0017918Y0176604D01*
X0017897Y0176711D01*
X0017879Y0176818D01*
X0017865Y0176925D01*
X0017855Y0177033D01*
X0017849Y0177142D01*
X0017847Y0177250D01*
D55*
X0020550Y0204250D03*
X0020550Y0050250D03*
X0458050Y0050250D03*
X0458050Y0204250D03*
D56*
X0379300Y0204250D03*
X0379300Y0050250D03*
M02*
