G75*
%MOIN*%
%OFA0B0*%
%FSLAX25Y25*%
%IPPOS*%
%LPD*%
%AMOC8*
5,1,8,0,0,1.08239X$1,22.5*
%
%ADD10C,0.01600*%
%ADD11R,0.06299X0.01575*%
%ADD12R,0.06102X0.07480*%
%ADD13R,0.09843X0.03543*%
%ADD14R,0.03150X0.03150*%
%ADD15R,0.06299X0.03543*%
%ADD16R,0.01969X0.01969*%
%ADD17R,0.02362X0.01969*%
%ADD18R,0.02362X0.03543*%
%ADD19R,0.09700X0.03100*%
%ADD20C,0.00984*%
%ADD21R,0.00984X0.00492*%
%ADD22R,0.00492X0.00984*%
%ADD23R,0.08200X0.15000*%
%ADD24R,0.45000X0.35000*%
%ADD25R,0.15000X0.08200*%
%ADD26R,0.35000X0.45000*%
%ADD27R,0.04200X0.08500*%
%ADD28R,0.10000X0.10000*%
%ADD29R,0.30000X0.05000*%
%ADD30R,0.03543X0.05118*%
%ADD31R,0.03543X0.02362*%
%ADD32R,0.05118X0.03543*%
%ADD33R,0.02000X0.04800*%
%ADD34R,0.01400X0.07800*%
%ADD35C,0.01700*%
%ADD36R,0.05512X0.03937*%
%ADD37C,0.02559*%
%ADD38R,0.04800X0.02000*%
%ADD39R,0.04724X0.05512*%
%ADD40R,0.13780X0.05512*%
%ADD41R,0.06890X0.04331*%
%ADD42R,0.04000X0.10000*%
%ADD43R,0.07800X0.02100*%
%ADD44R,0.07874X0.16142*%
%ADD45R,0.16142X0.07874*%
D10*
X0001800Y0027250D02*
X0476800Y0027250D01*
X0476800Y0227250D01*
X0001800Y0227250D01*
X0001800Y0027250D01*
D11*
X0090265Y0090250D03*
X0090265Y0092809D03*
X0090265Y0095368D03*
X0090265Y0097927D03*
X0106800Y0097927D03*
X0106800Y0095368D03*
X0106800Y0092809D03*
X0106800Y0090250D03*
D12*
X0098532Y0094089D03*
D13*
X0338800Y0132148D03*
X0353800Y0132148D03*
X0353800Y0144352D03*
X0338800Y0144352D03*
X0388800Y0144352D03*
X0388800Y0132148D03*
D14*
X0398800Y0138297D03*
X0398800Y0144203D03*
X0416847Y0167250D03*
X0422753Y0167250D03*
X0355753Y0201250D03*
X0349847Y0201250D03*
X0416800Y0203297D03*
X0416800Y0209203D03*
X0396800Y0110203D03*
X0389800Y0110203D03*
X0389800Y0104297D03*
X0396800Y0104297D03*
X0416847Y0094250D03*
X0422753Y0094250D03*
X0355800Y0091297D03*
X0355800Y0097203D03*
X0332753Y0086250D03*
X0326847Y0086250D03*
X0235800Y0057203D03*
X0235800Y0051297D03*
X0228800Y0048797D03*
X0221800Y0050297D03*
X0228800Y0054703D03*
X0221800Y0056203D03*
X0181800Y0055047D03*
X0181800Y0060953D03*
X0177753Y0071250D03*
X0171847Y0071250D03*
X0055800Y0144297D03*
X0055800Y0150203D03*
X0416800Y0051203D03*
X0416800Y0045297D03*
D15*
X0129800Y0088148D03*
X0129800Y0100352D03*
X0061800Y0093352D03*
X0061800Y0081148D03*
D16*
X0080831Y0094250D03*
X0084769Y0094250D03*
X0114800Y0092219D03*
X0114800Y0088281D03*
X0411879Y0122329D03*
X0414831Y0122329D03*
X0414831Y0125281D03*
X0411879Y0125281D03*
X0411879Y0129219D03*
X0414831Y0129219D03*
X0418769Y0129219D03*
X0421721Y0129219D03*
X0421721Y0125281D03*
X0421721Y0122329D03*
X0418769Y0122329D03*
X0418769Y0125281D03*
X0418769Y0132171D03*
X0421721Y0132171D03*
X0414831Y0132171D03*
X0411879Y0132171D03*
D17*
X0416800Y0105219D03*
X0416800Y0101281D03*
X0119800Y0101219D03*
X0119800Y0097281D03*
X0119800Y0092219D03*
X0119800Y0088281D03*
D18*
X0193847Y0067250D03*
X0199753Y0067250D03*
X0159753Y0047250D03*
X0153847Y0047250D03*
X0241847Y0058250D03*
X0247753Y0058250D03*
X0294847Y0052250D03*
X0300753Y0052250D03*
X0321847Y0052250D03*
X0327753Y0052250D03*
X0410847Y0111250D03*
X0416753Y0111250D03*
X0251753Y0152250D03*
X0245847Y0152250D03*
X0247753Y0133250D03*
X0241847Y0133250D03*
X0236753Y0133250D03*
X0230847Y0133250D03*
X0200753Y0152250D03*
X0194847Y0152250D03*
X0308847Y0205250D03*
X0314753Y0205250D03*
X0332847Y0204250D03*
X0338753Y0204250D03*
D19*
X0414800Y0161850D03*
X0418800Y0154650D03*
D20*
X0419753Y0136600D02*
X0419753Y0135616D01*
X0421721Y0135616D02*
X0421721Y0136600D01*
X0423690Y0136600D02*
X0423690Y0135616D01*
X0425166Y0134140D02*
X0426150Y0134140D01*
X0426150Y0132171D02*
X0425166Y0132171D01*
X0425166Y0130203D02*
X0426150Y0130203D01*
X0426150Y0128234D02*
X0425166Y0128234D01*
X0425166Y0126266D02*
X0426150Y0126266D01*
X0426150Y0124297D02*
X0425166Y0124297D01*
X0425166Y0122329D02*
X0426150Y0122329D01*
X0426150Y0120360D02*
X0425166Y0120360D01*
X0423690Y0118884D02*
X0423690Y0117900D01*
X0421721Y0117900D02*
X0421721Y0118884D01*
X0419753Y0118884D02*
X0419753Y0117900D01*
X0417784Y0117900D02*
X0417784Y0118884D01*
X0415816Y0118884D02*
X0415816Y0117900D01*
X0413847Y0117900D02*
X0413847Y0118884D01*
X0411879Y0118884D02*
X0411879Y0117900D01*
X0409910Y0117900D02*
X0409910Y0118884D01*
X0408434Y0120360D02*
X0407450Y0120360D01*
X0407450Y0122329D02*
X0408434Y0122329D01*
X0408434Y0124297D02*
X0407450Y0124297D01*
X0407450Y0126266D02*
X0408434Y0126266D01*
X0408434Y0128234D02*
X0407450Y0128234D01*
X0407450Y0130203D02*
X0408434Y0130203D01*
X0408434Y0132171D02*
X0407450Y0132171D01*
X0407450Y0134140D02*
X0408434Y0134140D01*
X0409910Y0135616D02*
X0409910Y0136600D01*
X0411879Y0136600D02*
X0411879Y0135616D01*
X0413847Y0135616D02*
X0413847Y0136600D01*
X0415816Y0136600D02*
X0415816Y0135616D01*
X0417784Y0135616D02*
X0417784Y0136600D01*
D21*
X0417784Y0136846D03*
X0415816Y0136846D03*
X0413847Y0136846D03*
X0411879Y0136846D03*
X0409910Y0136846D03*
X0419753Y0136846D03*
X0421721Y0136846D03*
X0423690Y0136846D03*
X0423690Y0117654D03*
X0421721Y0117654D03*
X0419753Y0117654D03*
X0417784Y0117654D03*
X0415816Y0117654D03*
X0413847Y0117654D03*
X0411879Y0117654D03*
X0409910Y0117654D03*
D22*
X0407204Y0120360D03*
X0407204Y0122329D03*
X0407204Y0124297D03*
X0407204Y0126266D03*
X0407204Y0128234D03*
X0407204Y0130203D03*
X0407204Y0132171D03*
X0407204Y0134140D03*
X0426396Y0134140D03*
X0426396Y0132171D03*
X0426396Y0130203D03*
X0426396Y0128234D03*
X0426396Y0126266D03*
X0426396Y0124297D03*
X0426396Y0122329D03*
X0426396Y0120360D03*
D23*
X0237800Y0152250D03*
X0217800Y0152250D03*
X0187300Y0152250D03*
X0167300Y0152250D03*
X0136800Y0152250D03*
X0116800Y0152250D03*
D24*
X0126800Y0197250D03*
X0177300Y0197250D03*
X0227800Y0197250D03*
D25*
X0136800Y0067250D03*
X0136800Y0047250D03*
D26*
X0091800Y0057250D03*
D27*
X0075200Y0159450D03*
X0068500Y0159450D03*
X0061800Y0159450D03*
X0055100Y0159450D03*
X0048400Y0159450D03*
D28*
X0051800Y0177250D03*
X0071800Y0177250D03*
X0071800Y0202250D03*
X0051800Y0202250D03*
D29*
X0061800Y0189750D03*
D30*
X0081060Y0159650D03*
X0088540Y0159650D03*
D31*
X0049800Y0150203D03*
X0049800Y0144297D03*
X0146800Y0146297D03*
X0153800Y0146297D03*
X0153800Y0152203D03*
X0146800Y0152203D03*
X0153800Y0136203D03*
X0153800Y0130297D03*
X0195800Y0129297D03*
X0195800Y0135203D03*
X0195800Y0140297D03*
X0195800Y0146203D03*
X0317800Y0097203D03*
X0317800Y0091297D03*
X0214800Y0061203D03*
X0207800Y0061203D03*
X0207800Y0055297D03*
X0214800Y0055297D03*
X0191800Y0054297D03*
X0191800Y0060203D03*
X0167800Y0046203D03*
X0167800Y0040297D03*
X0149800Y0069297D03*
X0149800Y0075203D03*
X0340800Y0161297D03*
X0340800Y0167203D03*
X0351800Y0167203D03*
X0351800Y0161297D03*
D32*
X0091800Y0184510D03*
X0091800Y0191990D03*
D33*
X0168060Y0061750D03*
X0171800Y0061750D03*
X0175540Y0061750D03*
X0175540Y0052750D03*
X0168060Y0052750D03*
D34*
X0223050Y0067550D03*
X0225550Y0067550D03*
X0228050Y0067550D03*
X0230550Y0067550D03*
X0233050Y0067550D03*
X0235550Y0067550D03*
X0238050Y0067550D03*
X0240550Y0067550D03*
X0240550Y0086950D03*
X0238050Y0086950D03*
X0235550Y0086950D03*
X0233050Y0086950D03*
X0230550Y0086950D03*
X0228050Y0086950D03*
X0225550Y0086950D03*
X0223050Y0086950D03*
D35*
X0296950Y0087400D02*
X0296950Y0084100D01*
X0296650Y0084100D01*
X0296650Y0087400D01*
X0296950Y0087400D01*
X0296950Y0085799D02*
X0296650Y0085799D01*
X0306950Y0087400D02*
X0306950Y0084100D01*
X0306650Y0084100D01*
X0306650Y0087400D01*
X0306950Y0087400D01*
X0306950Y0085799D02*
X0306650Y0085799D01*
X0306950Y0095100D02*
X0306950Y0098400D01*
X0306950Y0095100D02*
X0306650Y0095100D01*
X0306650Y0098400D01*
X0306950Y0098400D01*
X0306950Y0096799D02*
X0306650Y0096799D01*
X0296950Y0098400D02*
X0296950Y0095100D01*
X0296650Y0095100D01*
X0296650Y0098400D01*
X0296950Y0098400D01*
X0296950Y0096799D02*
X0296650Y0096799D01*
D36*
X0159131Y0060990D03*
X0150469Y0057250D03*
X0159131Y0053510D03*
D37*
X0253311Y0113250D02*
X0257249Y0113250D01*
X0257249Y0113250D01*
X0253311Y0113250D01*
X0253311Y0113250D01*
X0253311Y0123250D02*
X0257249Y0123250D01*
X0257249Y0123250D01*
X0253311Y0123250D01*
X0253311Y0123250D01*
X0253311Y0133250D02*
X0257249Y0133250D01*
X0257249Y0133250D01*
X0253311Y0133250D01*
X0253311Y0133250D01*
X0288351Y0133250D02*
X0292289Y0133250D01*
X0292289Y0133250D01*
X0288351Y0133250D01*
X0288351Y0133250D01*
X0288351Y0123250D02*
X0292289Y0123250D01*
X0292289Y0123250D01*
X0288351Y0123250D01*
X0288351Y0123250D01*
X0288351Y0113250D02*
X0292289Y0113250D01*
X0292289Y0113250D01*
X0288351Y0113250D01*
X0288351Y0113250D01*
D38*
X0342300Y0187510D03*
X0342300Y0191250D03*
X0342300Y0194990D03*
X0351300Y0194990D03*
X0351300Y0187510D03*
D39*
X0332898Y0197451D03*
X0323800Y0197451D03*
X0314702Y0197451D03*
D40*
X0323800Y0173049D03*
D41*
X0340800Y0155250D03*
X0340800Y0149738D03*
X0351627Y0149738D03*
X0351627Y0155250D03*
D42*
X0407800Y0146750D03*
X0416800Y0146750D03*
D43*
X0346500Y0107750D03*
X0346500Y0102750D03*
X0346500Y0097750D03*
X0346500Y0092750D03*
X0327100Y0092750D03*
X0327100Y0097750D03*
X0327100Y0102750D03*
X0327100Y0107750D03*
D44*
X0034800Y0106376D03*
X0034800Y0072124D03*
D45*
X0071674Y0127250D03*
X0105926Y0127250D03*
M02*
