%
M48
M72
T01C0.0120
T02C0.0160
T03C0.0240
T04C0.0320
T05C0.0394
T06C0.0400
T07C0.0787
T08C0.1160
T09C0.1440
%
T01
X41286Y12331
X41680Y12331
X42074Y12331
X42074Y12725
X42074Y13119
X41680Y13119
X41286Y13119
X41286Y12725
X41680Y12725
T02
X6480Y3725
X11380Y3225
X14880Y4725
X17180Y5025
X18780Y4425
X19780Y5825
X18680Y6025
X20580Y6625
X21980Y6120
X22180Y4425
X24180Y4425
X26380Y5725
X28280Y4425
X29680Y4525
X31680Y5125
X29680Y6225
X28280Y7525
X27880Y8525
X25380Y7225
X24680Y9025
X25180Y10325
X27580Y10725
X30180Y10225
X31980Y11325
X33880Y12625
X32880Y13525
X34680Y13825
X35580Y12725
X37280Y11825
X38980Y11625
X39680Y11725
X40380Y11825
X40280Y12525
X40480Y13225
X40380Y13825
X39680Y13325
X37880Y13725
X37880Y15625
X39780Y15825
X40980Y15625
X42280Y14945
X42280Y14445
X42180Y13945
X42980Y14125
X43180Y13625
X44880Y14325
X46280Y15025
X44480Y15925
X42780Y15425
X42380Y16145
X41180Y16745
X41180Y17245
X41180Y17845
X41180Y18445
X42180Y18445
X42180Y17845
X42180Y17245
X43880Y18325
X45180Y17825
X46680Y17325
X42180Y19045
X42180Y19645
X42180Y20245
X41180Y20245
X41180Y19645
X41180Y19045
X39880Y18325
X37480Y17725
X38780Y16945
X35880Y16125
X34680Y16225
X33280Y15625
X30980Y13525
X29880Y12425
X27780Y15525
X26180Y18225
X30080Y19225
X30480Y20525
X28280Y21225
X25180Y21925
X20280Y21825
X15180Y21825
X9180Y20025
X9180Y17825
X10680Y16525
X8880Y15325
X6180Y15125
X2680Y16025
X6180Y11625
X9180Y10425
X10580Y10425
X12480Y10525
X14380Y10625
X11280Y12025
X14680Y13325
X17680Y15225
X20880Y14225
X22780Y14925
X23280Y12025
X21080Y10525
X20680Y9225
X18880Y8425
X18180Y7525
X16580Y6625
X14680Y6325
X12680Y7825
X14380Y8125
X17880Y10125
X19480Y12125
X9780Y8425
X7680Y9425
X6980Y8125
X4280Y6525
X1080Y10525
X15180Y17525
X20280Y17525
X31780Y21825
X32780Y20325
X34380Y20225
X35080Y21925
X41180Y21845
X41180Y22245
X42180Y22245
X42180Y21845
X42080Y21345
X41280Y21345
X41180Y20845
X42180Y20845
X35880Y18425
X34580Y17825
X43180Y12625
X43180Y12025
X42780Y11425
X42180Y11445
X42180Y10845
X41180Y10545
X42180Y9945
X41180Y9845
X41180Y9145
X42080Y8945
X42080Y8545
X41280Y8545
X41280Y8045
X42080Y8045
X42080Y7545
X41280Y7545
X41280Y7045
X42080Y7045
X42080Y6545
X41280Y6545
X41280Y6045
X42080Y6045
X42080Y5545
X41280Y5545
X41180Y4945
X41180Y4445
X41280Y4045
X42080Y4045
X42180Y4445
X42180Y4945
X42180Y3545
X42180Y3145
X41180Y3145
X41180Y3545
X39980Y6925
X38280Y7925
X40080Y9125
X42780Y9125
X44280Y10525
X46180Y11125
X44880Y12825
X46580Y13225
X45780Y9025
X46380Y7225
X44480Y7225
X36380Y9125
X35480Y10425
X33880Y8625
X31180Y8625
X35880Y7025
X33880Y3925
X27980Y3225
X20080Y3225
X5380Y21925
T03
X6980Y4825
X15980Y6825
X17180Y8025
X19980Y7525
X21580Y8725
X21380Y9325
X21780Y10325
X22480Y10325
X23280Y10225
X23980Y10225
X24680Y9725
X24780Y7525
X20780Y5025
X20180Y4425
X18180Y5025
X29680Y7425
X32580Y8025
X29980Y11325
X23680Y12625
X23780Y14125
X21780Y14025
X20280Y13525
X18780Y14125
X16680Y14025
X15980Y14125
X14680Y15725
X11680Y14025
X20680Y15225
X25680Y15225
X9880Y19225
T04
X30780Y6625
X31780Y6625
X32780Y6625
T05
X28480Y18725
X29480Y18725
T06
X2240Y12725
X3240Y12725
X4240Y12725
X12580Y13125
X13580Y13125
X26680Y6725
X27680Y6725
T07
X30480Y16725
X26480Y20725
T08
X37930Y5025
X37930Y20425
T09
X2055Y5025
X2055Y20425
X45805Y20425
X45805Y5025
M30
