G75*
%MOIN*%
%OFA0B0*%
%FSLAX25Y25*%
%IPPOS*%
%LPD*%
%AMOC8*
5,1,8,0,0,1.08239X$1,22.5*
%
%ADD10C,0.01600*%
%ADD11C,0.00500*%
%ADD12C,0.06400*%
%ADD13C,0.07400*%
%ADD14C,0.12211*%
%ADD15C,0.05200*%
%ADD16R,0.05400X0.20400*%
%ADD17C,0.01000*%
%ADD18R,0.03550X0.03943*%
%ADD19R,0.03943X0.03550*%
%ADD20R,0.03550X0.03550*%
%ADD21R,0.02762X0.03943*%
%ADD22R,0.03943X0.02762*%
%ADD23C,0.04337*%
%ADD24C,0.05906*%
%ADD25C,0.23400*%
%ADD26C,0.18400*%
D10*
X0001800Y0027250D02*
X0476800Y0027250D01*
X0476800Y0227250D01*
X0001800Y0227250D01*
X0001800Y0027250D01*
D11*
X0351800Y0067250D02*
X0351800Y0121250D01*
X0410800Y0121250D01*
X0410800Y0133250D01*
X0351800Y0133250D01*
X0351800Y0121250D01*
X0422800Y0121250D01*
X0471800Y0121250D01*
X0471800Y0133250D01*
X0422800Y0133250D01*
X0422800Y0121250D01*
X0471800Y0121250D01*
X0471800Y0067250D01*
X0351800Y0067250D01*
X0351800Y0067629D02*
X0471800Y0067629D01*
X0471800Y0068128D02*
X0351800Y0068128D01*
X0351800Y0068626D02*
X0471800Y0068626D01*
X0471800Y0069125D02*
X0351800Y0069125D01*
X0351800Y0069623D02*
X0471800Y0069623D01*
X0471800Y0070122D02*
X0351800Y0070122D01*
X0351800Y0070620D02*
X0471800Y0070620D01*
X0471800Y0071119D02*
X0351800Y0071119D01*
X0351800Y0071618D02*
X0471800Y0071618D01*
X0471800Y0072116D02*
X0351800Y0072116D01*
X0351800Y0072615D02*
X0471800Y0072615D01*
X0471800Y0073113D02*
X0351800Y0073113D01*
X0351800Y0073612D02*
X0471800Y0073612D01*
X0471800Y0074110D02*
X0351800Y0074110D01*
X0351800Y0074609D02*
X0471800Y0074609D01*
X0471800Y0075107D02*
X0351800Y0075107D01*
X0351800Y0075606D02*
X0471800Y0075606D01*
X0471800Y0076104D02*
X0351800Y0076104D01*
X0351800Y0076603D02*
X0471800Y0076603D01*
X0471800Y0077101D02*
X0351800Y0077101D01*
X0351800Y0077600D02*
X0471800Y0077600D01*
X0471800Y0078098D02*
X0351800Y0078098D01*
X0351800Y0078597D02*
X0471800Y0078597D01*
X0471800Y0079095D02*
X0351800Y0079095D01*
X0351800Y0079594D02*
X0471800Y0079594D01*
X0471800Y0080092D02*
X0351800Y0080092D01*
X0351800Y0080591D02*
X0471800Y0080591D01*
X0471800Y0081089D02*
X0351800Y0081089D01*
X0351800Y0081588D02*
X0471800Y0081588D01*
X0471800Y0082086D02*
X0351800Y0082086D01*
X0351800Y0082585D02*
X0471800Y0082585D01*
X0471800Y0083083D02*
X0351800Y0083083D01*
X0351800Y0083582D02*
X0471800Y0083582D01*
X0471800Y0084080D02*
X0351800Y0084080D01*
X0351800Y0084579D02*
X0471800Y0084579D01*
X0471800Y0085077D02*
X0351800Y0085077D01*
X0351800Y0085576D02*
X0471800Y0085576D01*
X0471800Y0086074D02*
X0351800Y0086074D01*
X0351800Y0086573D02*
X0471800Y0086573D01*
X0471800Y0087071D02*
X0351800Y0087071D01*
X0351800Y0087570D02*
X0471800Y0087570D01*
X0471800Y0088068D02*
X0351800Y0088068D01*
X0351800Y0088567D02*
X0471800Y0088567D01*
X0471800Y0089065D02*
X0351800Y0089065D01*
X0351800Y0089564D02*
X0471800Y0089564D01*
X0471800Y0090062D02*
X0351800Y0090062D01*
X0351800Y0090561D02*
X0471800Y0090561D01*
X0471800Y0091059D02*
X0351800Y0091059D01*
X0351800Y0091558D02*
X0471800Y0091558D01*
X0471800Y0092056D02*
X0351800Y0092056D01*
X0351800Y0092555D02*
X0471800Y0092555D01*
X0471800Y0093053D02*
X0351800Y0093053D01*
X0351800Y0093552D02*
X0471800Y0093552D01*
X0471800Y0094051D02*
X0351800Y0094051D01*
X0351800Y0094549D02*
X0471800Y0094549D01*
X0471800Y0095048D02*
X0351800Y0095048D01*
X0351800Y0095546D02*
X0471800Y0095546D01*
X0471800Y0096045D02*
X0351800Y0096045D01*
X0351800Y0096543D02*
X0471800Y0096543D01*
X0471800Y0097042D02*
X0351800Y0097042D01*
X0351800Y0097540D02*
X0471800Y0097540D01*
X0471800Y0098039D02*
X0351800Y0098039D01*
X0351800Y0098537D02*
X0471800Y0098537D01*
X0471800Y0099036D02*
X0351800Y0099036D01*
X0351800Y0099534D02*
X0471800Y0099534D01*
X0471800Y0100033D02*
X0351800Y0100033D01*
X0351800Y0100531D02*
X0471800Y0100531D01*
X0471800Y0101030D02*
X0351800Y0101030D01*
X0351800Y0101528D02*
X0471800Y0101528D01*
X0471800Y0102027D02*
X0351800Y0102027D01*
X0351800Y0102525D02*
X0471800Y0102525D01*
X0471800Y0103024D02*
X0351800Y0103024D01*
X0351800Y0103522D02*
X0471800Y0103522D01*
X0471800Y0104021D02*
X0351800Y0104021D01*
X0351800Y0104519D02*
X0471800Y0104519D01*
X0471800Y0105018D02*
X0351800Y0105018D01*
X0351800Y0105516D02*
X0471800Y0105516D01*
X0471800Y0106015D02*
X0351800Y0106015D01*
X0351800Y0106513D02*
X0471800Y0106513D01*
X0471800Y0107012D02*
X0351800Y0107012D01*
X0351800Y0107510D02*
X0471800Y0107510D01*
X0471800Y0108009D02*
X0351800Y0108009D01*
X0351800Y0108507D02*
X0471800Y0108507D01*
X0471800Y0109006D02*
X0351800Y0109006D01*
X0351800Y0109504D02*
X0471800Y0109504D01*
X0471800Y0110003D02*
X0351800Y0110003D01*
X0351800Y0110501D02*
X0471800Y0110501D01*
X0471800Y0111000D02*
X0351800Y0111000D01*
X0351800Y0111498D02*
X0471800Y0111498D01*
X0471800Y0111997D02*
X0351800Y0111997D01*
X0351800Y0112495D02*
X0471800Y0112495D01*
X0471800Y0112994D02*
X0351800Y0112994D01*
X0351800Y0113492D02*
X0471800Y0113492D01*
X0471800Y0113991D02*
X0351800Y0113991D01*
X0351800Y0114489D02*
X0471800Y0114489D01*
X0471800Y0114988D02*
X0351800Y0114988D01*
X0351800Y0115487D02*
X0471800Y0115487D01*
X0471800Y0115985D02*
X0351800Y0115985D01*
X0351800Y0116484D02*
X0471800Y0116484D01*
X0471800Y0116982D02*
X0351800Y0116982D01*
X0351800Y0117481D02*
X0471800Y0117481D01*
X0471800Y0117979D02*
X0351800Y0117979D01*
X0351800Y0118478D02*
X0471800Y0118478D01*
X0471800Y0118976D02*
X0351800Y0118976D01*
X0351800Y0119475D02*
X0471800Y0119475D01*
X0471800Y0119973D02*
X0351800Y0119973D01*
X0351800Y0120472D02*
X0471800Y0120472D01*
X0471800Y0120970D02*
X0351800Y0120970D01*
X0351800Y0121469D02*
X0410800Y0121469D01*
X0412300Y0121469D01*
X0413300Y0121469D01*
X0416300Y0121469D01*
X0417300Y0121469D01*
X0420300Y0121469D01*
X0421300Y0121469D01*
X0422800Y0121469D01*
X0471800Y0121469D01*
X0471800Y0121967D02*
X0422800Y0121967D01*
X0421517Y0121967D01*
X0421300Y0121750D02*
X0421300Y0121250D01*
X0420300Y0121250D01*
X0420300Y0121750D01*
X0419300Y0122750D01*
X0418300Y0122750D01*
X0417300Y0121750D01*
X0417300Y0121250D01*
X0416300Y0121250D01*
X0416300Y0121750D01*
X0415300Y0122750D01*
X0414300Y0122750D01*
X0413300Y0121750D01*
X0413300Y0121250D01*
X0412300Y0121250D01*
X0412300Y0121750D01*
X0411300Y0122750D01*
X0410800Y0122750D01*
X0410800Y0123750D01*
X0411300Y0123750D01*
X0412300Y0124750D01*
X0412300Y0125750D01*
X0411300Y0126750D01*
X0410800Y0126750D01*
X0410800Y0127750D01*
X0411300Y0127750D01*
X0412300Y0128750D01*
X0412300Y0129750D01*
X0411300Y0130750D01*
X0410800Y0130750D01*
X0410800Y0131750D01*
X0411300Y0131750D01*
X0412300Y0132750D01*
X0413300Y0132750D01*
X0413300Y0133250D01*
X0410800Y0133250D01*
X0410800Y0131750D01*
X0411300Y0131750D01*
X0411300Y0130750D01*
X0410800Y0130750D01*
X0410800Y0127750D01*
X0411300Y0127750D01*
X0411300Y0126750D01*
X0410800Y0126750D01*
X0410800Y0123750D01*
X0411300Y0123750D01*
X0411300Y0122750D01*
X0410800Y0122750D01*
X0410800Y0121250D01*
X0412300Y0121250D01*
X0412300Y0121750D01*
X0413300Y0121750D01*
X0413300Y0121250D01*
X0416300Y0121250D01*
X0416300Y0121750D01*
X0417300Y0121750D01*
X0417300Y0121250D01*
X0420300Y0121250D01*
X0420300Y0121750D01*
X0421300Y0121750D01*
X0421300Y0121250D01*
X0422800Y0121250D01*
X0422800Y0122750D01*
X0422300Y0122750D01*
X0421300Y0121750D01*
X0422016Y0122466D02*
X0422800Y0122466D01*
X0471800Y0122466D01*
X0471800Y0122964D02*
X0422800Y0122964D01*
X0422300Y0122964D01*
X0422300Y0122750D02*
X0422800Y0122750D01*
X0422800Y0123750D01*
X0422300Y0123750D01*
X0422300Y0122750D01*
X0422300Y0123463D02*
X0422800Y0123463D01*
X0471800Y0123463D01*
X0471800Y0123961D02*
X0422800Y0123961D01*
X0422089Y0123961D01*
X0422300Y0123750D02*
X0422800Y0123750D01*
X0422800Y0126750D01*
X0422300Y0126750D01*
X0421300Y0125750D01*
X0421300Y0124750D01*
X0422300Y0123750D01*
X0422800Y0124460D02*
X0471800Y0124460D01*
X0471800Y0124958D02*
X0422800Y0124958D01*
X0421300Y0124958D01*
X0420300Y0124958D01*
X0417300Y0124958D01*
X0416300Y0124958D01*
X0413300Y0124958D01*
X0412300Y0124958D01*
X0410800Y0124958D01*
X0351800Y0124958D01*
X0351800Y0124460D02*
X0410800Y0124460D01*
X0412010Y0124460D01*
X0412300Y0124750D02*
X0413300Y0124750D01*
X0413300Y0125750D01*
X0412300Y0125750D01*
X0412300Y0124750D01*
X0412300Y0125457D02*
X0410800Y0125457D01*
X0351800Y0125457D01*
X0351800Y0125955D02*
X0410800Y0125955D01*
X0412095Y0125955D01*
X0412300Y0125457D02*
X0413300Y0125457D01*
X0416300Y0125457D01*
X0417300Y0125457D01*
X0420300Y0125457D01*
X0421300Y0125457D01*
X0422800Y0125457D01*
X0471800Y0125457D01*
X0471800Y0125955D02*
X0422800Y0125955D01*
X0421505Y0125955D01*
X0421300Y0125750D02*
X0421300Y0124750D01*
X0420300Y0124750D01*
X0420300Y0125750D01*
X0421300Y0125750D01*
X0422004Y0126454D02*
X0422800Y0126454D01*
X0471800Y0126454D01*
X0471800Y0126952D02*
X0422800Y0126952D01*
X0422300Y0126952D01*
X0422300Y0126750D02*
X0422800Y0126750D01*
X0422800Y0127750D01*
X0422300Y0127750D01*
X0422300Y0126750D01*
X0422300Y0127451D02*
X0422800Y0127451D01*
X0471800Y0127451D01*
X0471800Y0127949D02*
X0422800Y0127949D01*
X0422101Y0127949D01*
X0422300Y0127750D02*
X0422800Y0127750D01*
X0422800Y0130750D01*
X0422300Y0130750D01*
X0421300Y0129750D01*
X0421300Y0128750D01*
X0422300Y0127750D01*
X0422800Y0128448D02*
X0471800Y0128448D01*
X0471800Y0128946D02*
X0422800Y0128946D01*
X0421300Y0128946D01*
X0420300Y0128946D01*
X0417300Y0128946D01*
X0416300Y0128946D01*
X0413300Y0128946D01*
X0412300Y0128946D01*
X0410800Y0128946D01*
X0351800Y0128946D01*
X0351800Y0128448D02*
X0410800Y0128448D01*
X0411998Y0128448D01*
X0412300Y0128750D02*
X0412300Y0129750D01*
X0413300Y0129750D01*
X0413300Y0128750D01*
X0412300Y0128750D01*
X0412300Y0129445D02*
X0410800Y0129445D01*
X0351800Y0129445D01*
X0351800Y0129943D02*
X0410800Y0129943D01*
X0412107Y0129943D01*
X0412300Y0129445D02*
X0413300Y0129445D01*
X0416300Y0129445D01*
X0417300Y0129445D01*
X0420300Y0129445D01*
X0421300Y0129445D01*
X0422800Y0129445D01*
X0471800Y0129445D01*
X0471800Y0129943D02*
X0422800Y0129943D01*
X0421493Y0129943D01*
X0421300Y0129750D02*
X0421300Y0128750D01*
X0420300Y0128750D01*
X0420300Y0129750D01*
X0421300Y0129750D01*
X0421992Y0130442D02*
X0422800Y0130442D01*
X0471800Y0130442D01*
X0471800Y0130940D02*
X0422800Y0130940D01*
X0422300Y0130940D01*
X0422300Y0130750D02*
X0422800Y0130750D01*
X0422800Y0131750D01*
X0422300Y0131750D01*
X0422300Y0130750D01*
X0422300Y0131439D02*
X0422800Y0131439D01*
X0471800Y0131439D01*
X0471800Y0131937D02*
X0422800Y0131937D01*
X0422113Y0131937D01*
X0422300Y0131750D02*
X0421300Y0132750D01*
X0421300Y0133250D01*
X0422800Y0133250D01*
X0351800Y0133250D01*
X0351800Y0187250D01*
X0471800Y0187250D01*
X0471800Y0133250D01*
X0422800Y0133250D01*
X0422800Y0131750D01*
X0422300Y0131750D01*
X0422800Y0132436D02*
X0471800Y0132436D01*
X0471800Y0132934D02*
X0422800Y0132934D01*
X0421300Y0132934D01*
X0420300Y0132934D01*
X0417300Y0132934D01*
X0416300Y0132934D01*
X0413300Y0132934D01*
X0410800Y0132934D01*
X0351800Y0132934D01*
X0351800Y0132436D02*
X0410800Y0132436D01*
X0411986Y0132436D01*
X0411487Y0131937D02*
X0410800Y0131937D01*
X0351800Y0131937D01*
X0351800Y0131439D02*
X0410800Y0131439D01*
X0411300Y0131439D01*
X0411300Y0130940D02*
X0410800Y0130940D01*
X0351800Y0130940D01*
X0351800Y0130442D02*
X0410800Y0130442D01*
X0411608Y0130442D01*
X0413300Y0129750D02*
X0414300Y0130750D01*
X0415300Y0130750D01*
X0415300Y0131750D01*
X0414300Y0131750D01*
X0413300Y0132750D01*
X0413300Y0133250D01*
X0416300Y0133250D01*
X0416300Y0132750D01*
X0417300Y0132750D01*
X0417300Y0133250D01*
X0420300Y0133250D01*
X0420300Y0132750D01*
X0421300Y0132750D01*
X0421300Y0133250D01*
X0420300Y0133250D01*
X0420300Y0132750D01*
X0419300Y0131750D01*
X0418300Y0131750D01*
X0417300Y0132750D01*
X0417300Y0133250D01*
X0416300Y0133250D01*
X0416300Y0132750D01*
X0415300Y0131750D01*
X0414300Y0131750D01*
X0414300Y0130750D01*
X0415300Y0130750D01*
X0416300Y0129750D01*
X0416300Y0128750D01*
X0417300Y0128750D01*
X0417300Y0129750D01*
X0416300Y0129750D01*
X0416300Y0128750D01*
X0415300Y0127750D01*
X0414300Y0127750D01*
X0414300Y0126750D01*
X0415300Y0126750D01*
X0415300Y0127750D01*
X0414300Y0127750D01*
X0413300Y0128750D01*
X0413300Y0129750D01*
X0413493Y0129943D02*
X0416107Y0129943D01*
X0415608Y0130442D02*
X0413992Y0130442D01*
X0414300Y0130940D02*
X0415300Y0130940D01*
X0415300Y0131439D02*
X0414300Y0131439D01*
X0414113Y0131937D02*
X0415487Y0131937D01*
X0415986Y0132436D02*
X0413614Y0132436D01*
X0417614Y0132436D02*
X0419986Y0132436D01*
X0419487Y0131937D02*
X0418113Y0131937D01*
X0418300Y0131750D02*
X0419300Y0131750D01*
X0419300Y0130750D01*
X0418300Y0130750D01*
X0418300Y0131750D01*
X0418300Y0131439D02*
X0419300Y0131439D01*
X0419300Y0130940D02*
X0418300Y0130940D01*
X0418300Y0130750D02*
X0419300Y0130750D01*
X0420300Y0129750D01*
X0420300Y0128750D01*
X0419300Y0127750D01*
X0418300Y0127750D01*
X0418300Y0126750D01*
X0419300Y0126750D01*
X0419300Y0127750D01*
X0418300Y0127750D01*
X0417300Y0128750D01*
X0417300Y0129750D01*
X0418300Y0130750D01*
X0417992Y0130442D02*
X0419608Y0130442D01*
X0420107Y0129943D02*
X0417493Y0129943D01*
X0417602Y0128448D02*
X0419998Y0128448D01*
X0419499Y0127949D02*
X0418101Y0127949D01*
X0418300Y0127451D02*
X0419300Y0127451D01*
X0419300Y0126952D02*
X0418300Y0126952D01*
X0418300Y0126750D02*
X0417300Y0125750D01*
X0417300Y0124750D01*
X0416300Y0124750D01*
X0416300Y0125750D01*
X0417300Y0125750D01*
X0417300Y0124750D01*
X0418300Y0123750D01*
X0419300Y0123750D01*
X0419300Y0122750D01*
X0418300Y0122750D01*
X0418300Y0123750D01*
X0419300Y0123750D01*
X0420300Y0124750D01*
X0420300Y0125750D01*
X0419300Y0126750D01*
X0418300Y0126750D01*
X0418004Y0126454D02*
X0419596Y0126454D01*
X0420095Y0125955D02*
X0417505Y0125955D01*
X0416300Y0125750D02*
X0415300Y0126750D01*
X0414300Y0126750D01*
X0413300Y0125750D01*
X0413300Y0124750D01*
X0414300Y0123750D01*
X0415300Y0123750D01*
X0415300Y0122750D01*
X0414300Y0122750D01*
X0414300Y0123750D01*
X0415300Y0123750D01*
X0416300Y0124750D01*
X0416300Y0125750D01*
X0416095Y0125955D02*
X0413505Y0125955D01*
X0414004Y0126454D02*
X0415596Y0126454D01*
X0415300Y0126952D02*
X0414300Y0126952D01*
X0414300Y0127451D02*
X0415300Y0127451D01*
X0415499Y0127949D02*
X0414101Y0127949D01*
X0413602Y0128448D02*
X0415998Y0128448D01*
X0416010Y0124460D02*
X0413590Y0124460D01*
X0414089Y0123961D02*
X0415511Y0123961D01*
X0415300Y0123463D02*
X0414300Y0123463D01*
X0414300Y0122964D02*
X0415300Y0122964D01*
X0415584Y0122466D02*
X0414016Y0122466D01*
X0413517Y0121967D02*
X0416083Y0121967D01*
X0417517Y0121967D02*
X0420083Y0121967D01*
X0419584Y0122466D02*
X0418016Y0122466D01*
X0418300Y0122964D02*
X0419300Y0122964D01*
X0419300Y0123463D02*
X0418300Y0123463D01*
X0418089Y0123961D02*
X0419511Y0123961D01*
X0420010Y0124460D02*
X0417590Y0124460D01*
X0421590Y0124460D02*
X0422800Y0124460D01*
X0422800Y0128448D02*
X0421602Y0128448D01*
X0421614Y0132436D02*
X0422800Y0132436D01*
X0411499Y0127949D02*
X0410800Y0127949D01*
X0351800Y0127949D01*
X0351800Y0127451D02*
X0410800Y0127451D01*
X0411300Y0127451D01*
X0411300Y0126952D02*
X0410800Y0126952D01*
X0351800Y0126952D01*
X0351800Y0126454D02*
X0410800Y0126454D01*
X0411596Y0126454D01*
X0411511Y0123961D02*
X0410800Y0123961D01*
X0351800Y0123961D01*
X0351800Y0123463D02*
X0410800Y0123463D01*
X0411300Y0123463D01*
X0411300Y0122964D02*
X0410800Y0122964D01*
X0351800Y0122964D01*
X0351800Y0122466D02*
X0410800Y0122466D01*
X0411584Y0122466D01*
X0412083Y0121967D02*
X0410800Y0121967D01*
X0351800Y0121967D01*
X0351800Y0133433D02*
X0471800Y0133433D01*
X0471800Y0133931D02*
X0351800Y0133931D01*
X0351800Y0134430D02*
X0471800Y0134430D01*
X0471800Y0134928D02*
X0351800Y0134928D01*
X0351800Y0135427D02*
X0471800Y0135427D01*
X0471800Y0135925D02*
X0351800Y0135925D01*
X0351800Y0136424D02*
X0471800Y0136424D01*
X0471800Y0136922D02*
X0351800Y0136922D01*
X0351800Y0137421D02*
X0471800Y0137421D01*
X0471800Y0137920D02*
X0351800Y0137920D01*
X0351800Y0138418D02*
X0471800Y0138418D01*
X0471800Y0138917D02*
X0351800Y0138917D01*
X0351800Y0139415D02*
X0471800Y0139415D01*
X0471800Y0139914D02*
X0351800Y0139914D01*
X0351800Y0140412D02*
X0471800Y0140412D01*
X0471800Y0140911D02*
X0351800Y0140911D01*
X0351800Y0141409D02*
X0471800Y0141409D01*
X0471800Y0141908D02*
X0351800Y0141908D01*
X0351800Y0142406D02*
X0471800Y0142406D01*
X0471800Y0142905D02*
X0351800Y0142905D01*
X0351800Y0143403D02*
X0471800Y0143403D01*
X0471800Y0143902D02*
X0351800Y0143902D01*
X0351800Y0144400D02*
X0471800Y0144400D01*
X0471800Y0144899D02*
X0351800Y0144899D01*
X0351800Y0145397D02*
X0471800Y0145397D01*
X0471800Y0145896D02*
X0351800Y0145896D01*
X0351800Y0146394D02*
X0471800Y0146394D01*
X0471800Y0146893D02*
X0351800Y0146893D01*
X0351800Y0147391D02*
X0471800Y0147391D01*
X0471800Y0147890D02*
X0351800Y0147890D01*
X0351800Y0148388D02*
X0471800Y0148388D01*
X0471800Y0148887D02*
X0351800Y0148887D01*
X0351800Y0149385D02*
X0471800Y0149385D01*
X0471800Y0149884D02*
X0351800Y0149884D01*
X0351800Y0150382D02*
X0471800Y0150382D01*
X0471800Y0150881D02*
X0351800Y0150881D01*
X0351800Y0151379D02*
X0471800Y0151379D01*
X0471800Y0151878D02*
X0351800Y0151878D01*
X0351800Y0152376D02*
X0471800Y0152376D01*
X0471800Y0152875D02*
X0351800Y0152875D01*
X0351800Y0153373D02*
X0471800Y0153373D01*
X0471800Y0153872D02*
X0351800Y0153872D01*
X0351800Y0154370D02*
X0471800Y0154370D01*
X0471800Y0154869D02*
X0351800Y0154869D01*
X0351800Y0155367D02*
X0471800Y0155367D01*
X0471800Y0155866D02*
X0351800Y0155866D01*
X0351800Y0156364D02*
X0471800Y0156364D01*
X0471800Y0156863D02*
X0351800Y0156863D01*
X0351800Y0157361D02*
X0471800Y0157361D01*
X0471800Y0157860D02*
X0351800Y0157860D01*
X0351800Y0158358D02*
X0471800Y0158358D01*
X0471800Y0158857D02*
X0351800Y0158857D01*
X0351800Y0159355D02*
X0471800Y0159355D01*
X0471800Y0159854D02*
X0351800Y0159854D01*
X0351800Y0160353D02*
X0471800Y0160353D01*
X0471800Y0160851D02*
X0351800Y0160851D01*
X0351800Y0161350D02*
X0471800Y0161350D01*
X0471800Y0161848D02*
X0351800Y0161848D01*
X0351800Y0162347D02*
X0471800Y0162347D01*
X0471800Y0162845D02*
X0351800Y0162845D01*
X0351800Y0163344D02*
X0471800Y0163344D01*
X0471800Y0163842D02*
X0351800Y0163842D01*
X0351800Y0164341D02*
X0471800Y0164341D01*
X0471800Y0164839D02*
X0351800Y0164839D01*
X0351800Y0165338D02*
X0471800Y0165338D01*
X0471800Y0165836D02*
X0351800Y0165836D01*
X0351800Y0166335D02*
X0471800Y0166335D01*
X0471800Y0166833D02*
X0351800Y0166833D01*
X0351800Y0167332D02*
X0471800Y0167332D01*
X0471800Y0167830D02*
X0351800Y0167830D01*
X0351800Y0168329D02*
X0471800Y0168329D01*
X0471800Y0168827D02*
X0351800Y0168827D01*
X0351800Y0169326D02*
X0471800Y0169326D01*
X0471800Y0169824D02*
X0351800Y0169824D01*
X0351800Y0170323D02*
X0471800Y0170323D01*
X0471800Y0170821D02*
X0351800Y0170821D01*
X0351800Y0171320D02*
X0471800Y0171320D01*
X0471800Y0171818D02*
X0351800Y0171818D01*
X0351800Y0172317D02*
X0471800Y0172317D01*
X0471800Y0172815D02*
X0351800Y0172815D01*
X0351800Y0173314D02*
X0471800Y0173314D01*
X0471800Y0173812D02*
X0351800Y0173812D01*
X0351800Y0174311D02*
X0471800Y0174311D01*
X0471800Y0174809D02*
X0351800Y0174809D01*
X0351800Y0175308D02*
X0471800Y0175308D01*
X0471800Y0175806D02*
X0351800Y0175806D01*
X0351800Y0176305D02*
X0471800Y0176305D01*
X0471800Y0176803D02*
X0351800Y0176803D01*
X0351800Y0177302D02*
X0471800Y0177302D01*
X0471800Y0177800D02*
X0351800Y0177800D01*
X0351800Y0178299D02*
X0471800Y0178299D01*
X0471800Y0178797D02*
X0351800Y0178797D01*
X0351800Y0179296D02*
X0471800Y0179296D01*
X0471800Y0179794D02*
X0351800Y0179794D01*
X0351800Y0180293D02*
X0471800Y0180293D01*
X0471800Y0180791D02*
X0351800Y0180791D01*
X0351800Y0181290D02*
X0471800Y0181290D01*
X0471800Y0181789D02*
X0351800Y0181789D01*
X0351800Y0182287D02*
X0471800Y0182287D01*
X0471800Y0182786D02*
X0351800Y0182786D01*
X0351800Y0183284D02*
X0471800Y0183284D01*
X0471800Y0183783D02*
X0351800Y0183783D01*
X0351800Y0184281D02*
X0471800Y0184281D01*
X0471800Y0184780D02*
X0351800Y0184780D01*
X0351800Y0185278D02*
X0471800Y0185278D01*
X0471800Y0185777D02*
X0351800Y0185777D01*
X0351800Y0186275D02*
X0471800Y0186275D01*
X0471800Y0186774D02*
X0351800Y0186774D01*
D12*
X0135800Y0134250D02*
X0135800Y0128250D01*
X0125800Y0128250D02*
X0125800Y0134250D01*
X0042400Y0130250D02*
X0042400Y0124250D01*
X0032400Y0124250D02*
X0032400Y0130250D01*
X0022400Y0130250D02*
X0022400Y0124250D01*
X0266800Y0070250D02*
X0266800Y0064250D01*
X0276800Y0064250D02*
X0276800Y0070250D01*
D13*
X0284800Y0187250D03*
X0294800Y0187250D03*
D14*
X0304800Y0167250D03*
X0264800Y0207250D03*
D15*
X0307800Y0068650D02*
X0307800Y0063850D01*
X0317800Y0063850D02*
X0317800Y0068650D01*
X0327800Y0068650D02*
X0327800Y0063850D01*
D16*
X0400050Y0036250D03*
X0433550Y0036250D03*
X0433550Y0217250D03*
X0400050Y0217250D03*
D17*
X0398950Y0216967D02*
X0401500Y0216967D01*
X0401500Y0215969D02*
X0398950Y0215969D01*
X0398950Y0215350D02*
X0398950Y0226750D01*
X0408300Y0226750D01*
X0408300Y0218750D01*
X0401500Y0218750D01*
X0401500Y0215350D01*
X0398950Y0215350D01*
X0398950Y0217966D02*
X0401500Y0217966D01*
X0398950Y0218964D02*
X0408300Y0218964D01*
X0408300Y0219963D02*
X0398950Y0219963D01*
X0398950Y0220961D02*
X0408300Y0220961D01*
X0408300Y0221960D02*
X0398950Y0221960D01*
X0398950Y0222958D02*
X0408300Y0222958D01*
X0408300Y0223957D02*
X0398950Y0223957D01*
X0398950Y0224955D02*
X0408300Y0224955D01*
X0408300Y0225954D02*
X0398950Y0225954D01*
X0425300Y0225954D02*
X0434650Y0225954D01*
X0434650Y0226750D02*
X0425300Y0226750D01*
X0425300Y0218750D01*
X0432100Y0218750D01*
X0432100Y0212800D01*
X0434650Y0212800D01*
X0434650Y0226750D01*
X0434650Y0224955D02*
X0425300Y0224955D01*
X0425300Y0223957D02*
X0434650Y0223957D01*
X0434650Y0222958D02*
X0425300Y0222958D01*
X0425300Y0221960D02*
X0434650Y0221960D01*
X0434650Y0220961D02*
X0425300Y0220961D01*
X0425300Y0219963D02*
X0434650Y0219963D01*
X0434650Y0218964D02*
X0425300Y0218964D01*
X0432100Y0217966D02*
X0434650Y0217966D01*
X0434650Y0216967D02*
X0432100Y0216967D01*
X0432100Y0215969D02*
X0434650Y0215969D01*
X0434650Y0214970D02*
X0432100Y0214970D01*
X0432100Y0213972D02*
X0434650Y0213972D01*
X0434650Y0212973D02*
X0432100Y0212973D01*
X0401500Y0040700D02*
X0401500Y0034750D01*
X0408300Y0034750D01*
X0408300Y0026750D01*
X0398950Y0026750D01*
X0398950Y0040700D01*
X0401500Y0040700D01*
X0401500Y0040231D02*
X0398950Y0040231D01*
X0398950Y0039232D02*
X0401500Y0039232D01*
X0401500Y0038234D02*
X0398950Y0038234D01*
X0398950Y0037235D02*
X0401500Y0037235D01*
X0401500Y0036237D02*
X0398950Y0036237D01*
X0398950Y0035238D02*
X0401500Y0035238D01*
X0398950Y0034240D02*
X0408300Y0034240D01*
X0408300Y0033241D02*
X0398950Y0033241D01*
X0398950Y0032243D02*
X0408300Y0032243D01*
X0408300Y0031244D02*
X0398950Y0031244D01*
X0398950Y0030246D02*
X0408300Y0030246D01*
X0408300Y0029247D02*
X0398950Y0029247D01*
X0398950Y0028249D02*
X0408300Y0028249D01*
X0408300Y0027250D02*
X0398950Y0027250D01*
X0425300Y0027250D02*
X0434650Y0027250D01*
X0434650Y0026750D02*
X0425300Y0026750D01*
X0425300Y0034750D01*
X0432100Y0034750D01*
X0432100Y0038150D01*
X0434650Y0038150D01*
X0434650Y0026750D01*
X0434650Y0028249D02*
X0425300Y0028249D01*
X0425300Y0029247D02*
X0434650Y0029247D01*
X0434650Y0030246D02*
X0425300Y0030246D01*
X0425300Y0031244D02*
X0434650Y0031244D01*
X0434650Y0032243D02*
X0425300Y0032243D01*
X0425300Y0033241D02*
X0434650Y0033241D01*
X0434650Y0034240D02*
X0425300Y0034240D01*
X0432100Y0035238D02*
X0434650Y0035238D01*
X0434650Y0036237D02*
X0432100Y0036237D01*
X0432100Y0037235D02*
X0434650Y0037235D01*
D18*
X0231540Y0066187D03*
X0224060Y0066187D03*
X0227800Y0058313D03*
D19*
X0207863Y0043990D03*
X0215737Y0040250D03*
X0207863Y0036510D03*
D20*
X0228847Y0040250D03*
X0234753Y0040250D03*
X0239847Y0058250D03*
X0245753Y0058250D03*
X0187800Y0116297D03*
X0187800Y0122203D03*
X0257847Y0141250D03*
X0263753Y0141250D03*
X0166753Y0162250D03*
X0160847Y0162250D03*
X0069800Y0061203D03*
X0069800Y0055297D03*
D21*
X0246847Y0040250D03*
X0252753Y0040250D03*
X0251847Y0058250D03*
X0257753Y0058250D03*
X0250753Y0141250D03*
X0244847Y0141250D03*
X0152753Y0162250D03*
X0146847Y0162250D03*
D22*
X0187800Y0136203D03*
X0187800Y0130297D03*
X0069800Y0074203D03*
X0069800Y0068297D03*
D23*
X0091800Y0056250D03*
X0020800Y0148250D03*
X0311800Y0040250D03*
X0323800Y0161250D03*
D24*
X0320847Y0161250D02*
X0320849Y0161358D01*
X0320855Y0161467D01*
X0320865Y0161575D01*
X0320879Y0161682D01*
X0320897Y0161789D01*
X0320918Y0161896D01*
X0320944Y0162001D01*
X0320974Y0162106D01*
X0321007Y0162209D01*
X0321044Y0162311D01*
X0321085Y0162411D01*
X0321129Y0162510D01*
X0321178Y0162608D01*
X0321229Y0162703D01*
X0321284Y0162796D01*
X0321343Y0162888D01*
X0321405Y0162977D01*
X0321470Y0163064D01*
X0321538Y0163148D01*
X0321609Y0163230D01*
X0321683Y0163309D01*
X0321760Y0163385D01*
X0321840Y0163459D01*
X0321923Y0163529D01*
X0322008Y0163597D01*
X0322095Y0163661D01*
X0322185Y0163722D01*
X0322277Y0163780D01*
X0322371Y0163834D01*
X0322467Y0163885D01*
X0322564Y0163932D01*
X0322664Y0163976D01*
X0322765Y0164016D01*
X0322867Y0164052D01*
X0322970Y0164084D01*
X0323075Y0164113D01*
X0323181Y0164137D01*
X0323287Y0164158D01*
X0323394Y0164175D01*
X0323502Y0164188D01*
X0323610Y0164197D01*
X0323719Y0164202D01*
X0323827Y0164203D01*
X0323936Y0164200D01*
X0324044Y0164193D01*
X0324152Y0164182D01*
X0324259Y0164167D01*
X0324366Y0164148D01*
X0324472Y0164125D01*
X0324577Y0164099D01*
X0324682Y0164068D01*
X0324784Y0164034D01*
X0324886Y0163996D01*
X0324986Y0163954D01*
X0325085Y0163909D01*
X0325182Y0163860D01*
X0325276Y0163807D01*
X0325369Y0163751D01*
X0325460Y0163692D01*
X0325549Y0163629D01*
X0325635Y0163564D01*
X0325719Y0163495D01*
X0325800Y0163423D01*
X0325878Y0163348D01*
X0325954Y0163270D01*
X0326027Y0163189D01*
X0326097Y0163106D01*
X0326163Y0163021D01*
X0326227Y0162933D01*
X0326287Y0162842D01*
X0326344Y0162750D01*
X0326397Y0162655D01*
X0326447Y0162559D01*
X0326493Y0162461D01*
X0326536Y0162361D01*
X0326575Y0162260D01*
X0326610Y0162157D01*
X0326642Y0162054D01*
X0326669Y0161949D01*
X0326693Y0161843D01*
X0326713Y0161736D01*
X0326729Y0161629D01*
X0326741Y0161521D01*
X0326749Y0161413D01*
X0326753Y0161304D01*
X0326753Y0161196D01*
X0326749Y0161087D01*
X0326741Y0160979D01*
X0326729Y0160871D01*
X0326713Y0160764D01*
X0326693Y0160657D01*
X0326669Y0160551D01*
X0326642Y0160446D01*
X0326610Y0160343D01*
X0326575Y0160240D01*
X0326536Y0160139D01*
X0326493Y0160039D01*
X0326447Y0159941D01*
X0326397Y0159845D01*
X0326344Y0159750D01*
X0326287Y0159658D01*
X0326227Y0159567D01*
X0326163Y0159479D01*
X0326097Y0159394D01*
X0326027Y0159311D01*
X0325954Y0159230D01*
X0325878Y0159152D01*
X0325800Y0159077D01*
X0325719Y0159005D01*
X0325635Y0158936D01*
X0325549Y0158871D01*
X0325460Y0158808D01*
X0325369Y0158749D01*
X0325277Y0158693D01*
X0325182Y0158640D01*
X0325085Y0158591D01*
X0324986Y0158546D01*
X0324886Y0158504D01*
X0324784Y0158466D01*
X0324682Y0158432D01*
X0324577Y0158401D01*
X0324472Y0158375D01*
X0324366Y0158352D01*
X0324259Y0158333D01*
X0324152Y0158318D01*
X0324044Y0158307D01*
X0323936Y0158300D01*
X0323827Y0158297D01*
X0323719Y0158298D01*
X0323610Y0158303D01*
X0323502Y0158312D01*
X0323394Y0158325D01*
X0323287Y0158342D01*
X0323181Y0158363D01*
X0323075Y0158387D01*
X0322970Y0158416D01*
X0322867Y0158448D01*
X0322765Y0158484D01*
X0322664Y0158524D01*
X0322564Y0158568D01*
X0322467Y0158615D01*
X0322371Y0158666D01*
X0322277Y0158720D01*
X0322185Y0158778D01*
X0322095Y0158839D01*
X0322008Y0158903D01*
X0321923Y0158971D01*
X0321840Y0159041D01*
X0321760Y0159115D01*
X0321683Y0159191D01*
X0321609Y0159270D01*
X0321538Y0159352D01*
X0321470Y0159436D01*
X0321405Y0159523D01*
X0321343Y0159612D01*
X0321284Y0159704D01*
X0321229Y0159797D01*
X0321178Y0159892D01*
X0321129Y0159990D01*
X0321085Y0160089D01*
X0321044Y0160189D01*
X0321007Y0160291D01*
X0320974Y0160394D01*
X0320944Y0160499D01*
X0320918Y0160604D01*
X0320897Y0160711D01*
X0320879Y0160818D01*
X0320865Y0160925D01*
X0320855Y0161033D01*
X0320849Y0161142D01*
X0320847Y0161250D01*
X0308847Y0040250D02*
X0308849Y0040358D01*
X0308855Y0040467D01*
X0308865Y0040575D01*
X0308879Y0040682D01*
X0308897Y0040789D01*
X0308918Y0040896D01*
X0308944Y0041001D01*
X0308974Y0041106D01*
X0309007Y0041209D01*
X0309044Y0041311D01*
X0309085Y0041411D01*
X0309129Y0041510D01*
X0309178Y0041608D01*
X0309229Y0041703D01*
X0309284Y0041796D01*
X0309343Y0041888D01*
X0309405Y0041977D01*
X0309470Y0042064D01*
X0309538Y0042148D01*
X0309609Y0042230D01*
X0309683Y0042309D01*
X0309760Y0042385D01*
X0309840Y0042459D01*
X0309923Y0042529D01*
X0310008Y0042597D01*
X0310095Y0042661D01*
X0310185Y0042722D01*
X0310277Y0042780D01*
X0310371Y0042834D01*
X0310467Y0042885D01*
X0310564Y0042932D01*
X0310664Y0042976D01*
X0310765Y0043016D01*
X0310867Y0043052D01*
X0310970Y0043084D01*
X0311075Y0043113D01*
X0311181Y0043137D01*
X0311287Y0043158D01*
X0311394Y0043175D01*
X0311502Y0043188D01*
X0311610Y0043197D01*
X0311719Y0043202D01*
X0311827Y0043203D01*
X0311936Y0043200D01*
X0312044Y0043193D01*
X0312152Y0043182D01*
X0312259Y0043167D01*
X0312366Y0043148D01*
X0312472Y0043125D01*
X0312577Y0043099D01*
X0312682Y0043068D01*
X0312784Y0043034D01*
X0312886Y0042996D01*
X0312986Y0042954D01*
X0313085Y0042909D01*
X0313182Y0042860D01*
X0313276Y0042807D01*
X0313369Y0042751D01*
X0313460Y0042692D01*
X0313549Y0042629D01*
X0313635Y0042564D01*
X0313719Y0042495D01*
X0313800Y0042423D01*
X0313878Y0042348D01*
X0313954Y0042270D01*
X0314027Y0042189D01*
X0314097Y0042106D01*
X0314163Y0042021D01*
X0314227Y0041933D01*
X0314287Y0041842D01*
X0314344Y0041750D01*
X0314397Y0041655D01*
X0314447Y0041559D01*
X0314493Y0041461D01*
X0314536Y0041361D01*
X0314575Y0041260D01*
X0314610Y0041157D01*
X0314642Y0041054D01*
X0314669Y0040949D01*
X0314693Y0040843D01*
X0314713Y0040736D01*
X0314729Y0040629D01*
X0314741Y0040521D01*
X0314749Y0040413D01*
X0314753Y0040304D01*
X0314753Y0040196D01*
X0314749Y0040087D01*
X0314741Y0039979D01*
X0314729Y0039871D01*
X0314713Y0039764D01*
X0314693Y0039657D01*
X0314669Y0039551D01*
X0314642Y0039446D01*
X0314610Y0039343D01*
X0314575Y0039240D01*
X0314536Y0039139D01*
X0314493Y0039039D01*
X0314447Y0038941D01*
X0314397Y0038845D01*
X0314344Y0038750D01*
X0314287Y0038658D01*
X0314227Y0038567D01*
X0314163Y0038479D01*
X0314097Y0038394D01*
X0314027Y0038311D01*
X0313954Y0038230D01*
X0313878Y0038152D01*
X0313800Y0038077D01*
X0313719Y0038005D01*
X0313635Y0037936D01*
X0313549Y0037871D01*
X0313460Y0037808D01*
X0313369Y0037749D01*
X0313277Y0037693D01*
X0313182Y0037640D01*
X0313085Y0037591D01*
X0312986Y0037546D01*
X0312886Y0037504D01*
X0312784Y0037466D01*
X0312682Y0037432D01*
X0312577Y0037401D01*
X0312472Y0037375D01*
X0312366Y0037352D01*
X0312259Y0037333D01*
X0312152Y0037318D01*
X0312044Y0037307D01*
X0311936Y0037300D01*
X0311827Y0037297D01*
X0311719Y0037298D01*
X0311610Y0037303D01*
X0311502Y0037312D01*
X0311394Y0037325D01*
X0311287Y0037342D01*
X0311181Y0037363D01*
X0311075Y0037387D01*
X0310970Y0037416D01*
X0310867Y0037448D01*
X0310765Y0037484D01*
X0310664Y0037524D01*
X0310564Y0037568D01*
X0310467Y0037615D01*
X0310371Y0037666D01*
X0310277Y0037720D01*
X0310185Y0037778D01*
X0310095Y0037839D01*
X0310008Y0037903D01*
X0309923Y0037971D01*
X0309840Y0038041D01*
X0309760Y0038115D01*
X0309683Y0038191D01*
X0309609Y0038270D01*
X0309538Y0038352D01*
X0309470Y0038436D01*
X0309405Y0038523D01*
X0309343Y0038612D01*
X0309284Y0038704D01*
X0309229Y0038797D01*
X0309178Y0038892D01*
X0309129Y0038990D01*
X0309085Y0039089D01*
X0309044Y0039189D01*
X0309007Y0039291D01*
X0308974Y0039394D01*
X0308944Y0039499D01*
X0308918Y0039604D01*
X0308897Y0039711D01*
X0308879Y0039818D01*
X0308865Y0039925D01*
X0308855Y0040033D01*
X0308849Y0040142D01*
X0308847Y0040250D01*
X0088847Y0056250D02*
X0088849Y0056358D01*
X0088855Y0056467D01*
X0088865Y0056575D01*
X0088879Y0056682D01*
X0088897Y0056789D01*
X0088918Y0056896D01*
X0088944Y0057001D01*
X0088974Y0057106D01*
X0089007Y0057209D01*
X0089044Y0057311D01*
X0089085Y0057411D01*
X0089129Y0057510D01*
X0089178Y0057608D01*
X0089229Y0057703D01*
X0089284Y0057796D01*
X0089343Y0057888D01*
X0089405Y0057977D01*
X0089470Y0058064D01*
X0089538Y0058148D01*
X0089609Y0058230D01*
X0089683Y0058309D01*
X0089760Y0058385D01*
X0089840Y0058459D01*
X0089923Y0058529D01*
X0090008Y0058597D01*
X0090095Y0058661D01*
X0090185Y0058722D01*
X0090277Y0058780D01*
X0090371Y0058834D01*
X0090467Y0058885D01*
X0090564Y0058932D01*
X0090664Y0058976D01*
X0090765Y0059016D01*
X0090867Y0059052D01*
X0090970Y0059084D01*
X0091075Y0059113D01*
X0091181Y0059137D01*
X0091287Y0059158D01*
X0091394Y0059175D01*
X0091502Y0059188D01*
X0091610Y0059197D01*
X0091719Y0059202D01*
X0091827Y0059203D01*
X0091936Y0059200D01*
X0092044Y0059193D01*
X0092152Y0059182D01*
X0092259Y0059167D01*
X0092366Y0059148D01*
X0092472Y0059125D01*
X0092577Y0059099D01*
X0092682Y0059068D01*
X0092784Y0059034D01*
X0092886Y0058996D01*
X0092986Y0058954D01*
X0093085Y0058909D01*
X0093182Y0058860D01*
X0093276Y0058807D01*
X0093369Y0058751D01*
X0093460Y0058692D01*
X0093549Y0058629D01*
X0093635Y0058564D01*
X0093719Y0058495D01*
X0093800Y0058423D01*
X0093878Y0058348D01*
X0093954Y0058270D01*
X0094027Y0058189D01*
X0094097Y0058106D01*
X0094163Y0058021D01*
X0094227Y0057933D01*
X0094287Y0057842D01*
X0094344Y0057750D01*
X0094397Y0057655D01*
X0094447Y0057559D01*
X0094493Y0057461D01*
X0094536Y0057361D01*
X0094575Y0057260D01*
X0094610Y0057157D01*
X0094642Y0057054D01*
X0094669Y0056949D01*
X0094693Y0056843D01*
X0094713Y0056736D01*
X0094729Y0056629D01*
X0094741Y0056521D01*
X0094749Y0056413D01*
X0094753Y0056304D01*
X0094753Y0056196D01*
X0094749Y0056087D01*
X0094741Y0055979D01*
X0094729Y0055871D01*
X0094713Y0055764D01*
X0094693Y0055657D01*
X0094669Y0055551D01*
X0094642Y0055446D01*
X0094610Y0055343D01*
X0094575Y0055240D01*
X0094536Y0055139D01*
X0094493Y0055039D01*
X0094447Y0054941D01*
X0094397Y0054845D01*
X0094344Y0054750D01*
X0094287Y0054658D01*
X0094227Y0054567D01*
X0094163Y0054479D01*
X0094097Y0054394D01*
X0094027Y0054311D01*
X0093954Y0054230D01*
X0093878Y0054152D01*
X0093800Y0054077D01*
X0093719Y0054005D01*
X0093635Y0053936D01*
X0093549Y0053871D01*
X0093460Y0053808D01*
X0093369Y0053749D01*
X0093277Y0053693D01*
X0093182Y0053640D01*
X0093085Y0053591D01*
X0092986Y0053546D01*
X0092886Y0053504D01*
X0092784Y0053466D01*
X0092682Y0053432D01*
X0092577Y0053401D01*
X0092472Y0053375D01*
X0092366Y0053352D01*
X0092259Y0053333D01*
X0092152Y0053318D01*
X0092044Y0053307D01*
X0091936Y0053300D01*
X0091827Y0053297D01*
X0091719Y0053298D01*
X0091610Y0053303D01*
X0091502Y0053312D01*
X0091394Y0053325D01*
X0091287Y0053342D01*
X0091181Y0053363D01*
X0091075Y0053387D01*
X0090970Y0053416D01*
X0090867Y0053448D01*
X0090765Y0053484D01*
X0090664Y0053524D01*
X0090564Y0053568D01*
X0090467Y0053615D01*
X0090371Y0053666D01*
X0090277Y0053720D01*
X0090185Y0053778D01*
X0090095Y0053839D01*
X0090008Y0053903D01*
X0089923Y0053971D01*
X0089840Y0054041D01*
X0089760Y0054115D01*
X0089683Y0054191D01*
X0089609Y0054270D01*
X0089538Y0054352D01*
X0089470Y0054436D01*
X0089405Y0054523D01*
X0089343Y0054612D01*
X0089284Y0054704D01*
X0089229Y0054797D01*
X0089178Y0054892D01*
X0089129Y0054990D01*
X0089085Y0055089D01*
X0089044Y0055189D01*
X0089007Y0055291D01*
X0088974Y0055394D01*
X0088944Y0055499D01*
X0088918Y0055604D01*
X0088897Y0055711D01*
X0088879Y0055818D01*
X0088865Y0055925D01*
X0088855Y0056033D01*
X0088849Y0056142D01*
X0088847Y0056250D01*
X0017847Y0148250D02*
X0017849Y0148358D01*
X0017855Y0148467D01*
X0017865Y0148575D01*
X0017879Y0148682D01*
X0017897Y0148789D01*
X0017918Y0148896D01*
X0017944Y0149001D01*
X0017974Y0149106D01*
X0018007Y0149209D01*
X0018044Y0149311D01*
X0018085Y0149411D01*
X0018129Y0149510D01*
X0018178Y0149608D01*
X0018229Y0149703D01*
X0018284Y0149796D01*
X0018343Y0149888D01*
X0018405Y0149977D01*
X0018470Y0150064D01*
X0018538Y0150148D01*
X0018609Y0150230D01*
X0018683Y0150309D01*
X0018760Y0150385D01*
X0018840Y0150459D01*
X0018923Y0150529D01*
X0019008Y0150597D01*
X0019095Y0150661D01*
X0019185Y0150722D01*
X0019277Y0150780D01*
X0019371Y0150834D01*
X0019467Y0150885D01*
X0019564Y0150932D01*
X0019664Y0150976D01*
X0019765Y0151016D01*
X0019867Y0151052D01*
X0019970Y0151084D01*
X0020075Y0151113D01*
X0020181Y0151137D01*
X0020287Y0151158D01*
X0020394Y0151175D01*
X0020502Y0151188D01*
X0020610Y0151197D01*
X0020719Y0151202D01*
X0020827Y0151203D01*
X0020936Y0151200D01*
X0021044Y0151193D01*
X0021152Y0151182D01*
X0021259Y0151167D01*
X0021366Y0151148D01*
X0021472Y0151125D01*
X0021577Y0151099D01*
X0021682Y0151068D01*
X0021784Y0151034D01*
X0021886Y0150996D01*
X0021986Y0150954D01*
X0022085Y0150909D01*
X0022182Y0150860D01*
X0022276Y0150807D01*
X0022369Y0150751D01*
X0022460Y0150692D01*
X0022549Y0150629D01*
X0022635Y0150564D01*
X0022719Y0150495D01*
X0022800Y0150423D01*
X0022878Y0150348D01*
X0022954Y0150270D01*
X0023027Y0150189D01*
X0023097Y0150106D01*
X0023163Y0150021D01*
X0023227Y0149933D01*
X0023287Y0149842D01*
X0023344Y0149750D01*
X0023397Y0149655D01*
X0023447Y0149559D01*
X0023493Y0149461D01*
X0023536Y0149361D01*
X0023575Y0149260D01*
X0023610Y0149157D01*
X0023642Y0149054D01*
X0023669Y0148949D01*
X0023693Y0148843D01*
X0023713Y0148736D01*
X0023729Y0148629D01*
X0023741Y0148521D01*
X0023749Y0148413D01*
X0023753Y0148304D01*
X0023753Y0148196D01*
X0023749Y0148087D01*
X0023741Y0147979D01*
X0023729Y0147871D01*
X0023713Y0147764D01*
X0023693Y0147657D01*
X0023669Y0147551D01*
X0023642Y0147446D01*
X0023610Y0147343D01*
X0023575Y0147240D01*
X0023536Y0147139D01*
X0023493Y0147039D01*
X0023447Y0146941D01*
X0023397Y0146845D01*
X0023344Y0146750D01*
X0023287Y0146658D01*
X0023227Y0146567D01*
X0023163Y0146479D01*
X0023097Y0146394D01*
X0023027Y0146311D01*
X0022954Y0146230D01*
X0022878Y0146152D01*
X0022800Y0146077D01*
X0022719Y0146005D01*
X0022635Y0145936D01*
X0022549Y0145871D01*
X0022460Y0145808D01*
X0022369Y0145749D01*
X0022277Y0145693D01*
X0022182Y0145640D01*
X0022085Y0145591D01*
X0021986Y0145546D01*
X0021886Y0145504D01*
X0021784Y0145466D01*
X0021682Y0145432D01*
X0021577Y0145401D01*
X0021472Y0145375D01*
X0021366Y0145352D01*
X0021259Y0145333D01*
X0021152Y0145318D01*
X0021044Y0145307D01*
X0020936Y0145300D01*
X0020827Y0145297D01*
X0020719Y0145298D01*
X0020610Y0145303D01*
X0020502Y0145312D01*
X0020394Y0145325D01*
X0020287Y0145342D01*
X0020181Y0145363D01*
X0020075Y0145387D01*
X0019970Y0145416D01*
X0019867Y0145448D01*
X0019765Y0145484D01*
X0019664Y0145524D01*
X0019564Y0145568D01*
X0019467Y0145615D01*
X0019371Y0145666D01*
X0019277Y0145720D01*
X0019185Y0145778D01*
X0019095Y0145839D01*
X0019008Y0145903D01*
X0018923Y0145971D01*
X0018840Y0146041D01*
X0018760Y0146115D01*
X0018683Y0146191D01*
X0018609Y0146270D01*
X0018538Y0146352D01*
X0018470Y0146436D01*
X0018405Y0146523D01*
X0018343Y0146612D01*
X0018284Y0146704D01*
X0018229Y0146797D01*
X0018178Y0146892D01*
X0018129Y0146990D01*
X0018085Y0147089D01*
X0018044Y0147189D01*
X0018007Y0147291D01*
X0017974Y0147394D01*
X0017944Y0147499D01*
X0017918Y0147604D01*
X0017897Y0147711D01*
X0017879Y0147818D01*
X0017865Y0147925D01*
X0017855Y0148033D01*
X0017849Y0148142D01*
X0017847Y0148250D01*
D25*
X0020550Y0204250D03*
X0020550Y0050250D03*
X0458050Y0050250D03*
X0458050Y0204250D03*
D26*
X0379300Y0204250D03*
X0379300Y0050250D03*
M02*
