G75*
%MOIN*%
%OFA0B0*%
%FSLAX25Y25*%
%IPPOS*%
%LPD*%
%AMOC8*
5,1,8,0,0,1.08239X$1,22.5*
%
%ADD10C,0.01600*%
%ADD11C,0.00394*%
%ADD12C,0.00500*%
%ADD13C,0.00300*%
%ADD14C,0.00197*%
%ADD15C,0.00400*%
%ADD16C,0.00100*%
%ADD17C,0.01000*%
%ADD18R,0.05600X0.09800*%
%ADD19R,0.09800X0.05600*%
%ADD20C,0.00800*%
%ADD21R,0.03800X0.06600*%
%ADD22C,0.00600*%
%ADD23C,0.00200*%
D10*
X0001800Y0027250D02*
X0476800Y0027250D01*
X0476800Y0227250D01*
X0001800Y0227250D01*
X0001800Y0027250D01*
D11*
X0092036Y0088281D02*
X0104438Y0088281D01*
X0105225Y0089463D01*
X0105225Y0100093D01*
X0092036Y0100093D01*
X0092036Y0088281D01*
D12*
X0076398Y0106974D02*
X0068524Y0114848D01*
X0068524Y0121344D01*
X0075020Y0115439D02*
X0078957Y0115439D01*
X0076989Y0117407D02*
X0076989Y0113470D01*
X0076398Y0106974D02*
X0109076Y0106974D01*
X0109076Y0121344D01*
X0109076Y0133156D02*
X0109076Y0147526D01*
X0076398Y0147526D01*
X0068524Y0139652D01*
X0068524Y0133156D01*
X0055076Y0109526D02*
X0040706Y0109526D01*
X0028894Y0109526D02*
X0014524Y0109526D01*
X0014524Y0076848D01*
X0022398Y0068974D01*
X0028894Y0068974D01*
X0040706Y0068974D02*
X0047202Y0068974D01*
X0055076Y0076848D01*
X0055076Y0109526D01*
X0046611Y0079407D02*
X0046611Y0075470D01*
X0044643Y0077439D02*
X0048580Y0077439D01*
X0262957Y0111439D02*
X0270831Y0111439D01*
X0274769Y0111439D01*
X0282643Y0111439D01*
X0282643Y0135061D01*
X0262957Y0135061D01*
X0262957Y0111439D01*
X0270831Y0111439D02*
X0270833Y0111526D01*
X0270839Y0111613D01*
X0270848Y0111700D01*
X0270862Y0111786D01*
X0270879Y0111871D01*
X0270900Y0111956D01*
X0270925Y0112039D01*
X0270953Y0112122D01*
X0270985Y0112203D01*
X0271021Y0112282D01*
X0271060Y0112360D01*
X0271102Y0112436D01*
X0271148Y0112510D01*
X0271197Y0112582D01*
X0271249Y0112652D01*
X0271304Y0112719D01*
X0271362Y0112784D01*
X0271423Y0112847D01*
X0271487Y0112906D01*
X0271553Y0112963D01*
X0271622Y0113016D01*
X0271693Y0113067D01*
X0271766Y0113114D01*
X0271841Y0113159D01*
X0271918Y0113199D01*
X0271996Y0113237D01*
X0272077Y0113270D01*
X0272158Y0113301D01*
X0272241Y0113327D01*
X0272326Y0113350D01*
X0272411Y0113369D01*
X0272496Y0113384D01*
X0272583Y0113396D01*
X0272669Y0113404D01*
X0272756Y0113408D01*
X0272844Y0113408D01*
X0272931Y0113404D01*
X0273017Y0113396D01*
X0273104Y0113384D01*
X0273189Y0113369D01*
X0273274Y0113350D01*
X0273359Y0113327D01*
X0273442Y0113301D01*
X0273523Y0113270D01*
X0273604Y0113237D01*
X0273682Y0113199D01*
X0273759Y0113159D01*
X0273834Y0113114D01*
X0273907Y0113067D01*
X0273978Y0113016D01*
X0274047Y0112963D01*
X0274113Y0112906D01*
X0274177Y0112847D01*
X0274238Y0112784D01*
X0274296Y0112719D01*
X0274351Y0112652D01*
X0274403Y0112582D01*
X0274452Y0112510D01*
X0274498Y0112436D01*
X0274540Y0112360D01*
X0274579Y0112282D01*
X0274615Y0112203D01*
X0274647Y0112122D01*
X0274675Y0112039D01*
X0274700Y0111956D01*
X0274721Y0111871D01*
X0274738Y0111786D01*
X0274752Y0111700D01*
X0274761Y0111613D01*
X0274767Y0111526D01*
X0274769Y0111439D01*
X0294600Y0097250D02*
X0294600Y0085350D01*
X0332599Y0129825D02*
X0345001Y0129825D01*
X0345001Y0146675D01*
X0332599Y0146675D01*
X0332599Y0129825D01*
X0347599Y0129825D02*
X0347599Y0146675D01*
X0360001Y0146675D01*
X0360001Y0129825D01*
X0347599Y0129825D01*
X0382599Y0129825D02*
X0382599Y0146675D01*
X0395001Y0146675D01*
X0395001Y0129825D01*
X0382599Y0129825D01*
X0406957Y0137093D02*
X0406957Y0117407D01*
X0426643Y0117407D01*
X0426643Y0137093D01*
X0406957Y0137093D01*
X0407300Y0142750D02*
X0409300Y0142750D01*
X0409300Y0150750D01*
X0407300Y0150750D01*
X0407300Y0142750D01*
X0409300Y0142750D02*
X0415300Y0142750D01*
X0415300Y0150750D01*
X0409300Y0150750D01*
X0415300Y0150750D02*
X0417300Y0150750D01*
X0417300Y0142750D01*
X0415300Y0142750D01*
X0407450Y0118392D02*
X0407452Y0118436D01*
X0407458Y0118480D01*
X0407468Y0118523D01*
X0407481Y0118565D01*
X0407499Y0118605D01*
X0407520Y0118644D01*
X0407544Y0118681D01*
X0407571Y0118716D01*
X0407602Y0118748D01*
X0407635Y0118777D01*
X0407671Y0118803D01*
X0407709Y0118825D01*
X0407749Y0118844D01*
X0407790Y0118860D01*
X0407833Y0118872D01*
X0407876Y0118880D01*
X0407920Y0118884D01*
X0407964Y0118884D01*
X0408008Y0118880D01*
X0408051Y0118872D01*
X0408094Y0118860D01*
X0408135Y0118844D01*
X0408175Y0118825D01*
X0408213Y0118803D01*
X0408249Y0118777D01*
X0408282Y0118748D01*
X0408313Y0118716D01*
X0408340Y0118681D01*
X0408364Y0118644D01*
X0408385Y0118605D01*
X0408403Y0118565D01*
X0408416Y0118523D01*
X0408426Y0118480D01*
X0408432Y0118436D01*
X0408434Y0118392D01*
X0408432Y0118348D01*
X0408426Y0118304D01*
X0408416Y0118261D01*
X0408403Y0118219D01*
X0408385Y0118179D01*
X0408364Y0118140D01*
X0408340Y0118103D01*
X0408313Y0118068D01*
X0408282Y0118036D01*
X0408249Y0118007D01*
X0408213Y0117981D01*
X0408175Y0117959D01*
X0408135Y0117940D01*
X0408094Y0117924D01*
X0408051Y0117912D01*
X0408008Y0117904D01*
X0407964Y0117900D01*
X0407920Y0117900D01*
X0407876Y0117904D01*
X0407833Y0117912D01*
X0407790Y0117924D01*
X0407749Y0117940D01*
X0407709Y0117959D01*
X0407671Y0117981D01*
X0407635Y0118007D01*
X0407602Y0118036D01*
X0407571Y0118068D01*
X0407544Y0118103D01*
X0407520Y0118140D01*
X0407499Y0118179D01*
X0407481Y0118219D01*
X0407468Y0118261D01*
X0407458Y0118304D01*
X0407452Y0118348D01*
X0407450Y0118392D01*
D13*
X0407760Y0113253D02*
X0406526Y0113253D01*
X0405909Y0112636D01*
X0405909Y0112018D01*
X0406526Y0111401D01*
X0407760Y0111401D01*
X0408378Y0110784D01*
X0408378Y0110167D01*
X0407760Y0109550D01*
X0406526Y0109550D01*
X0405909Y0110167D01*
X0405909Y0110784D01*
X0406526Y0111401D01*
X0407760Y0111401D02*
X0408378Y0112018D01*
X0408378Y0112636D01*
X0407760Y0113253D01*
X0404694Y0112636D02*
X0404694Y0111401D01*
X0404077Y0110784D01*
X0402226Y0110784D01*
X0403460Y0110784D02*
X0404694Y0109550D01*
X0402226Y0109550D02*
X0402226Y0113253D01*
X0404077Y0113253D01*
X0404694Y0112636D01*
X0387343Y0123312D02*
X0387343Y0124547D01*
X0386726Y0125164D01*
X0386726Y0126378D02*
X0387343Y0126995D01*
X0387343Y0128230D01*
X0386726Y0128847D01*
X0386109Y0128847D01*
X0385491Y0128230D01*
X0385491Y0127613D01*
X0385491Y0128230D02*
X0384874Y0128847D01*
X0384257Y0128847D01*
X0383640Y0128230D01*
X0383640Y0126995D01*
X0384257Y0126378D01*
X0384257Y0125164D02*
X0383640Y0124547D01*
X0383640Y0123312D01*
X0384257Y0122695D01*
X0386726Y0122695D01*
X0387343Y0123312D01*
X0399096Y0129769D02*
X0399714Y0129152D01*
X0402182Y0129152D01*
X0402800Y0129769D01*
X0402800Y0131003D01*
X0402182Y0131621D01*
X0402182Y0132835D02*
X0400948Y0132835D01*
X0400948Y0134687D01*
X0401565Y0135304D01*
X0402182Y0135304D01*
X0402800Y0134687D01*
X0402800Y0133452D01*
X0402182Y0132835D01*
X0400948Y0132835D02*
X0399714Y0134069D01*
X0399096Y0135304D01*
X0399714Y0131621D02*
X0399096Y0131003D01*
X0399096Y0129769D01*
X0353343Y0128847D02*
X0353343Y0126378D01*
X0350874Y0128847D01*
X0350257Y0128847D01*
X0349640Y0128230D01*
X0349640Y0126995D01*
X0350257Y0126378D01*
X0350257Y0125164D02*
X0349640Y0124547D01*
X0349640Y0123312D01*
X0350257Y0122695D01*
X0352726Y0122695D01*
X0353343Y0123312D01*
X0353343Y0124547D01*
X0352726Y0125164D01*
X0335957Y0125891D02*
X0335957Y0123422D01*
X0333488Y0125891D01*
X0332871Y0125891D01*
X0332254Y0125273D01*
X0332254Y0124039D01*
X0332871Y0123422D01*
X0332871Y0122207D02*
X0332254Y0121590D01*
X0332254Y0120356D01*
X0332871Y0119739D01*
X0335340Y0119739D01*
X0335957Y0120356D01*
X0335957Y0121590D01*
X0335340Y0122207D01*
X0335957Y0127105D02*
X0335957Y0129574D01*
X0335957Y0128339D02*
X0332254Y0128339D01*
X0333488Y0127105D01*
X0327086Y0113420D02*
X0323950Y0110284D01*
X0323950Y0111852D02*
X0327086Y0111852D01*
X0327086Y0110284D02*
X0323950Y0113420D01*
X0325518Y0113420D02*
X0325518Y0110284D01*
X0314500Y0098893D02*
X0314500Y0097659D01*
X0313883Y0097042D01*
X0311414Y0099511D01*
X0313883Y0099511D01*
X0314500Y0098893D01*
X0313883Y0097042D02*
X0311414Y0097042D01*
X0310797Y0097659D01*
X0310797Y0098893D01*
X0311414Y0099511D01*
X0311414Y0095828D02*
X0310797Y0095210D01*
X0310797Y0093976D01*
X0311414Y0093359D01*
X0311414Y0092144D02*
X0312649Y0092144D01*
X0313266Y0091527D01*
X0313266Y0089676D01*
X0313266Y0090910D02*
X0314500Y0092144D01*
X0313883Y0093359D02*
X0314500Y0093976D01*
X0314500Y0095210D01*
X0313883Y0095828D01*
X0313266Y0095828D01*
X0312649Y0095210D01*
X0312649Y0094593D01*
X0312649Y0095210D02*
X0312032Y0095828D01*
X0311414Y0095828D01*
X0311414Y0092144D02*
X0310797Y0091527D01*
X0310797Y0089676D01*
X0314500Y0089676D01*
X0336019Y0084336D02*
X0336019Y0081868D01*
X0336636Y0081250D01*
X0337870Y0081250D01*
X0338487Y0081868D01*
X0339702Y0081250D02*
X0342171Y0083719D01*
X0342171Y0084336D01*
X0341553Y0084954D01*
X0340319Y0084954D01*
X0339702Y0084336D01*
X0338487Y0084336D02*
X0337870Y0084954D01*
X0336636Y0084954D01*
X0336019Y0084336D01*
X0339702Y0081250D02*
X0342171Y0081250D01*
X0343385Y0081868D02*
X0344002Y0081250D01*
X0345237Y0081250D01*
X0345854Y0081868D01*
X0345854Y0084336D01*
X0345237Y0084954D01*
X0344002Y0084954D01*
X0343385Y0084336D01*
X0343385Y0083719D01*
X0344002Y0083102D01*
X0345854Y0083102D01*
X0353797Y0083133D02*
X0353797Y0081899D01*
X0354414Y0081282D01*
X0356883Y0081282D01*
X0357500Y0081899D01*
X0357500Y0083133D01*
X0356883Y0083751D01*
X0356883Y0084965D02*
X0357500Y0085582D01*
X0357500Y0086817D01*
X0356883Y0087434D01*
X0355649Y0087434D01*
X0355032Y0086817D01*
X0355032Y0086199D01*
X0355649Y0084965D01*
X0353797Y0084965D01*
X0353797Y0087434D01*
X0354414Y0083751D02*
X0353797Y0083133D01*
X0385702Y0097868D02*
X0385702Y0100336D01*
X0386319Y0100954D01*
X0387553Y0100954D01*
X0388171Y0100336D01*
X0389385Y0099102D02*
X0391854Y0099102D01*
X0391237Y0100954D02*
X0389385Y0099102D01*
X0388171Y0097868D02*
X0387553Y0097250D01*
X0386319Y0097250D01*
X0385702Y0097868D01*
X0391237Y0097250D02*
X0391237Y0100954D01*
X0394702Y0100336D02*
X0394702Y0097868D01*
X0395319Y0097250D01*
X0396553Y0097250D01*
X0397171Y0097868D01*
X0398385Y0097868D02*
X0400854Y0100336D01*
X0400854Y0100954D01*
X0398385Y0100954D01*
X0397171Y0100336D02*
X0396553Y0100954D01*
X0395319Y0100954D01*
X0394702Y0100336D01*
X0398385Y0097868D02*
X0398385Y0097250D01*
X0426832Y0096636D02*
X0426832Y0094167D01*
X0427449Y0093550D01*
X0428683Y0093550D01*
X0429301Y0094167D01*
X0430515Y0093550D02*
X0432984Y0096018D01*
X0432984Y0096636D01*
X0432367Y0097253D01*
X0431132Y0097253D01*
X0430515Y0096636D01*
X0429301Y0096636D02*
X0428683Y0097253D01*
X0427449Y0097253D01*
X0426832Y0096636D01*
X0434198Y0095401D02*
X0436050Y0095401D01*
X0436667Y0094784D01*
X0436667Y0094167D01*
X0436050Y0093550D01*
X0434815Y0093550D01*
X0434198Y0094167D01*
X0434198Y0095401D01*
X0435433Y0096636D01*
X0436667Y0097253D01*
X0432984Y0093550D02*
X0430515Y0093550D01*
X0432050Y0055253D02*
X0430198Y0053401D01*
X0432667Y0053401D01*
X0432050Y0051550D02*
X0432050Y0055253D01*
X0428984Y0054636D02*
X0428367Y0055253D01*
X0427132Y0055253D01*
X0426515Y0054636D01*
X0425301Y0054636D02*
X0424683Y0055253D01*
X0423449Y0055253D01*
X0422832Y0054636D01*
X0422832Y0052167D01*
X0423449Y0051550D01*
X0424683Y0051550D01*
X0425301Y0052167D01*
X0426515Y0051550D02*
X0428984Y0054018D01*
X0428984Y0054636D01*
X0428984Y0051550D02*
X0426515Y0051550D01*
X0328460Y0048336D02*
X0325991Y0045868D01*
X0326608Y0045250D01*
X0327843Y0045250D01*
X0328460Y0045868D01*
X0328460Y0048336D01*
X0327843Y0048954D01*
X0326608Y0048954D01*
X0325991Y0048336D01*
X0325991Y0045868D01*
X0324777Y0045250D02*
X0322308Y0045250D01*
X0324777Y0047719D01*
X0324777Y0048336D01*
X0324160Y0048954D01*
X0322925Y0048954D01*
X0322308Y0048336D01*
X0321094Y0048336D02*
X0321094Y0047102D01*
X0320477Y0046485D01*
X0318625Y0046485D01*
X0319859Y0046485D02*
X0321094Y0045250D01*
X0318625Y0045250D02*
X0318625Y0048954D01*
X0320477Y0048954D01*
X0321094Y0048336D01*
X0310061Y0047636D02*
X0310061Y0045167D01*
X0309443Y0044550D01*
X0308209Y0044550D01*
X0307592Y0045167D01*
X0306378Y0044550D02*
X0303909Y0044550D01*
X0302694Y0044550D02*
X0301460Y0045784D01*
X0302077Y0045784D02*
X0300226Y0045784D01*
X0300226Y0044550D02*
X0300226Y0048253D01*
X0302077Y0048253D01*
X0302694Y0047636D01*
X0302694Y0046401D01*
X0302077Y0045784D01*
X0303909Y0047018D02*
X0305143Y0048253D01*
X0305143Y0044550D01*
X0307592Y0047018D02*
X0308209Y0046401D01*
X0310061Y0046401D01*
X0310061Y0047636D02*
X0309443Y0048253D01*
X0308209Y0048253D01*
X0307592Y0047636D01*
X0307592Y0047018D01*
X0249667Y0049167D02*
X0249667Y0049784D01*
X0249050Y0050401D01*
X0247198Y0050401D01*
X0247198Y0049167D01*
X0247815Y0048550D01*
X0249050Y0048550D01*
X0249667Y0049167D01*
X0248433Y0051636D02*
X0247198Y0050401D01*
X0248433Y0051636D02*
X0249667Y0052253D01*
X0244749Y0052253D02*
X0244749Y0048550D01*
X0243515Y0048550D02*
X0245984Y0048550D01*
X0243515Y0051018D02*
X0244749Y0052253D01*
X0242301Y0051636D02*
X0241683Y0052253D01*
X0240449Y0052253D01*
X0239832Y0051636D01*
X0239832Y0049167D01*
X0240449Y0048550D01*
X0241683Y0048550D01*
X0242301Y0049167D01*
X0236667Y0045753D02*
X0234198Y0045753D01*
X0234198Y0043901D01*
X0235433Y0044518D01*
X0236050Y0044518D01*
X0236667Y0043901D01*
X0236667Y0042667D01*
X0236050Y0042050D01*
X0234815Y0042050D01*
X0234198Y0042667D01*
X0232984Y0042050D02*
X0230515Y0042050D01*
X0231749Y0042050D02*
X0231749Y0045753D01*
X0230515Y0044518D01*
X0229301Y0045136D02*
X0228683Y0045753D01*
X0227449Y0045753D01*
X0226832Y0045136D01*
X0226832Y0042667D01*
X0227449Y0042050D01*
X0228683Y0042050D01*
X0229301Y0042667D01*
X0225050Y0043550D02*
X0225050Y0047253D01*
X0223198Y0045401D01*
X0225667Y0045401D01*
X0221984Y0043550D02*
X0219515Y0043550D01*
X0220749Y0043550D02*
X0220749Y0047253D01*
X0219515Y0046018D01*
X0218301Y0046636D02*
X0217683Y0047253D01*
X0216449Y0047253D01*
X0215832Y0046636D01*
X0215832Y0044167D01*
X0216449Y0043550D01*
X0217683Y0043550D01*
X0218301Y0044167D01*
X0217460Y0049250D02*
X0214991Y0049250D01*
X0217460Y0051719D01*
X0217460Y0052336D01*
X0216843Y0052954D01*
X0215608Y0052954D01*
X0214991Y0052336D01*
X0213777Y0052336D02*
X0213777Y0051102D01*
X0213160Y0050485D01*
X0211308Y0050485D01*
X0212543Y0050485D02*
X0213777Y0049250D01*
X0211308Y0049250D02*
X0211308Y0052954D01*
X0213160Y0052954D01*
X0213777Y0052336D01*
X0204500Y0054676D02*
X0200797Y0054676D01*
X0200797Y0056527D01*
X0201414Y0057144D01*
X0202649Y0057144D01*
X0203266Y0056527D01*
X0203266Y0054676D01*
X0203266Y0055910D02*
X0204500Y0057144D01*
X0203883Y0058359D02*
X0204500Y0058976D01*
X0204500Y0060210D01*
X0203883Y0060828D01*
X0203266Y0060828D01*
X0202649Y0060210D01*
X0202649Y0059593D01*
X0202649Y0060210D02*
X0202032Y0060828D01*
X0201414Y0060828D01*
X0200797Y0060210D01*
X0200797Y0058976D01*
X0201414Y0058359D01*
X0200226Y0051954D02*
X0200226Y0048250D01*
X0201460Y0048250D02*
X0198991Y0048250D01*
X0197777Y0048250D02*
X0195308Y0048250D01*
X0194094Y0048250D02*
X0192859Y0049485D01*
X0193477Y0049485D02*
X0191625Y0049485D01*
X0191625Y0048250D02*
X0191625Y0051954D01*
X0193477Y0051954D01*
X0194094Y0051336D01*
X0194094Y0050102D01*
X0193477Y0049485D01*
X0195308Y0050719D02*
X0196543Y0051954D01*
X0196543Y0048250D01*
X0198991Y0050719D02*
X0200226Y0051954D01*
X0188500Y0053649D02*
X0187883Y0053032D01*
X0185414Y0053032D01*
X0184797Y0053649D01*
X0184797Y0054883D01*
X0185414Y0055501D01*
X0186032Y0056715D02*
X0184797Y0057949D01*
X0188500Y0057949D01*
X0188500Y0056715D02*
X0188500Y0059184D01*
X0188500Y0060398D02*
X0187883Y0060398D01*
X0185414Y0062867D01*
X0184797Y0062867D01*
X0184797Y0060398D01*
X0181070Y0061764D02*
X0177934Y0064900D01*
X0179502Y0064900D02*
X0179502Y0061764D01*
X0177934Y0061764D02*
X0181070Y0064900D01*
X0181070Y0063332D02*
X0177934Y0063332D01*
X0187883Y0055501D02*
X0188500Y0054883D01*
X0188500Y0053649D01*
X0192226Y0070550D02*
X0192226Y0074253D01*
X0194077Y0074253D01*
X0194694Y0073636D01*
X0194694Y0072401D01*
X0194077Y0071784D01*
X0192226Y0071784D01*
X0193460Y0071784D02*
X0194694Y0070550D01*
X0195909Y0070550D02*
X0198378Y0070550D01*
X0199592Y0070550D02*
X0202061Y0073018D01*
X0202061Y0073636D01*
X0201443Y0074253D01*
X0200209Y0074253D01*
X0199592Y0073636D01*
X0197143Y0074253D02*
X0197143Y0070550D01*
X0199592Y0070550D02*
X0202061Y0070550D01*
X0197143Y0074253D02*
X0195909Y0073018D01*
X0174854Y0075868D02*
X0174237Y0075250D01*
X0173002Y0075250D01*
X0172385Y0075868D01*
X0172385Y0076485D01*
X0173002Y0077102D01*
X0174237Y0077102D01*
X0174854Y0076485D01*
X0174854Y0075868D01*
X0174237Y0077102D02*
X0174854Y0077719D01*
X0174854Y0078336D01*
X0174237Y0078954D01*
X0173002Y0078954D01*
X0172385Y0078336D01*
X0172385Y0077719D01*
X0173002Y0077102D01*
X0171171Y0075250D02*
X0168702Y0075250D01*
X0169936Y0075250D02*
X0169936Y0078954D01*
X0168702Y0077719D01*
X0167487Y0078336D02*
X0166870Y0078954D01*
X0165636Y0078954D01*
X0165019Y0078336D01*
X0165019Y0075868D01*
X0165636Y0075250D01*
X0166870Y0075250D01*
X0167487Y0075868D01*
X0151500Y0077676D02*
X0147797Y0077676D01*
X0147797Y0079527D01*
X0148414Y0080144D01*
X0149649Y0080144D01*
X0150266Y0079527D01*
X0150266Y0077676D01*
X0150266Y0078910D02*
X0151500Y0080144D01*
X0150883Y0081359D02*
X0151500Y0081976D01*
X0151500Y0083210D01*
X0150883Y0083828D01*
X0149649Y0083828D01*
X0149032Y0083210D01*
X0149032Y0082593D01*
X0149649Y0081359D01*
X0147797Y0081359D01*
X0147797Y0083828D01*
X0138532Y0091356D02*
X0137915Y0090739D01*
X0135446Y0090739D01*
X0134829Y0091356D01*
X0134829Y0092590D01*
X0135446Y0093207D01*
X0135446Y0094422D02*
X0136063Y0094422D01*
X0136680Y0095039D01*
X0136680Y0096273D01*
X0137298Y0096891D01*
X0137915Y0096891D01*
X0138532Y0096273D01*
X0138532Y0095039D01*
X0137915Y0094422D01*
X0137298Y0094422D01*
X0136680Y0095039D01*
X0136680Y0096273D02*
X0136063Y0096891D01*
X0135446Y0096891D01*
X0134829Y0096273D01*
X0134829Y0095039D01*
X0135446Y0094422D01*
X0137915Y0093207D02*
X0138532Y0092590D01*
X0138532Y0091356D01*
X0115012Y0095511D02*
X0115012Y0096745D01*
X0114395Y0097363D01*
X0115012Y0098577D02*
X0115012Y0101046D01*
X0115012Y0102260D02*
X0115012Y0104729D01*
X0115012Y0103495D02*
X0111309Y0103495D01*
X0112543Y0102260D01*
X0111309Y0099811D02*
X0115012Y0099811D01*
X0112543Y0098577D02*
X0111309Y0099811D01*
X0111926Y0097363D02*
X0111309Y0096745D01*
X0111309Y0095511D01*
X0111926Y0094894D01*
X0114395Y0094894D01*
X0115012Y0095511D01*
X0087279Y0099655D02*
X0086662Y0099038D01*
X0085427Y0099038D01*
X0084810Y0099655D01*
X0087279Y0102124D01*
X0087279Y0099655D01*
X0087279Y0102124D02*
X0086662Y0102741D01*
X0085427Y0102741D01*
X0084810Y0102124D01*
X0084810Y0099655D01*
X0083596Y0099038D02*
X0081127Y0099038D01*
X0082361Y0099038D02*
X0082361Y0102741D01*
X0081127Y0101507D01*
X0079913Y0102124D02*
X0079295Y0102741D01*
X0078061Y0102741D01*
X0077444Y0102124D01*
X0077444Y0099655D01*
X0078061Y0099038D01*
X0079295Y0099038D01*
X0079913Y0099655D01*
X0064823Y0077221D02*
X0063589Y0077221D01*
X0062972Y0076604D01*
X0062972Y0075987D01*
X0063589Y0075370D01*
X0065441Y0075370D01*
X0065441Y0076604D02*
X0065441Y0074135D01*
X0064823Y0073518D01*
X0063589Y0073518D01*
X0062972Y0074135D01*
X0061757Y0074135D02*
X0061140Y0073518D01*
X0059906Y0073518D01*
X0059289Y0074135D01*
X0059289Y0076604D01*
X0059906Y0077221D01*
X0061140Y0077221D01*
X0061757Y0076604D01*
X0064823Y0077221D02*
X0065441Y0076604D01*
X0154226Y0043253D02*
X0154226Y0039550D01*
X0154226Y0040784D02*
X0156077Y0040784D01*
X0156694Y0041401D01*
X0156694Y0042636D01*
X0156077Y0043253D01*
X0154226Y0043253D01*
X0155460Y0040784D02*
X0156694Y0039550D01*
X0157909Y0040167D02*
X0158526Y0039550D01*
X0159760Y0039550D01*
X0160378Y0040167D01*
X0160378Y0042636D01*
X0159760Y0043253D01*
X0158526Y0043253D01*
X0157909Y0042636D01*
X0157909Y0042018D01*
X0158526Y0041401D01*
X0160378Y0041401D01*
X0163226Y0037253D02*
X0165077Y0037253D01*
X0165694Y0036636D01*
X0165694Y0035401D01*
X0165077Y0034784D01*
X0163226Y0034784D01*
X0164460Y0034784D02*
X0165694Y0033550D01*
X0166909Y0033550D02*
X0169378Y0033550D01*
X0168143Y0033550D02*
X0168143Y0037253D01*
X0166909Y0036018D01*
X0170592Y0036636D02*
X0170592Y0034167D01*
X0173061Y0036636D01*
X0173061Y0034167D01*
X0172443Y0033550D01*
X0171209Y0033550D01*
X0170592Y0034167D01*
X0170592Y0036636D02*
X0171209Y0037253D01*
X0172443Y0037253D01*
X0173061Y0036636D01*
X0163226Y0037253D02*
X0163226Y0033550D01*
X0245308Y0061250D02*
X0245308Y0064954D01*
X0247160Y0064954D01*
X0247777Y0064336D01*
X0247777Y0063102D01*
X0247160Y0062485D01*
X0245308Y0062485D01*
X0246543Y0062485D02*
X0247777Y0061250D01*
X0248991Y0063102D02*
X0250843Y0064954D01*
X0250843Y0061250D01*
X0251460Y0063102D02*
X0248991Y0063102D01*
X0245470Y0086964D02*
X0242334Y0090100D01*
X0243902Y0090100D02*
X0243902Y0086964D01*
X0242334Y0086964D02*
X0245470Y0090100D01*
X0245470Y0088532D02*
X0242334Y0088532D01*
X0242094Y0126250D02*
X0240859Y0127485D01*
X0241477Y0127485D02*
X0239625Y0127485D01*
X0239625Y0126250D02*
X0239625Y0129954D01*
X0241477Y0129954D01*
X0242094Y0129336D01*
X0242094Y0128102D01*
X0241477Y0127485D01*
X0243308Y0128719D02*
X0244543Y0129954D01*
X0244543Y0126250D01*
X0245777Y0126250D02*
X0243308Y0126250D01*
X0246991Y0128102D02*
X0249460Y0128102D01*
X0248843Y0126250D02*
X0248843Y0129954D01*
X0246991Y0128102D01*
X0238443Y0136550D02*
X0237209Y0136550D01*
X0236592Y0137167D01*
X0236592Y0138401D02*
X0237826Y0139018D01*
X0238443Y0139018D01*
X0239061Y0138401D01*
X0239061Y0137167D01*
X0238443Y0136550D01*
X0236592Y0138401D02*
X0236592Y0140253D01*
X0239061Y0140253D01*
X0234143Y0140253D02*
X0232909Y0139018D01*
X0231694Y0138401D02*
X0231077Y0137784D01*
X0229226Y0137784D01*
X0230460Y0137784D02*
X0231694Y0136550D01*
X0232909Y0136550D02*
X0235378Y0136550D01*
X0234143Y0136550D02*
X0234143Y0140253D01*
X0231694Y0139636D02*
X0231694Y0138401D01*
X0231694Y0139636D02*
X0231077Y0140253D01*
X0229226Y0140253D01*
X0229226Y0136550D01*
X0243625Y0145250D02*
X0243625Y0148954D01*
X0245477Y0148954D01*
X0246094Y0148336D01*
X0246094Y0147102D01*
X0245477Y0146485D01*
X0243625Y0146485D01*
X0244859Y0146485D02*
X0246094Y0145250D01*
X0247308Y0145250D02*
X0249777Y0145250D01*
X0248543Y0145250D02*
X0248543Y0148954D01*
X0247308Y0147719D01*
X0250991Y0148336D02*
X0251608Y0148954D01*
X0252843Y0148954D01*
X0253460Y0148336D01*
X0253460Y0147719D01*
X0252843Y0147102D01*
X0253460Y0146485D01*
X0253460Y0145868D01*
X0252843Y0145250D01*
X0251608Y0145250D01*
X0250991Y0145868D01*
X0252226Y0147102D02*
X0252843Y0147102D01*
X0203800Y0145441D02*
X0203182Y0145441D01*
X0200714Y0147910D01*
X0200096Y0147910D01*
X0200096Y0145441D01*
X0200096Y0142993D02*
X0203800Y0142993D01*
X0203800Y0144227D02*
X0203800Y0141758D01*
X0203800Y0140544D02*
X0202565Y0139309D01*
X0202565Y0139927D02*
X0202565Y0138075D01*
X0203800Y0138075D02*
X0200096Y0138075D01*
X0200096Y0139927D01*
X0200714Y0140544D01*
X0201948Y0140544D01*
X0202565Y0139927D01*
X0201331Y0141758D02*
X0200096Y0142993D01*
X0191800Y0136293D02*
X0191182Y0136910D01*
X0190565Y0136910D01*
X0189948Y0136293D01*
X0189948Y0135058D01*
X0189331Y0134441D01*
X0188714Y0134441D01*
X0188096Y0135058D01*
X0188096Y0136293D01*
X0188714Y0136910D01*
X0189331Y0136910D01*
X0189948Y0136293D01*
X0189948Y0135058D02*
X0190565Y0134441D01*
X0191182Y0134441D01*
X0191800Y0135058D01*
X0191800Y0136293D01*
X0191800Y0133227D02*
X0191800Y0130758D01*
X0191800Y0129544D02*
X0190565Y0128309D01*
X0190565Y0128927D02*
X0190565Y0127075D01*
X0191800Y0127075D02*
X0188096Y0127075D01*
X0188096Y0128927D01*
X0188714Y0129544D01*
X0189948Y0129544D01*
X0190565Y0128927D01*
X0189331Y0130758D02*
X0188096Y0131993D01*
X0191800Y0131993D01*
X0160800Y0133227D02*
X0160800Y0130758D01*
X0158331Y0133227D01*
X0157714Y0133227D01*
X0157096Y0132610D01*
X0157096Y0131375D01*
X0157714Y0130758D01*
X0157714Y0129544D02*
X0158948Y0129544D01*
X0159565Y0128927D01*
X0159565Y0127075D01*
X0159565Y0128309D02*
X0160800Y0129544D01*
X0160800Y0127075D02*
X0157096Y0127075D01*
X0157096Y0128927D01*
X0157714Y0129544D01*
X0158948Y0134441D02*
X0157096Y0136293D01*
X0160800Y0136293D01*
X0158948Y0136910D02*
X0158948Y0134441D01*
X0159565Y0144075D02*
X0159565Y0145927D01*
X0158948Y0146544D01*
X0157714Y0146544D01*
X0157096Y0145927D01*
X0157096Y0144075D01*
X0160800Y0144075D01*
X0159565Y0145309D02*
X0160800Y0146544D01*
X0160800Y0147758D02*
X0158331Y0150227D01*
X0157714Y0150227D01*
X0157096Y0149610D01*
X0157096Y0148375D01*
X0157714Y0147758D01*
X0160800Y0147758D02*
X0160800Y0150227D01*
X0160182Y0151441D02*
X0160800Y0152058D01*
X0160800Y0153293D01*
X0160182Y0153910D01*
X0159565Y0153910D01*
X0158948Y0153293D01*
X0158948Y0152676D01*
X0158948Y0153293D02*
X0158331Y0153910D01*
X0157714Y0153910D01*
X0157096Y0153293D01*
X0157096Y0152058D01*
X0157714Y0151441D01*
X0148500Y0154676D02*
X0144797Y0154676D01*
X0144797Y0156527D01*
X0145414Y0157144D01*
X0146649Y0157144D01*
X0147266Y0156527D01*
X0147266Y0154676D01*
X0147266Y0155910D02*
X0148500Y0157144D01*
X0148500Y0158359D02*
X0146032Y0160828D01*
X0145414Y0160828D01*
X0144797Y0160210D01*
X0144797Y0158976D01*
X0145414Y0158359D01*
X0148500Y0158359D02*
X0148500Y0160828D01*
X0148500Y0162042D02*
X0146032Y0164511D01*
X0145414Y0164511D01*
X0144797Y0163893D01*
X0144797Y0162659D01*
X0145414Y0162042D01*
X0148500Y0162042D02*
X0148500Y0164511D01*
X0193625Y0159954D02*
X0193625Y0156250D01*
X0193625Y0157485D02*
X0195477Y0157485D01*
X0196094Y0158102D01*
X0196094Y0159336D01*
X0195477Y0159954D01*
X0193625Y0159954D01*
X0194859Y0157485D02*
X0196094Y0156250D01*
X0197308Y0156250D02*
X0199777Y0156250D01*
X0198543Y0156250D02*
X0198543Y0159954D01*
X0197308Y0158719D01*
X0200991Y0158102D02*
X0202843Y0158102D01*
X0203460Y0157485D01*
X0203460Y0156868D01*
X0202843Y0156250D01*
X0201608Y0156250D01*
X0200991Y0156868D01*
X0200991Y0158102D01*
X0202226Y0159336D01*
X0203460Y0159954D01*
X0305625Y0198250D02*
X0305625Y0201954D01*
X0307477Y0201954D01*
X0308094Y0201336D01*
X0308094Y0200102D01*
X0307477Y0199485D01*
X0305625Y0199485D01*
X0306859Y0199485D02*
X0308094Y0198250D01*
X0309308Y0198250D02*
X0311777Y0200719D01*
X0311777Y0201336D01*
X0311160Y0201954D01*
X0309925Y0201954D01*
X0309308Y0201336D01*
X0309308Y0198250D02*
X0311777Y0198250D01*
X0312991Y0198868D02*
X0312991Y0199485D01*
X0313608Y0200102D01*
X0314843Y0200102D01*
X0315460Y0199485D01*
X0315460Y0198868D01*
X0314843Y0198250D01*
X0313608Y0198250D01*
X0312991Y0198868D01*
X0313608Y0200102D02*
X0312991Y0200719D01*
X0312991Y0201336D01*
X0313608Y0201954D01*
X0314843Y0201954D01*
X0315460Y0201336D01*
X0315460Y0200719D01*
X0314843Y0200102D01*
X0331226Y0207550D02*
X0331226Y0211253D01*
X0333077Y0211253D01*
X0333694Y0210636D01*
X0333694Y0209401D01*
X0333077Y0208784D01*
X0331226Y0208784D01*
X0332460Y0208784D02*
X0333694Y0207550D01*
X0334909Y0207550D02*
X0337378Y0210018D01*
X0337378Y0210636D01*
X0336760Y0211253D01*
X0335526Y0211253D01*
X0334909Y0210636D01*
X0338592Y0211253D02*
X0341061Y0211253D01*
X0341061Y0210636D01*
X0338592Y0208167D01*
X0338592Y0207550D01*
X0337378Y0207550D02*
X0334909Y0207550D01*
X0339150Y0200520D02*
X0342286Y0197384D01*
X0340718Y0197384D02*
X0340718Y0200520D01*
X0342286Y0200520D02*
X0339150Y0197384D01*
X0339150Y0198952D02*
X0342286Y0198952D01*
X0355019Y0205868D02*
X0355636Y0205250D01*
X0356870Y0205250D01*
X0357487Y0205868D01*
X0358702Y0205250D02*
X0361171Y0207719D01*
X0361171Y0208336D01*
X0360553Y0208954D01*
X0359319Y0208954D01*
X0358702Y0208336D01*
X0357487Y0208336D02*
X0356870Y0208954D01*
X0355636Y0208954D01*
X0355019Y0208336D01*
X0355019Y0205868D01*
X0358702Y0205250D02*
X0361171Y0205250D01*
X0362385Y0205250D02*
X0364854Y0207719D01*
X0364854Y0208336D01*
X0364237Y0208954D01*
X0363002Y0208954D01*
X0362385Y0208336D01*
X0362385Y0205250D02*
X0364854Y0205250D01*
X0358182Y0173910D02*
X0357565Y0173910D01*
X0356948Y0173293D01*
X0356948Y0171441D01*
X0358182Y0171441D01*
X0358800Y0172058D01*
X0358800Y0173293D01*
X0358182Y0173910D01*
X0355714Y0172676D02*
X0356948Y0171441D01*
X0356331Y0170227D02*
X0355714Y0170227D01*
X0355096Y0169610D01*
X0355096Y0168375D01*
X0355714Y0167758D01*
X0355714Y0166544D02*
X0356948Y0166544D01*
X0357565Y0165927D01*
X0357565Y0164075D01*
X0357565Y0165309D02*
X0358800Y0166544D01*
X0358800Y0167758D02*
X0356331Y0170227D01*
X0358800Y0170227D02*
X0358800Y0167758D01*
X0355714Y0166544D02*
X0355096Y0165927D01*
X0355096Y0164075D01*
X0358800Y0164075D01*
X0355714Y0172676D02*
X0355096Y0173910D01*
X0337500Y0168893D02*
X0337500Y0167659D01*
X0336883Y0167042D01*
X0335649Y0167042D02*
X0335032Y0168276D01*
X0335032Y0168893D01*
X0335649Y0169511D01*
X0336883Y0169511D01*
X0337500Y0168893D01*
X0335649Y0167042D02*
X0333797Y0167042D01*
X0333797Y0169511D01*
X0334414Y0165828D02*
X0333797Y0165210D01*
X0333797Y0163976D01*
X0334414Y0163359D01*
X0334414Y0162144D02*
X0335649Y0162144D01*
X0336266Y0161527D01*
X0336266Y0159676D01*
X0336266Y0160910D02*
X0337500Y0162144D01*
X0337500Y0163359D02*
X0335032Y0165828D01*
X0334414Y0165828D01*
X0337500Y0165828D02*
X0337500Y0163359D01*
X0334414Y0162144D02*
X0333797Y0161527D01*
X0333797Y0159676D01*
X0337500Y0159676D01*
X0422832Y0203167D02*
X0423449Y0202550D01*
X0424683Y0202550D01*
X0425301Y0203167D01*
X0426515Y0202550D02*
X0428984Y0205018D01*
X0428984Y0205636D01*
X0428367Y0206253D01*
X0427132Y0206253D01*
X0426515Y0205636D01*
X0425301Y0205636D02*
X0424683Y0206253D01*
X0423449Y0206253D01*
X0422832Y0205636D01*
X0422832Y0203167D01*
X0426515Y0202550D02*
X0428984Y0202550D01*
X0430198Y0203167D02*
X0430815Y0202550D01*
X0432050Y0202550D01*
X0432667Y0203167D01*
X0432667Y0203784D01*
X0432050Y0204401D01*
X0431433Y0204401D01*
X0432050Y0204401D02*
X0432667Y0205018D01*
X0432667Y0205636D01*
X0432050Y0206253D01*
X0430815Y0206253D01*
X0430198Y0205636D01*
X0431132Y0169253D02*
X0430515Y0168636D01*
X0431132Y0169253D02*
X0432367Y0169253D01*
X0432984Y0168636D01*
X0432984Y0168018D01*
X0430515Y0165550D01*
X0432984Y0165550D01*
X0434198Y0166167D02*
X0434815Y0165550D01*
X0436050Y0165550D01*
X0436667Y0166167D01*
X0436667Y0167401D01*
X0436050Y0168018D01*
X0435433Y0168018D01*
X0434198Y0167401D01*
X0434198Y0169253D01*
X0436667Y0169253D01*
X0429301Y0168636D02*
X0428683Y0169253D01*
X0427449Y0169253D01*
X0426832Y0168636D01*
X0426832Y0166167D01*
X0427449Y0165550D01*
X0428683Y0165550D01*
X0429301Y0166167D01*
X0099587Y0178267D02*
X0099587Y0179501D01*
X0098970Y0180119D01*
X0099587Y0181333D02*
X0099587Y0183802D01*
X0099587Y0185016D02*
X0097118Y0187485D01*
X0096501Y0187485D01*
X0095884Y0186868D01*
X0095884Y0185633D01*
X0096501Y0185016D01*
X0095884Y0182567D02*
X0099587Y0182567D01*
X0099587Y0185016D02*
X0099587Y0187485D01*
X0095884Y0182567D02*
X0097118Y0181333D01*
X0096501Y0180119D02*
X0095884Y0179501D01*
X0095884Y0178267D01*
X0096501Y0177650D01*
X0098970Y0177650D01*
X0099587Y0178267D01*
X0083568Y0167440D02*
X0083568Y0163737D01*
X0082334Y0163737D02*
X0084803Y0163737D01*
X0082334Y0166206D02*
X0083568Y0167440D01*
X0081120Y0166823D02*
X0080502Y0167440D01*
X0079268Y0167440D01*
X0078651Y0166823D01*
X0078651Y0164354D01*
X0079268Y0163737D01*
X0080502Y0163737D01*
X0081120Y0164354D01*
X0062800Y0147687D02*
X0062182Y0148304D01*
X0061565Y0148304D01*
X0060948Y0147687D01*
X0060948Y0147069D01*
X0060948Y0147687D02*
X0060331Y0148304D01*
X0059714Y0148304D01*
X0059096Y0147687D01*
X0059096Y0146452D01*
X0059714Y0145835D01*
X0062182Y0145835D02*
X0062800Y0146452D01*
X0062800Y0147687D01*
X0062800Y0144621D02*
X0062800Y0142152D01*
X0062800Y0143386D02*
X0059096Y0143386D01*
X0060331Y0142152D01*
X0059714Y0140937D02*
X0059096Y0140320D01*
X0059096Y0139086D01*
X0059714Y0138469D01*
X0062182Y0138469D01*
X0062800Y0139086D01*
X0062800Y0140320D01*
X0062182Y0140937D01*
X0046500Y0142676D02*
X0042797Y0142676D01*
X0042797Y0144527D01*
X0043414Y0145144D01*
X0044649Y0145144D01*
X0045266Y0144527D01*
X0045266Y0142676D01*
X0045266Y0143910D02*
X0046500Y0145144D01*
X0046500Y0146359D02*
X0046500Y0148828D01*
X0046500Y0147593D02*
X0042797Y0147593D01*
X0044032Y0146359D01*
D14*
X0046946Y0142624D02*
X0046946Y0151876D01*
X0052654Y0151876D01*
X0052654Y0142624D01*
X0046946Y0142624D01*
X0053044Y0142230D02*
X0058556Y0142230D01*
X0058556Y0152270D01*
X0053044Y0152270D01*
X0053044Y0142230D01*
X0078737Y0156008D02*
X0078737Y0163292D01*
X0090863Y0163292D01*
X0090863Y0156008D01*
X0078737Y0156008D01*
X0088158Y0182187D02*
X0088158Y0194313D01*
X0095442Y0194313D01*
X0095442Y0182187D01*
X0088158Y0182187D01*
X0143946Y0153876D02*
X0143946Y0144624D01*
X0149654Y0144624D01*
X0149654Y0153876D01*
X0143946Y0153876D01*
X0150946Y0153876D02*
X0150946Y0144624D01*
X0156654Y0144624D01*
X0156654Y0153876D01*
X0150946Y0153876D01*
X0150946Y0137876D02*
X0150946Y0128624D01*
X0156654Y0128624D01*
X0156654Y0137876D01*
X0150946Y0137876D01*
X0192946Y0138624D02*
X0198654Y0138624D01*
X0198654Y0147876D01*
X0192946Y0147876D01*
X0192946Y0138624D01*
X0192946Y0136876D02*
X0192946Y0127624D01*
X0198654Y0127624D01*
X0198654Y0136876D01*
X0192946Y0136876D01*
X0193174Y0149396D02*
X0202426Y0149396D01*
X0202426Y0155104D01*
X0193174Y0155104D01*
X0193174Y0149396D01*
X0229174Y0136104D02*
X0229174Y0130396D01*
X0238426Y0130396D01*
X0238426Y0136104D01*
X0229174Y0136104D01*
X0240174Y0136104D02*
X0240174Y0130396D01*
X0249426Y0130396D01*
X0249426Y0136104D01*
X0240174Y0136104D01*
X0244174Y0149396D02*
X0253426Y0149396D01*
X0253426Y0155104D01*
X0244174Y0155104D01*
X0244174Y0149396D01*
X0314946Y0098876D02*
X0314946Y0089624D01*
X0320654Y0089624D01*
X0320654Y0098876D01*
X0314946Y0098876D01*
X0324780Y0089006D02*
X0324780Y0083494D01*
X0334820Y0083494D01*
X0334820Y0089006D01*
X0324780Y0089006D01*
X0353044Y0089230D02*
X0353044Y0099270D01*
X0358556Y0099270D01*
X0358556Y0089230D01*
X0353044Y0089230D01*
X0387044Y0102230D02*
X0387044Y0112270D01*
X0392556Y0112270D01*
X0392556Y0102230D01*
X0387044Y0102230D01*
X0394044Y0102230D02*
X0394044Y0112270D01*
X0399556Y0112270D01*
X0399556Y0102230D01*
X0394044Y0102230D01*
X0409174Y0108396D02*
X0418426Y0108396D01*
X0418426Y0114104D01*
X0409174Y0114104D01*
X0409174Y0108396D01*
X0414831Y0106990D02*
X0414831Y0099510D01*
X0418769Y0099510D01*
X0418769Y0106990D01*
X0414831Y0106990D01*
X0414780Y0097006D02*
X0424820Y0097006D01*
X0424820Y0091494D01*
X0414780Y0091494D01*
X0414780Y0097006D01*
X0401556Y0136230D02*
X0396044Y0136230D01*
X0396044Y0146270D01*
X0401556Y0146270D01*
X0401556Y0136230D01*
X0354654Y0159624D02*
X0354654Y0168876D01*
X0348946Y0168876D01*
X0348946Y0159624D01*
X0354654Y0159624D01*
X0343654Y0159624D02*
X0343654Y0168876D01*
X0337946Y0168876D01*
X0337946Y0159624D01*
X0343654Y0159624D01*
X0414780Y0164494D02*
X0424820Y0164494D01*
X0424820Y0170006D01*
X0414780Y0170006D01*
X0414780Y0164494D01*
X0357820Y0198494D02*
X0347780Y0198494D01*
X0347780Y0204006D01*
X0357820Y0204006D01*
X0357820Y0198494D01*
X0340426Y0201396D02*
X0340426Y0207104D01*
X0331174Y0207104D01*
X0331174Y0201396D01*
X0340426Y0201396D01*
X0316426Y0202396D02*
X0307174Y0202396D01*
X0307174Y0208104D01*
X0316426Y0208104D01*
X0316426Y0202396D01*
X0414044Y0201230D02*
X0419556Y0201230D01*
X0419556Y0211270D01*
X0414044Y0211270D01*
X0414044Y0201230D01*
X0179820Y0074006D02*
X0169780Y0074006D01*
X0169780Y0068494D01*
X0179820Y0068494D01*
X0179820Y0074006D01*
X0192174Y0070104D02*
X0201426Y0070104D01*
X0201426Y0064396D01*
X0192174Y0064396D01*
X0192174Y0070104D01*
X0194654Y0061876D02*
X0188946Y0061876D01*
X0188946Y0052624D01*
X0194654Y0052624D01*
X0194654Y0061876D01*
X0184556Y0063020D02*
X0179044Y0063020D01*
X0179044Y0052980D01*
X0184556Y0052980D01*
X0184556Y0063020D01*
X0204946Y0062876D02*
X0204946Y0053624D01*
X0210654Y0053624D01*
X0210654Y0062876D01*
X0204946Y0062876D01*
X0211946Y0062876D02*
X0211946Y0053624D01*
X0217654Y0053624D01*
X0217654Y0062876D01*
X0211946Y0062876D01*
X0219044Y0058270D02*
X0219044Y0048230D01*
X0224556Y0048230D01*
X0224556Y0058270D01*
X0219044Y0058270D01*
X0226044Y0056770D02*
X0226044Y0046730D01*
X0231556Y0046730D01*
X0231556Y0056770D01*
X0226044Y0056770D01*
X0233044Y0059270D02*
X0233044Y0049230D01*
X0238556Y0049230D01*
X0238556Y0059270D01*
X0233044Y0059270D01*
X0240174Y0061104D02*
X0240174Y0055396D01*
X0249426Y0055396D01*
X0249426Y0061104D01*
X0240174Y0061104D01*
X0293174Y0055104D02*
X0293174Y0049396D01*
X0302426Y0049396D01*
X0302426Y0055104D01*
X0293174Y0055104D01*
X0320174Y0055104D02*
X0320174Y0049396D01*
X0329426Y0049396D01*
X0329426Y0055104D01*
X0320174Y0055104D01*
X0414044Y0053270D02*
X0414044Y0043230D01*
X0419556Y0043230D01*
X0419556Y0053270D01*
X0414044Y0053270D01*
X0170654Y0047876D02*
X0170654Y0038624D01*
X0164946Y0038624D01*
X0164946Y0047876D01*
X0170654Y0047876D01*
X0161426Y0050104D02*
X0161426Y0044396D01*
X0152174Y0044396D01*
X0152174Y0050104D01*
X0161426Y0050104D01*
X0152654Y0067624D02*
X0146946Y0067624D01*
X0146946Y0076876D01*
X0152654Y0076876D01*
X0152654Y0067624D01*
X0134229Y0085884D02*
X0125371Y0085884D01*
X0125371Y0102616D01*
X0134229Y0102616D01*
X0134229Y0085884D01*
X0121769Y0086510D02*
X0121769Y0093990D01*
X0117831Y0093990D01*
X0117831Y0086510D01*
X0121769Y0086510D01*
X0116670Y0086805D02*
X0112930Y0086805D01*
X0112930Y0093695D01*
X0116670Y0093695D01*
X0116670Y0086805D01*
X0117831Y0095510D02*
X0117831Y0102990D01*
X0121769Y0102990D01*
X0121769Y0095510D01*
X0117831Y0095510D01*
X0086245Y0096120D02*
X0086245Y0092380D01*
X0079355Y0092380D01*
X0079355Y0096120D01*
X0086245Y0096120D01*
X0066229Y0095616D02*
X0057371Y0095616D01*
X0057371Y0078884D01*
X0066229Y0078884D01*
X0066229Y0095616D01*
D15*
X0117063Y0103812D02*
X0117063Y0107415D01*
X0118865Y0107415D01*
X0119465Y0106815D01*
X0119465Y0105614D01*
X0118865Y0105013D01*
X0117063Y0105013D01*
X0118264Y0105013D02*
X0119465Y0103812D01*
X0120746Y0103812D02*
X0120746Y0104413D01*
X0123148Y0106815D01*
X0123148Y0107415D01*
X0120746Y0107415D01*
X0119865Y0085415D02*
X0118063Y0085415D01*
X0118063Y0081812D01*
X0118063Y0083013D02*
X0119865Y0083013D01*
X0120465Y0083614D01*
X0120465Y0084815D01*
X0119865Y0085415D01*
X0119264Y0083013D02*
X0120465Y0081812D01*
X0121746Y0082413D02*
X0122347Y0081812D01*
X0123548Y0081812D01*
X0124148Y0082413D01*
X0124148Y0083013D01*
X0123548Y0083614D01*
X0121746Y0083614D01*
X0121746Y0082413D01*
X0121746Y0083614D02*
X0122947Y0084815D01*
X0124148Y0085415D01*
X0139059Y0060554D02*
X0138292Y0059787D01*
X0138292Y0056717D01*
X0139059Y0055950D01*
X0140594Y0055950D01*
X0141361Y0056717D01*
X0141361Y0059787D01*
X0140594Y0060554D01*
X0139059Y0060554D01*
X0139827Y0057485D02*
X0141361Y0055950D01*
X0142896Y0055950D02*
X0145965Y0055950D01*
X0144431Y0055950D02*
X0144431Y0060554D01*
X0142896Y0059019D01*
X0073100Y0043123D02*
X0073100Y0040054D01*
X0070031Y0043123D01*
X0069263Y0043123D01*
X0068496Y0042356D01*
X0068496Y0040821D01*
X0069263Y0040054D01*
X0068496Y0038519D02*
X0068496Y0035450D01*
X0068496Y0036985D02*
X0073100Y0036985D01*
X0264402Y0106658D02*
X0265169Y0105891D01*
X0266704Y0105891D01*
X0267471Y0106658D01*
X0267471Y0110495D01*
X0269005Y0110495D02*
X0272075Y0110495D01*
X0272075Y0109728D01*
X0269005Y0106658D01*
X0269005Y0105891D01*
X0264402Y0106658D02*
X0264402Y0110495D01*
X0289792Y0105054D02*
X0289792Y0101217D01*
X0290559Y0100450D01*
X0292094Y0100450D01*
X0292861Y0101217D01*
X0292861Y0105054D01*
X0294396Y0102752D02*
X0296698Y0105054D01*
X0296698Y0100450D01*
X0297465Y0102752D02*
X0294396Y0102752D01*
X0356291Y0154190D02*
X0356291Y0158794D01*
X0358593Y0158794D01*
X0359361Y0158027D01*
X0359361Y0156492D01*
X0358593Y0155725D01*
X0356291Y0155725D01*
X0357826Y0155725D02*
X0359361Y0154190D01*
X0360895Y0154190D02*
X0363965Y0157259D01*
X0363965Y0158027D01*
X0363197Y0158794D01*
X0361663Y0158794D01*
X0360895Y0158027D01*
X0365499Y0158027D02*
X0365499Y0157259D01*
X0366266Y0156492D01*
X0368568Y0156492D01*
X0368568Y0154957D02*
X0368568Y0158027D01*
X0367801Y0158794D01*
X0366266Y0158794D01*
X0365499Y0158027D01*
X0365499Y0154957D02*
X0366266Y0154190D01*
X0367801Y0154190D01*
X0368568Y0154957D01*
X0363965Y0154190D02*
X0360895Y0154190D01*
X0325465Y0164017D02*
X0324698Y0163250D01*
X0323163Y0163250D01*
X0322396Y0164017D01*
X0322396Y0165552D02*
X0323931Y0166319D01*
X0324698Y0166319D01*
X0325465Y0165552D01*
X0325465Y0164017D01*
X0322396Y0165552D02*
X0322396Y0167854D01*
X0325465Y0167854D01*
X0320861Y0167854D02*
X0317792Y0167854D01*
X0319327Y0167854D02*
X0319327Y0163250D01*
X0398492Y0150804D02*
X0398492Y0146200D01*
X0401561Y0146200D01*
X0403096Y0146967D02*
X0403863Y0146200D01*
X0405398Y0146200D01*
X0406165Y0146967D01*
X0406165Y0147735D01*
X0405398Y0148502D01*
X0404631Y0148502D01*
X0405398Y0148502D02*
X0406165Y0149269D01*
X0406165Y0150037D01*
X0405398Y0150804D01*
X0403863Y0150804D01*
X0403096Y0150037D01*
X0403996Y0155950D02*
X0408600Y0155950D01*
X0408600Y0159019D01*
X0408600Y0160554D02*
X0408600Y0163623D01*
X0408600Y0162089D02*
X0403996Y0162089D01*
X0405531Y0160554D01*
X0430635Y0133227D02*
X0430635Y0129391D01*
X0431402Y0128623D01*
X0432937Y0128623D01*
X0433704Y0129391D01*
X0433704Y0133227D01*
X0435239Y0132460D02*
X0436006Y0133227D01*
X0437541Y0133227D01*
X0438308Y0132460D01*
X0438308Y0131693D01*
X0435239Y0128623D01*
X0438308Y0128623D01*
X0423238Y0107598D02*
X0423238Y0105196D01*
X0420836Y0107598D01*
X0420235Y0107598D01*
X0419635Y0106998D01*
X0419635Y0105797D01*
X0420235Y0105196D01*
X0423238Y0103915D02*
X0423238Y0101513D01*
X0419635Y0101513D01*
X0440263Y0044915D02*
X0439496Y0044148D01*
X0439496Y0042613D01*
X0440263Y0041846D01*
X0439496Y0040311D02*
X0439496Y0038777D01*
X0439496Y0039544D02*
X0443333Y0039544D01*
X0444100Y0038777D01*
X0444100Y0038009D01*
X0443333Y0037242D01*
X0444100Y0041846D02*
X0441031Y0044915D01*
X0440263Y0044915D01*
X0444100Y0044915D02*
X0444100Y0041846D01*
X0393333Y0207450D02*
X0394100Y0208217D01*
X0394100Y0208985D01*
X0393333Y0209752D01*
X0389496Y0209752D01*
X0389496Y0208985D02*
X0389496Y0210519D01*
X0391031Y0212054D02*
X0389496Y0213589D01*
X0394100Y0213589D01*
X0394100Y0215123D02*
X0394100Y0212054D01*
X0213673Y0215950D02*
X0210604Y0215950D01*
X0212139Y0215950D02*
X0212139Y0220554D01*
X0210604Y0219019D01*
X0209069Y0220554D02*
X0206000Y0220554D01*
X0207535Y0220554D02*
X0207535Y0215950D01*
X0163173Y0216717D02*
X0162406Y0215950D01*
X0160871Y0215950D01*
X0160104Y0216717D01*
X0161639Y0218252D02*
X0162406Y0218252D01*
X0163173Y0217485D01*
X0163173Y0216717D01*
X0162406Y0218252D02*
X0163173Y0219019D01*
X0163173Y0219787D01*
X0162406Y0220554D01*
X0160871Y0220554D01*
X0160104Y0219787D01*
X0158569Y0220554D02*
X0155500Y0220554D01*
X0157035Y0220554D02*
X0157035Y0215950D01*
X0112673Y0218252D02*
X0109604Y0218252D01*
X0111906Y0220554D01*
X0111906Y0215950D01*
X0106535Y0215950D02*
X0106535Y0220554D01*
X0108069Y0220554D02*
X0105000Y0220554D01*
X0038600Y0182192D02*
X0038600Y0179123D01*
X0038600Y0180658D02*
X0033996Y0180658D01*
X0035531Y0179123D01*
X0034763Y0177589D02*
X0033996Y0176821D01*
X0033996Y0175287D01*
X0034763Y0174519D01*
X0037833Y0174519D01*
X0038600Y0175287D01*
X0038600Y0176821D01*
X0037833Y0177589D01*
X0038600Y0172985D02*
X0038600Y0171450D01*
X0038600Y0172217D02*
X0033996Y0172217D01*
X0033996Y0171450D02*
X0033996Y0172985D01*
D16*
X0224800Y0062650D02*
X0226300Y0062650D01*
X0226300Y0061650D01*
X0224800Y0061650D01*
X0224800Y0062650D01*
X0224800Y0062616D02*
X0226300Y0062616D01*
X0226300Y0062517D02*
X0224800Y0062517D01*
X0224800Y0062419D02*
X0226300Y0062419D01*
X0226300Y0062320D02*
X0224800Y0062320D01*
X0224800Y0062222D02*
X0226300Y0062222D01*
X0226300Y0062123D02*
X0224800Y0062123D01*
X0224800Y0062024D02*
X0226300Y0062024D01*
X0226300Y0061926D02*
X0224800Y0061926D01*
X0224800Y0061827D02*
X0226300Y0061827D01*
X0226300Y0061729D02*
X0224800Y0061729D01*
X0410000Y0161050D02*
X0414000Y0161050D01*
X0414000Y0153450D01*
X0423600Y0153450D01*
X0423600Y0155450D01*
X0419600Y0155450D01*
X0419600Y0163050D01*
X0410000Y0163050D01*
X0410000Y0161050D01*
D17*
X0248000Y0171150D02*
X0248000Y0178150D01*
X0248000Y0171150D02*
X0207600Y0171150D01*
X0207600Y0178150D01*
X0197500Y0178150D02*
X0197500Y0171150D01*
X0157100Y0171150D01*
X0157100Y0178150D01*
X0147000Y0178150D02*
X0147000Y0171150D01*
X0106600Y0171150D01*
X0106600Y0178150D01*
X0110900Y0077450D02*
X0117900Y0077450D01*
X0117900Y0037050D01*
X0110900Y0037050D01*
D18*
X0116800Y0165650D03*
X0126800Y0165650D03*
X0136800Y0165650D03*
X0167300Y0165650D03*
X0177300Y0165650D03*
X0187300Y0165650D03*
X0217800Y0165650D03*
X0227800Y0165650D03*
X0237800Y0165650D03*
D19*
X0123400Y0067250D03*
X0123400Y0057250D03*
X0123400Y0047250D03*
D20*
X0081855Y0170911D02*
X0041745Y0170911D01*
X0310898Y0178250D02*
X0336702Y0178250D01*
X0336702Y0192250D01*
X0310898Y0192250D01*
X0310898Y0178250D01*
D21*
X0075200Y0167950D03*
X0068500Y0167950D03*
X0061800Y0167950D03*
X0055100Y0167950D03*
X0048400Y0167950D03*
D22*
X0118625Y0145844D02*
X0119192Y0146411D01*
X0121460Y0144142D01*
X0122028Y0144710D01*
X0122028Y0145844D01*
X0121460Y0146411D01*
X0119192Y0146411D01*
X0118625Y0145844D02*
X0118625Y0144710D01*
X0119192Y0144142D01*
X0121460Y0144142D01*
X0122028Y0142728D02*
X0122028Y0140459D01*
X0119759Y0142728D01*
X0119192Y0142728D01*
X0118625Y0142161D01*
X0118625Y0141026D01*
X0119192Y0140459D01*
X0119192Y0139045D02*
X0118625Y0138478D01*
X0118625Y0137343D01*
X0119192Y0136776D01*
X0121460Y0136776D01*
X0122028Y0137343D01*
X0122028Y0138478D01*
X0121460Y0139045D01*
X0024459Y0121913D02*
X0024459Y0119645D01*
X0023892Y0119078D01*
X0022758Y0119078D01*
X0022191Y0119645D01*
X0022758Y0120779D02*
X0024459Y0120779D01*
X0024459Y0121913D02*
X0023892Y0122480D01*
X0022758Y0122480D01*
X0022191Y0121913D01*
X0022191Y0121346D01*
X0022758Y0120779D01*
X0020776Y0119078D02*
X0018508Y0119078D01*
X0019642Y0119078D02*
X0019642Y0122480D01*
X0018508Y0121346D01*
X0017093Y0121913D02*
X0016526Y0122480D01*
X0015392Y0122480D01*
X0014824Y0121913D01*
X0014824Y0119645D01*
X0015392Y0119078D01*
X0016526Y0119078D01*
X0017093Y0119645D01*
X0165600Y0061250D02*
X0165600Y0053250D01*
X0170400Y0053250D02*
X0173200Y0053250D01*
X0178000Y0053250D02*
X0178000Y0061250D01*
X0221500Y0072450D02*
X0221500Y0082050D01*
X0242100Y0082050D02*
X0242100Y0072450D01*
X0328400Y0089850D02*
X0345200Y0089850D01*
X0345200Y0110650D02*
X0328400Y0110650D01*
X0342800Y0185050D02*
X0350800Y0185050D01*
X0350800Y0189850D02*
X0350800Y0192650D01*
X0350800Y0197450D02*
X0342800Y0197450D01*
D23*
X0354400Y0192652D02*
X0354400Y0190317D01*
X0354867Y0189850D01*
X0355801Y0189850D01*
X0356268Y0190317D01*
X0356268Y0192652D01*
X0357162Y0192652D02*
X0357162Y0191251D01*
X0358096Y0191718D01*
X0358564Y0191718D01*
X0359031Y0191251D01*
X0359031Y0190317D01*
X0358564Y0189850D01*
X0357629Y0189850D01*
X0357162Y0190317D01*
X0357162Y0192652D02*
X0359031Y0192652D01*
X0333564Y0115652D02*
X0334031Y0115185D01*
X0334031Y0114718D01*
X0333564Y0114251D01*
X0332629Y0114251D01*
X0332162Y0114718D01*
X0332162Y0115185D01*
X0332629Y0115652D01*
X0333564Y0115652D01*
X0333564Y0114251D02*
X0334031Y0113784D01*
X0334031Y0113317D01*
X0333564Y0112850D01*
X0332629Y0112850D01*
X0332162Y0113317D01*
X0332162Y0113784D01*
X0332629Y0114251D01*
X0331268Y0113317D02*
X0331268Y0115652D01*
X0329400Y0115652D02*
X0329400Y0113317D01*
X0329867Y0112850D01*
X0330801Y0112850D01*
X0331268Y0113317D01*
X0297400Y0090118D02*
X0297400Y0088650D01*
X0297400Y0089384D02*
X0295198Y0089384D01*
X0295932Y0088650D01*
X0279506Y0112850D02*
X0277638Y0112850D01*
X0278572Y0112850D02*
X0278572Y0115652D01*
X0277638Y0114718D01*
X0220031Y0073652D02*
X0219096Y0073185D01*
X0218162Y0072251D01*
X0219564Y0072251D01*
X0220031Y0071784D01*
X0220031Y0071317D01*
X0219564Y0070850D01*
X0218629Y0070850D01*
X0218162Y0071317D01*
X0218162Y0072251D01*
X0217268Y0071317D02*
X0217268Y0073652D01*
X0215400Y0073652D02*
X0215400Y0071317D01*
X0215867Y0070850D01*
X0216801Y0070850D01*
X0217268Y0071317D01*
X0179031Y0049185D02*
X0179031Y0048718D01*
X0178564Y0048251D01*
X0179031Y0047784D01*
X0179031Y0047317D01*
X0178564Y0046850D01*
X0177629Y0046850D01*
X0177162Y0047317D01*
X0176268Y0047317D02*
X0176268Y0049652D01*
X0177162Y0049185D02*
X0177629Y0049652D01*
X0178564Y0049652D01*
X0179031Y0049185D01*
X0178564Y0048251D02*
X0178096Y0048251D01*
X0176268Y0047317D02*
X0175801Y0046850D01*
X0174867Y0046850D01*
X0174400Y0047317D01*
X0174400Y0049652D01*
M02*
