G75*
%MOIN*%
%OFA0B0*%
%FSLAX25Y25*%
%IPPOS*%
%LPD*%
%AMOC8*
5,1,8,0,0,1.08239X$1,22.5*
%
%ADD10C,0.01600*%
%ADD11C,0.02400*%
%ADD12C,0.06000*%
%ADD13C,0.05906*%
%ADD14C,0.11811*%
%ADD15C,0.04800*%
%ADD16C,0.02800*%
%ADD17C,0.18400*%
%ADD18C,0.15600*%
%ADD19C,0.01500*%
%ADD20C,0.03600*%
%ADD21C,0.02400*%
D10*
X0001800Y0027250D02*
X0476800Y0027250D01*
X0476800Y0227250D01*
X0001800Y0227250D01*
X0001800Y0027250D01*
X0159800Y0136250D02*
X0197800Y0098250D01*
X0228800Y0098250D01*
X0232800Y0102250D01*
X0239800Y0102250D02*
X0206800Y0135250D01*
X0202800Y0135250D01*
X0236800Y0126250D02*
X0246800Y0116250D01*
X0246800Y0097250D01*
X0247800Y0075250D02*
X0199800Y0075250D01*
X0159800Y0136250D02*
X0159800Y0141250D01*
D11*
X0412863Y0131187D03*
X0412863Y0127250D03*
X0416800Y0127250D03*
X0420737Y0127250D03*
X0420737Y0131187D03*
X0416800Y0131187D03*
X0416800Y0123313D03*
X0420737Y0123313D03*
X0412863Y0123313D03*
D12*
X0276800Y0067250D03*
X0266800Y0067250D03*
X0135800Y0131250D03*
X0125800Y0131250D03*
X0042400Y0127250D03*
X0032400Y0127250D03*
X0022400Y0127250D03*
D13*
X0284800Y0187250D03*
X0294800Y0187250D03*
D14*
X0304800Y0167250D03*
X0264800Y0207250D03*
D15*
X0307800Y0066250D03*
X0317800Y0066250D03*
X0327800Y0066250D03*
D16*
X0316800Y0051250D03*
X0296800Y0045250D03*
X0282800Y0044250D03*
X0279800Y0032250D03*
X0241800Y0044250D03*
X0221800Y0044250D03*
X0200800Y0032250D03*
X0187800Y0044250D03*
X0171800Y0050250D03*
X0186800Y0060250D03*
X0197800Y0058250D03*
X0205800Y0066250D03*
X0219800Y0061203D03*
X0253800Y0072250D03*
X0278800Y0085250D03*
X0282800Y0075250D03*
X0296800Y0062250D03*
X0263800Y0057250D03*
X0311800Y0086250D03*
X0338800Y0086250D03*
X0363800Y0091250D03*
X0382800Y0079250D03*
X0399800Y0069250D03*
X0412800Y0070450D03*
X0420800Y0070450D03*
X0420800Y0065450D03*
X0412800Y0065450D03*
X0412800Y0060450D03*
X0420800Y0060450D03*
X0420800Y0055450D03*
X0412800Y0055450D03*
X0411800Y0049450D03*
X0411800Y0044450D03*
X0412800Y0040450D03*
X0420800Y0040450D03*
X0421800Y0044450D03*
X0421800Y0049450D03*
X0421800Y0035450D03*
X0421800Y0031450D03*
X0411800Y0031450D03*
X0411800Y0035450D03*
X0358800Y0070250D03*
X0400800Y0091250D03*
X0411800Y0091450D03*
X0420800Y0089450D03*
X0420800Y0085450D03*
X0412800Y0085450D03*
X0412800Y0080450D03*
X0420800Y0080450D03*
X0420800Y0075450D03*
X0412800Y0075450D03*
X0427800Y0091250D03*
X0411800Y0098450D03*
X0421800Y0099450D03*
X0411800Y0105450D03*
X0421800Y0108450D03*
X0421800Y0114450D03*
X0427800Y0114250D03*
X0431800Y0120250D03*
X0431800Y0126250D03*
X0448800Y0128250D03*
X0431800Y0136250D03*
X0429800Y0141250D03*
X0422800Y0144450D03*
X0421800Y0139450D03*
X0422800Y0149450D03*
X0427800Y0154250D03*
X0423800Y0161450D03*
X0411800Y0167450D03*
X0411800Y0172450D03*
X0411800Y0178450D03*
X0411800Y0184450D03*
X0421800Y0184450D03*
X0421800Y0178450D03*
X0421800Y0172450D03*
X0438800Y0183250D03*
X0451800Y0178250D03*
X0466800Y0173250D03*
X0444800Y0159250D03*
X0462800Y0150250D03*
X0448800Y0143250D03*
X0465800Y0132250D03*
X0461800Y0111250D03*
X0442800Y0105250D03*
X0457800Y0090250D03*
X0463800Y0072250D03*
X0444800Y0072250D03*
X0389800Y0116250D03*
X0396800Y0117250D03*
X0403800Y0118250D03*
X0402800Y0125250D03*
X0404800Y0132250D03*
X0403800Y0138250D03*
X0396800Y0133250D03*
X0378800Y0137250D03*
X0355800Y0127250D03*
X0346800Y0138250D03*
X0328800Y0135250D03*
X0338800Y0126250D03*
X0319800Y0113250D03*
X0301800Y0102250D03*
X0275800Y0107250D03*
X0251800Y0103250D03*
X0246800Y0090250D03*
X0210800Y0105250D03*
X0206800Y0092250D03*
X0188800Y0084250D03*
X0181800Y0075250D03*
X0165800Y0066250D03*
X0146800Y0063250D03*
X0148800Y0047250D03*
X0113800Y0032250D03*
X0064800Y0037250D03*
X0042800Y0065250D03*
X0069800Y0081250D03*
X0076800Y0094250D03*
X0091800Y0104250D03*
X0105800Y0104250D03*
X0124800Y0105250D03*
X0143800Y0106250D03*
X0112800Y0120250D03*
X0146800Y0133250D03*
X0176800Y0152250D03*
X0208800Y0142250D03*
X0227800Y0149250D03*
X0232800Y0120250D03*
X0194800Y0121250D03*
X0178800Y0101250D03*
X0143800Y0081250D03*
X0126800Y0078250D03*
X0097800Y0084250D03*
X0061800Y0116250D03*
X0010800Y0105250D03*
X0061800Y0151250D03*
X0088800Y0153250D03*
X0106800Y0165250D03*
X0091800Y0178250D03*
X0091800Y0200250D03*
X0053800Y0219250D03*
X0151800Y0218250D03*
X0202800Y0218250D03*
X0251800Y0219250D03*
X0282800Y0212250D03*
X0304800Y0205250D03*
X0300800Y0192250D03*
X0327800Y0203250D03*
X0343800Y0202250D03*
X0350800Y0219250D03*
X0317800Y0218250D03*
X0358800Y0184250D03*
X0345800Y0178250D03*
X0346800Y0162250D03*
X0358800Y0161250D03*
X0378800Y0156250D03*
X0397800Y0158250D03*
X0409800Y0156250D03*
X0387800Y0169450D03*
X0374800Y0177250D03*
X0398800Y0183250D03*
X0411800Y0190450D03*
X0411800Y0196450D03*
X0411800Y0202450D03*
X0421800Y0202450D03*
X0421800Y0196450D03*
X0421800Y0190450D03*
X0421800Y0208450D03*
X0420800Y0213450D03*
X0412800Y0213450D03*
X0411800Y0208450D03*
X0411800Y0218450D03*
X0411800Y0222450D03*
X0421800Y0222450D03*
X0421800Y0218450D03*
X0332800Y0156250D03*
X0309800Y0135250D03*
X0298800Y0124250D03*
X0277800Y0155250D03*
X0261800Y0182250D03*
X0202800Y0175250D03*
X0151800Y0175250D03*
X0026800Y0160250D03*
X0338800Y0039250D03*
X0354800Y0104250D03*
X0372800Y0118250D03*
D17*
X0458050Y0050250D03*
X0458050Y0204250D03*
X0020550Y0204250D03*
X0020550Y0050250D03*
D18*
X0379300Y0050250D03*
X0379300Y0204250D03*
D19*
X0476800Y0027250D02*
X0001800Y0027250D01*
X0001800Y0227250D01*
X0476800Y0227250D01*
X0476800Y0027250D01*
X0001800Y0027250D01*
X0001800Y0028749D02*
X0476800Y0028749D01*
X0476800Y0030247D02*
X0001800Y0030247D01*
X0001800Y0031746D02*
X0476800Y0031746D01*
X0476800Y0033244D02*
X0001800Y0033244D01*
X0001800Y0034743D02*
X0476800Y0034743D01*
X0476800Y0036241D02*
X0001800Y0036241D01*
X0001800Y0037740D02*
X0476800Y0037740D01*
X0476800Y0039238D02*
X0001800Y0039238D01*
X0001800Y0040737D02*
X0200483Y0040737D01*
X0201054Y0040500D02*
X0199676Y0041071D01*
X0198621Y0042126D01*
X0198050Y0043504D01*
X0198050Y0044996D01*
X0198621Y0046374D01*
X0199676Y0047429D01*
X0201054Y0048000D01*
X0202546Y0048000D01*
X0203924Y0047429D01*
X0204979Y0046374D01*
X0205550Y0044996D01*
X0205550Y0043504D01*
X0204979Y0042126D01*
X0203924Y0041071D01*
X0202546Y0040500D01*
X0201054Y0040500D01*
X0203117Y0040737D02*
X0476800Y0040737D01*
X0476800Y0042235D02*
X0205024Y0042235D01*
X0205550Y0043734D02*
X0476800Y0043734D01*
X0476800Y0045232D02*
X0205452Y0045232D01*
X0204623Y0046731D02*
X0206497Y0046731D01*
X0207054Y0046500D02*
X0208546Y0046500D01*
X0209924Y0047071D01*
X0210979Y0048126D01*
X0211550Y0049504D01*
X0211550Y0050996D01*
X0210979Y0052374D01*
X0209924Y0053429D01*
X0208546Y0054000D01*
X0207054Y0054000D01*
X0205676Y0053429D01*
X0204621Y0052374D01*
X0204050Y0050996D01*
X0204050Y0049504D01*
X0204621Y0048126D01*
X0205676Y0047071D01*
X0207054Y0046500D01*
X0209103Y0046731D02*
X0476800Y0046731D01*
X0476800Y0048229D02*
X0211022Y0048229D01*
X0211550Y0049728D02*
X0476800Y0049728D01*
X0476800Y0051226D02*
X0211455Y0051226D01*
X0210629Y0052725D02*
X0476800Y0052725D01*
X0476800Y0054223D02*
X0001800Y0054223D01*
X0001800Y0052725D02*
X0178971Y0052725D01*
X0178621Y0052374D02*
X0178050Y0050996D01*
X0178050Y0049504D01*
X0178621Y0048126D01*
X0179676Y0047071D01*
X0181054Y0046500D01*
X0182546Y0046500D01*
X0183924Y0047071D01*
X0184979Y0048126D01*
X0185550Y0049504D01*
X0185550Y0050996D01*
X0184979Y0052374D01*
X0183924Y0053429D01*
X0182546Y0054000D01*
X0181054Y0054000D01*
X0179676Y0053429D01*
X0178621Y0052374D01*
X0178145Y0051226D02*
X0072127Y0051226D01*
X0071924Y0051429D02*
X0070546Y0052000D01*
X0069054Y0052000D01*
X0067676Y0051429D01*
X0066621Y0050374D01*
X0066050Y0048996D01*
X0066050Y0047504D01*
X0066621Y0046126D01*
X0067676Y0045071D01*
X0069054Y0044500D01*
X0070546Y0044500D01*
X0071924Y0045071D01*
X0072979Y0046126D01*
X0073550Y0047504D01*
X0073550Y0048996D01*
X0072979Y0050374D01*
X0071924Y0051429D01*
X0073247Y0049728D02*
X0178050Y0049728D01*
X0178578Y0048229D02*
X0073550Y0048229D01*
X0073230Y0046731D02*
X0180497Y0046731D01*
X0183103Y0046731D02*
X0198977Y0046731D01*
X0198148Y0045232D02*
X0072085Y0045232D01*
X0067515Y0045232D02*
X0001800Y0045232D01*
X0001800Y0043734D02*
X0198050Y0043734D01*
X0198576Y0042235D02*
X0001800Y0042235D01*
X0001800Y0046731D02*
X0066370Y0046731D01*
X0066050Y0048229D02*
X0001800Y0048229D01*
X0001800Y0049728D02*
X0066353Y0049728D01*
X0067473Y0051226D02*
X0001800Y0051226D01*
X0001800Y0055722D02*
X0476800Y0055722D01*
X0476800Y0057220D02*
X0001800Y0057220D01*
X0001800Y0058719D02*
X0217546Y0058719D01*
X0217902Y0058363D02*
X0219134Y0057853D01*
X0220466Y0057853D01*
X0221698Y0058363D01*
X0222640Y0059305D01*
X0223150Y0060536D01*
X0223150Y0061869D01*
X0222640Y0063100D01*
X0221698Y0064043D01*
X0220466Y0064553D01*
X0219134Y0064553D01*
X0217902Y0064043D01*
X0216960Y0063100D01*
X0216450Y0061869D01*
X0216450Y0060536D01*
X0216960Y0059305D01*
X0217902Y0058363D01*
X0216582Y0060217D02*
X0001800Y0060217D01*
X0001800Y0061716D02*
X0216450Y0061716D01*
X0217074Y0063214D02*
X0001800Y0063214D01*
X0001800Y0064713D02*
X0158540Y0064713D01*
X0159054Y0064500D02*
X0160546Y0064500D01*
X0161924Y0065071D01*
X0162979Y0066126D01*
X0163550Y0067504D01*
X0163550Y0068996D01*
X0162979Y0070374D01*
X0161924Y0071429D01*
X0160546Y0072000D01*
X0159054Y0072000D01*
X0157676Y0071429D01*
X0156621Y0070374D01*
X0156050Y0068996D01*
X0156050Y0067504D01*
X0156621Y0066126D01*
X0157676Y0065071D01*
X0159054Y0064500D01*
X0161060Y0064713D02*
X0262493Y0064713D01*
X0262604Y0064446D02*
X0263996Y0063054D01*
X0265815Y0062300D01*
X0267785Y0062300D01*
X0269604Y0063054D01*
X0270996Y0064446D01*
X0271750Y0066265D01*
X0271750Y0068235D01*
X0270996Y0070054D01*
X0269604Y0071446D01*
X0267785Y0072200D01*
X0265815Y0072200D01*
X0263996Y0071446D01*
X0262604Y0070054D01*
X0261850Y0068235D01*
X0261850Y0066265D01*
X0262604Y0064446D01*
X0263835Y0063214D02*
X0222526Y0063214D01*
X0223150Y0061716D02*
X0476800Y0061716D01*
X0476800Y0063214D02*
X0330916Y0063214D01*
X0331488Y0063786D02*
X0330264Y0062562D01*
X0328665Y0061900D01*
X0326935Y0061900D01*
X0325336Y0062562D01*
X0324112Y0063786D01*
X0323450Y0065385D01*
X0323450Y0067115D01*
X0324112Y0068714D01*
X0325336Y0069938D01*
X0326935Y0070600D01*
X0328665Y0070600D01*
X0330264Y0069938D01*
X0331488Y0068714D01*
X0332150Y0067115D01*
X0332150Y0065385D01*
X0331488Y0063786D01*
X0331872Y0064713D02*
X0476800Y0064713D01*
X0476800Y0066211D02*
X0332150Y0066211D01*
X0331904Y0067710D02*
X0476800Y0067710D01*
X0476800Y0069208D02*
X0330994Y0069208D01*
X0324606Y0069208D02*
X0320994Y0069208D01*
X0321488Y0068714D02*
X0320264Y0069938D01*
X0318665Y0070600D01*
X0316935Y0070600D01*
X0315336Y0069938D01*
X0314112Y0068714D01*
X0313450Y0067115D01*
X0313450Y0065385D01*
X0314112Y0063786D01*
X0315336Y0062562D01*
X0316935Y0061900D01*
X0318665Y0061900D01*
X0320264Y0062562D01*
X0321488Y0063786D01*
X0322150Y0065385D01*
X0322150Y0067115D01*
X0321488Y0068714D01*
X0321904Y0067710D02*
X0323696Y0067710D01*
X0323450Y0066211D02*
X0322150Y0066211D01*
X0321872Y0064713D02*
X0323728Y0064713D01*
X0324684Y0063214D02*
X0320916Y0063214D01*
X0314684Y0063214D02*
X0310916Y0063214D01*
X0311488Y0063786D02*
X0310264Y0062562D01*
X0308665Y0061900D01*
X0306935Y0061900D01*
X0305336Y0062562D01*
X0304112Y0063786D01*
X0303450Y0065385D01*
X0303450Y0067115D01*
X0304112Y0068714D01*
X0305336Y0069938D01*
X0306935Y0070600D01*
X0308665Y0070600D01*
X0310264Y0069938D01*
X0311488Y0068714D01*
X0312150Y0067115D01*
X0312150Y0065385D01*
X0311488Y0063786D01*
X0311872Y0064713D02*
X0313728Y0064713D01*
X0313450Y0066211D02*
X0312150Y0066211D01*
X0311904Y0067710D02*
X0313696Y0067710D01*
X0314606Y0069208D02*
X0310994Y0069208D01*
X0304606Y0069208D02*
X0281347Y0069208D01*
X0280996Y0070054D02*
X0279604Y0071446D01*
X0277785Y0072200D01*
X0275815Y0072200D01*
X0273996Y0071446D01*
X0272604Y0070054D01*
X0271850Y0068235D01*
X0271850Y0066265D01*
X0272604Y0064446D01*
X0273996Y0063054D01*
X0275815Y0062300D01*
X0277785Y0062300D01*
X0279604Y0063054D01*
X0280996Y0064446D01*
X0281750Y0066265D01*
X0281750Y0068235D01*
X0280996Y0070054D01*
X0280344Y0070707D02*
X0295555Y0070707D01*
X0296054Y0070500D02*
X0297546Y0070500D01*
X0298924Y0071071D01*
X0299979Y0072126D01*
X0300550Y0073504D01*
X0300550Y0074996D01*
X0299979Y0076374D01*
X0298924Y0077429D01*
X0297546Y0078000D01*
X0296054Y0078000D01*
X0294676Y0077429D01*
X0293621Y0076374D01*
X0293050Y0074996D01*
X0293050Y0073504D01*
X0293621Y0072126D01*
X0294676Y0071071D01*
X0296054Y0070500D01*
X0298045Y0070707D02*
X0476800Y0070707D01*
X0476800Y0072205D02*
X0300012Y0072205D01*
X0300550Y0073704D02*
X0476800Y0073704D01*
X0476800Y0075202D02*
X0300464Y0075202D01*
X0299652Y0076701D02*
X0324569Y0076701D01*
X0325054Y0076500D02*
X0326546Y0076500D01*
X0327924Y0077071D01*
X0328979Y0078126D01*
X0329550Y0079504D01*
X0329550Y0080996D01*
X0328979Y0082374D01*
X0327924Y0083429D01*
X0326546Y0084000D01*
X0325054Y0084000D01*
X0323676Y0083429D01*
X0322621Y0082374D01*
X0322050Y0080996D01*
X0322050Y0079504D01*
X0322621Y0078126D01*
X0323676Y0077071D01*
X0325054Y0076500D01*
X0327031Y0076701D02*
X0476800Y0076701D01*
X0476800Y0078199D02*
X0329010Y0078199D01*
X0329550Y0079698D02*
X0476800Y0079698D01*
X0476800Y0081196D02*
X0329467Y0081196D01*
X0328658Y0082695D02*
X0476800Y0082695D01*
X0476800Y0084193D02*
X0218047Y0084193D01*
X0217924Y0084071D02*
X0218979Y0085126D01*
X0219550Y0086504D01*
X0219550Y0087996D01*
X0218979Y0089374D01*
X0217924Y0090429D01*
X0216763Y0090910D01*
X0216979Y0091126D01*
X0217550Y0092504D01*
X0217550Y0093996D01*
X0216979Y0095374D01*
X0216853Y0095500D01*
X0229347Y0095500D01*
X0230358Y0095919D01*
X0231131Y0096692D01*
X0232939Y0098500D01*
X0233546Y0098500D01*
X0234924Y0099071D01*
X0235979Y0100126D01*
X0236300Y0100901D01*
X0236621Y0100126D01*
X0237676Y0099071D01*
X0239054Y0098500D01*
X0240546Y0098500D01*
X0241924Y0099071D01*
X0242979Y0100126D01*
X0243550Y0101504D01*
X0243550Y0102996D01*
X0242979Y0104374D01*
X0241924Y0105429D01*
X0240546Y0106000D01*
X0239939Y0106000D01*
X0208358Y0137581D01*
X0207347Y0138000D01*
X0205353Y0138000D01*
X0204924Y0138429D01*
X0203546Y0139000D01*
X0202054Y0139000D01*
X0200676Y0138429D01*
X0199621Y0137374D01*
X0199050Y0135996D01*
X0199050Y0134504D01*
X0199621Y0133126D01*
X0200676Y0132071D01*
X0202054Y0131500D01*
X0203546Y0131500D01*
X0204924Y0132071D01*
X0205353Y0132500D01*
X0205661Y0132500D01*
X0232161Y0106000D01*
X0232054Y0106000D01*
X0230676Y0105429D01*
X0229621Y0104374D01*
X0229050Y0102996D01*
X0229050Y0102389D01*
X0228115Y0101454D01*
X0228550Y0102504D01*
X0228550Y0103996D01*
X0227979Y0105374D01*
X0226924Y0106429D01*
X0225546Y0107000D01*
X0224054Y0107000D01*
X0222676Y0106429D01*
X0221621Y0105374D01*
X0221300Y0104599D01*
X0220979Y0105374D01*
X0219924Y0106429D01*
X0218546Y0107000D01*
X0217054Y0107000D01*
X0215676Y0106429D01*
X0214621Y0105374D01*
X0214050Y0103996D01*
X0214050Y0102504D01*
X0214621Y0101126D01*
X0214747Y0101000D01*
X0198939Y0101000D01*
X0162550Y0137389D01*
X0162550Y0138697D01*
X0162979Y0139126D01*
X0163093Y0139401D01*
X0163621Y0138126D01*
X0164676Y0137071D01*
X0166054Y0136500D01*
X0167546Y0136500D01*
X0168924Y0137071D01*
X0169979Y0138126D01*
X0170550Y0139504D01*
X0170550Y0140996D01*
X0169979Y0142374D01*
X0168924Y0143429D01*
X0167546Y0144000D01*
X0166054Y0144000D01*
X0164676Y0143429D01*
X0163621Y0142374D01*
X0163507Y0142099D01*
X0162979Y0143374D01*
X0161924Y0144429D01*
X0160546Y0145000D01*
X0159054Y0145000D01*
X0157676Y0144429D01*
X0156621Y0143374D01*
X0156050Y0141996D01*
X0156050Y0140504D01*
X0156621Y0139126D01*
X0157050Y0138697D01*
X0157050Y0135703D01*
X0157469Y0134692D01*
X0158242Y0133919D01*
X0196242Y0095919D01*
X0197253Y0095500D01*
X0210747Y0095500D01*
X0210621Y0095374D01*
X0210050Y0093996D01*
X0210050Y0092504D01*
X0210621Y0091126D01*
X0211676Y0090071D01*
X0212837Y0089590D01*
X0212621Y0089374D01*
X0212050Y0087996D01*
X0212050Y0086504D01*
X0212621Y0085126D01*
X0213676Y0084071D01*
X0215054Y0083500D01*
X0216546Y0083500D01*
X0217924Y0084071D01*
X0219214Y0085692D02*
X0476800Y0085692D01*
X0476800Y0087190D02*
X0219550Y0087190D01*
X0219263Y0088689D02*
X0476800Y0088689D01*
X0476800Y0090187D02*
X0218166Y0090187D01*
X0217211Y0091686D02*
X0476800Y0091686D01*
X0476800Y0093184D02*
X0217550Y0093184D01*
X0217265Y0094683D02*
X0244064Y0094683D01*
X0243621Y0095126D02*
X0244676Y0094071D01*
X0246054Y0093500D01*
X0247546Y0093500D01*
X0248924Y0094071D01*
X0249979Y0095126D01*
X0250550Y0096504D01*
X0250550Y0097996D01*
X0249979Y0099374D01*
X0249550Y0099803D01*
X0249550Y0116797D01*
X0249131Y0117808D01*
X0248358Y0118581D01*
X0240550Y0126389D01*
X0240550Y0126996D01*
X0239979Y0128374D01*
X0238924Y0129429D01*
X0237546Y0130000D01*
X0236054Y0130000D01*
X0234676Y0129429D01*
X0233621Y0128374D01*
X0233050Y0126996D01*
X0233050Y0125504D01*
X0233621Y0124126D01*
X0234676Y0123071D01*
X0236054Y0122500D01*
X0236661Y0122500D01*
X0244050Y0115111D01*
X0244050Y0099803D01*
X0243621Y0099374D01*
X0243050Y0097996D01*
X0243050Y0096504D01*
X0243621Y0095126D01*
X0243184Y0096182D02*
X0230621Y0096182D01*
X0232119Y0097680D02*
X0243050Y0097680D01*
X0243540Y0099179D02*
X0242032Y0099179D01*
X0243207Y0100677D02*
X0244050Y0100677D01*
X0244050Y0102176D02*
X0243550Y0102176D01*
X0243269Y0103674D02*
X0244050Y0103674D01*
X0244050Y0105173D02*
X0242181Y0105173D01*
X0244050Y0106671D02*
X0239268Y0106671D01*
X0237769Y0108170D02*
X0244050Y0108170D01*
X0244050Y0109668D02*
X0236271Y0109668D01*
X0234772Y0111167D02*
X0244050Y0111167D01*
X0244050Y0112665D02*
X0233274Y0112665D01*
X0231775Y0114164D02*
X0244050Y0114164D01*
X0243499Y0115662D02*
X0230277Y0115662D01*
X0228778Y0117161D02*
X0242000Y0117161D01*
X0240502Y0118659D02*
X0227280Y0118659D01*
X0225781Y0120158D02*
X0239003Y0120158D01*
X0237505Y0121656D02*
X0224283Y0121656D01*
X0222784Y0123155D02*
X0234592Y0123155D01*
X0233402Y0124653D02*
X0221286Y0124653D01*
X0219787Y0126152D02*
X0233050Y0126152D01*
X0233321Y0127650D02*
X0218289Y0127650D01*
X0216790Y0129149D02*
X0234395Y0129149D01*
X0239205Y0129149D02*
X0279446Y0129149D01*
X0277948Y0130647D02*
X0215292Y0130647D01*
X0213793Y0132146D02*
X0276449Y0132146D01*
X0274951Y0133644D02*
X0212295Y0133644D01*
X0210796Y0135143D02*
X0273452Y0135143D01*
X0271954Y0136641D02*
X0218887Y0136641D01*
X0218546Y0136500D02*
X0219924Y0137071D01*
X0220979Y0138126D01*
X0221550Y0139504D01*
X0221550Y0140996D01*
X0220979Y0142374D01*
X0219924Y0143429D01*
X0218546Y0144000D01*
X0217054Y0144000D01*
X0215676Y0143429D01*
X0214621Y0142374D01*
X0214050Y0140996D01*
X0214050Y0139504D01*
X0214621Y0138126D01*
X0215676Y0137071D01*
X0217054Y0136500D01*
X0218546Y0136500D01*
X0216713Y0136641D02*
X0209298Y0136641D01*
X0205213Y0138140D02*
X0214615Y0138140D01*
X0214050Y0139638D02*
X0191191Y0139638D01*
X0190979Y0139126D02*
X0191550Y0140504D01*
X0191550Y0141996D01*
X0190979Y0143374D01*
X0189924Y0144429D01*
X0188546Y0145000D01*
X0187054Y0145000D01*
X0185676Y0144429D01*
X0184621Y0143374D01*
X0184050Y0141996D01*
X0184050Y0140504D01*
X0184621Y0139126D01*
X0185676Y0138071D01*
X0187054Y0137500D01*
X0188546Y0137500D01*
X0189924Y0138071D01*
X0190979Y0139126D01*
X0189993Y0138140D02*
X0200387Y0138140D01*
X0199317Y0136641D02*
X0167887Y0136641D01*
X0165713Y0136641D02*
X0163298Y0136641D01*
X0163615Y0138140D02*
X0162550Y0138140D01*
X0164796Y0135143D02*
X0199050Y0135143D01*
X0199406Y0133644D02*
X0166295Y0133644D01*
X0167793Y0132146D02*
X0200601Y0132146D01*
X0204999Y0132146D02*
X0206015Y0132146D01*
X0207514Y0130647D02*
X0169292Y0130647D01*
X0170790Y0129149D02*
X0209012Y0129149D01*
X0210511Y0127650D02*
X0172289Y0127650D01*
X0173787Y0126152D02*
X0212009Y0126152D01*
X0213508Y0124653D02*
X0175286Y0124653D01*
X0176784Y0123155D02*
X0215006Y0123155D01*
X0216505Y0121656D02*
X0178283Y0121656D01*
X0179781Y0120158D02*
X0218003Y0120158D01*
X0219502Y0118659D02*
X0181280Y0118659D01*
X0182778Y0117161D02*
X0221000Y0117161D01*
X0222499Y0115662D02*
X0184277Y0115662D01*
X0185775Y0114164D02*
X0223997Y0114164D01*
X0225496Y0112665D02*
X0187274Y0112665D01*
X0188772Y0111167D02*
X0226994Y0111167D01*
X0228493Y0109668D02*
X0190271Y0109668D01*
X0191769Y0108170D02*
X0229991Y0108170D01*
X0231490Y0106671D02*
X0226340Y0106671D01*
X0228063Y0105173D02*
X0230419Y0105173D01*
X0229331Y0103674D02*
X0228550Y0103674D01*
X0228414Y0102176D02*
X0228837Y0102176D01*
X0221537Y0105173D02*
X0221063Y0105173D01*
X0219340Y0106671D02*
X0223260Y0106671D01*
X0216260Y0106671D02*
X0193268Y0106671D01*
X0194766Y0105173D02*
X0214537Y0105173D01*
X0214050Y0103674D02*
X0196265Y0103674D01*
X0197763Y0102176D02*
X0214186Y0102176D01*
X0210335Y0094683D02*
X0001800Y0094683D01*
X0001800Y0093184D02*
X0210050Y0093184D01*
X0210389Y0091686D02*
X0001800Y0091686D01*
X0001800Y0090187D02*
X0211559Y0090187D01*
X0212337Y0088689D02*
X0001800Y0088689D01*
X0001800Y0087190D02*
X0212050Y0087190D01*
X0212386Y0085692D02*
X0001800Y0085692D01*
X0001800Y0084193D02*
X0213553Y0084193D01*
X0202353Y0078000D02*
X0201924Y0078429D01*
X0200546Y0079000D01*
X0199054Y0079000D01*
X0197676Y0078429D01*
X0196621Y0077374D01*
X0196050Y0075996D01*
X0196050Y0074504D01*
X0196621Y0073126D01*
X0197676Y0072071D01*
X0199054Y0071500D01*
X0200546Y0071500D01*
X0201924Y0072071D01*
X0202353Y0072500D01*
X0245247Y0072500D01*
X0245676Y0072071D01*
X0247054Y0071500D01*
X0248546Y0071500D01*
X0249924Y0072071D01*
X0250979Y0073126D01*
X0251550Y0074504D01*
X0251550Y0075996D01*
X0250979Y0077374D01*
X0249924Y0078429D01*
X0248546Y0079000D01*
X0247054Y0079000D01*
X0245676Y0078429D01*
X0245247Y0078000D01*
X0202353Y0078000D01*
X0202154Y0078199D02*
X0245446Y0078199D01*
X0250154Y0078199D02*
X0322590Y0078199D01*
X0322050Y0079698D02*
X0175550Y0079698D01*
X0175550Y0079504D02*
X0174979Y0078126D01*
X0173924Y0077071D01*
X0172546Y0076500D01*
X0171054Y0076500D01*
X0169676Y0077071D01*
X0168621Y0078126D01*
X0168050Y0079504D01*
X0168050Y0080996D01*
X0168621Y0082374D01*
X0169676Y0083429D01*
X0171054Y0084000D01*
X0172546Y0084000D01*
X0173924Y0083429D01*
X0174979Y0082374D01*
X0175550Y0080996D01*
X0175550Y0079504D01*
X0175010Y0078199D02*
X0197446Y0078199D01*
X0196342Y0076701D02*
X0173031Y0076701D01*
X0170569Y0076701D02*
X0001800Y0076701D01*
X0001800Y0078199D02*
X0168590Y0078199D01*
X0168050Y0079698D02*
X0001800Y0079698D01*
X0001800Y0081196D02*
X0168133Y0081196D01*
X0168942Y0082695D02*
X0001800Y0082695D01*
X0001800Y0075202D02*
X0196050Y0075202D01*
X0196381Y0073704D02*
X0001800Y0073704D01*
X0001800Y0072205D02*
X0197541Y0072205D01*
X0202059Y0072205D02*
X0245541Y0072205D01*
X0250059Y0072205D02*
X0293588Y0072205D01*
X0293050Y0073704D02*
X0251219Y0073704D01*
X0251550Y0075202D02*
X0293136Y0075202D01*
X0293948Y0076701D02*
X0251258Y0076701D01*
X0262253Y0069208D02*
X0163462Y0069208D01*
X0163550Y0067710D02*
X0261850Y0067710D01*
X0261872Y0066211D02*
X0163014Y0066211D01*
X0162646Y0070707D02*
X0263256Y0070707D01*
X0270344Y0070707D02*
X0273256Y0070707D01*
X0272253Y0069208D02*
X0271347Y0069208D01*
X0271750Y0067710D02*
X0271850Y0067710D01*
X0271872Y0066211D02*
X0271728Y0066211D01*
X0271107Y0064713D02*
X0272493Y0064713D01*
X0273835Y0063214D02*
X0269765Y0063214D01*
X0279765Y0063214D02*
X0304684Y0063214D01*
X0303728Y0064713D02*
X0281107Y0064713D01*
X0281728Y0066211D02*
X0303450Y0066211D01*
X0303696Y0067710D02*
X0281750Y0067710D01*
X0322133Y0081196D02*
X0175467Y0081196D01*
X0174658Y0082695D02*
X0322942Y0082695D01*
X0301924Y0110071D02*
X0300546Y0109500D01*
X0299054Y0109500D01*
X0297676Y0110071D01*
X0296621Y0111126D01*
X0296050Y0112504D01*
X0296050Y0112545D01*
X0259495Y0149100D01*
X0258953Y0149100D01*
X0258924Y0149071D01*
X0257546Y0148500D01*
X0256054Y0148500D01*
X0254676Y0149071D01*
X0253621Y0150126D01*
X0253050Y0151504D01*
X0253050Y0152996D01*
X0253621Y0154374D01*
X0254676Y0155429D01*
X0256054Y0156000D01*
X0257546Y0156000D01*
X0258924Y0155429D01*
X0258953Y0155400D01*
X0261427Y0155400D01*
X0262584Y0154920D01*
X0300505Y0117000D01*
X0300546Y0117000D01*
X0301924Y0116429D01*
X0302979Y0115374D01*
X0303550Y0113996D01*
X0303550Y0112504D01*
X0302979Y0111126D01*
X0301924Y0110071D01*
X0300952Y0109668D02*
X0476800Y0109668D01*
X0476800Y0108170D02*
X0249550Y0108170D01*
X0249550Y0109668D02*
X0298648Y0109668D01*
X0296604Y0111167D02*
X0249550Y0111167D01*
X0249550Y0112665D02*
X0295930Y0112665D01*
X0294432Y0114164D02*
X0249550Y0114164D01*
X0249550Y0115662D02*
X0292933Y0115662D01*
X0291435Y0117161D02*
X0249399Y0117161D01*
X0248280Y0118659D02*
X0289936Y0118659D01*
X0288438Y0120158D02*
X0246781Y0120158D01*
X0245283Y0121656D02*
X0286939Y0121656D01*
X0285440Y0123155D02*
X0243784Y0123155D01*
X0242286Y0124653D02*
X0283942Y0124653D01*
X0282443Y0126152D02*
X0240787Y0126152D01*
X0240279Y0127650D02*
X0280945Y0127650D01*
X0286857Y0130647D02*
X0476800Y0130647D01*
X0476800Y0129149D02*
X0288356Y0129149D01*
X0289855Y0127650D02*
X0476800Y0127650D01*
X0476800Y0126152D02*
X0291353Y0126152D01*
X0292852Y0124653D02*
X0476800Y0124653D01*
X0476800Y0123155D02*
X0294350Y0123155D01*
X0295849Y0121656D02*
X0476800Y0121656D01*
X0476800Y0120158D02*
X0297347Y0120158D01*
X0298846Y0118659D02*
X0476800Y0118659D01*
X0476800Y0117161D02*
X0300344Y0117161D01*
X0302691Y0115662D02*
X0476800Y0115662D01*
X0476800Y0114164D02*
X0303481Y0114164D01*
X0303550Y0112665D02*
X0476800Y0112665D01*
X0476800Y0111167D02*
X0302996Y0111167D01*
X0285359Y0132146D02*
X0476800Y0132146D01*
X0476800Y0133644D02*
X0283860Y0133644D01*
X0282362Y0135143D02*
X0476800Y0135143D01*
X0476800Y0136641D02*
X0280863Y0136641D01*
X0279365Y0138140D02*
X0476800Y0138140D01*
X0476800Y0139638D02*
X0277866Y0139638D01*
X0276368Y0141137D02*
X0476800Y0141137D01*
X0476800Y0142635D02*
X0274869Y0142635D01*
X0273371Y0144134D02*
X0476800Y0144134D01*
X0476800Y0145632D02*
X0271872Y0145632D01*
X0270374Y0147131D02*
X0476800Y0147131D01*
X0476800Y0148629D02*
X0268875Y0148629D01*
X0267377Y0150128D02*
X0476800Y0150128D01*
X0476800Y0151626D02*
X0265878Y0151626D01*
X0264380Y0153125D02*
X0476800Y0153125D01*
X0476800Y0154623D02*
X0262881Y0154623D01*
X0253870Y0154623D02*
X0209730Y0154623D01*
X0209979Y0154374D02*
X0208924Y0155429D01*
X0207546Y0156000D01*
X0206054Y0156000D01*
X0204676Y0155429D01*
X0203621Y0154374D01*
X0203050Y0152996D01*
X0203050Y0151504D01*
X0203621Y0150126D01*
X0204676Y0149071D01*
X0206054Y0148500D01*
X0207546Y0148500D01*
X0208924Y0149071D01*
X0209979Y0150126D01*
X0210550Y0151504D01*
X0210550Y0152996D01*
X0209979Y0154374D01*
X0210497Y0153125D02*
X0253103Y0153125D01*
X0253050Y0151626D02*
X0210550Y0151626D01*
X0209980Y0150128D02*
X0253620Y0150128D01*
X0255742Y0148629D02*
X0207858Y0148629D01*
X0205742Y0148629D02*
X0001800Y0148629D01*
X0001800Y0147131D02*
X0261464Y0147131D01*
X0259966Y0148629D02*
X0257858Y0148629D01*
X0262963Y0145632D02*
X0001800Y0145632D01*
X0001800Y0144134D02*
X0157381Y0144134D01*
X0156315Y0142635D02*
X0119718Y0142635D01*
X0119979Y0142374D02*
X0118924Y0143429D01*
X0117546Y0144000D01*
X0116054Y0144000D01*
X0114676Y0143429D01*
X0113621Y0142374D01*
X0113050Y0140996D01*
X0113050Y0139504D01*
X0113621Y0138126D01*
X0114676Y0137071D01*
X0116054Y0136500D01*
X0117546Y0136500D01*
X0118924Y0137071D01*
X0119979Y0138126D01*
X0120550Y0139504D01*
X0120550Y0140996D01*
X0119979Y0142374D01*
X0120492Y0141137D02*
X0156050Y0141137D01*
X0156409Y0139638D02*
X0120550Y0139638D01*
X0119985Y0138140D02*
X0157050Y0138140D01*
X0157050Y0136641D02*
X0117887Y0136641D01*
X0115713Y0136641D02*
X0001800Y0136641D01*
X0001800Y0135143D02*
X0123077Y0135143D01*
X0123310Y0135313D02*
X0122706Y0134873D01*
X0122177Y0134344D01*
X0121737Y0133740D01*
X0121398Y0133073D01*
X0121167Y0132362D01*
X0121050Y0131624D01*
X0121050Y0131500D01*
X0125550Y0131500D01*
X0125550Y0136000D01*
X0125426Y0136000D01*
X0124688Y0135883D01*
X0123977Y0135652D01*
X0123310Y0135313D01*
X0125550Y0135143D02*
X0126050Y0135143D01*
X0126050Y0136000D02*
X0126050Y0131500D01*
X0125550Y0131500D01*
X0125550Y0131000D01*
X0121050Y0131000D01*
X0121050Y0130876D01*
X0121167Y0130138D01*
X0121398Y0129427D01*
X0121737Y0128760D01*
X0122177Y0128156D01*
X0122706Y0127627D01*
X0123310Y0127187D01*
X0123977Y0126848D01*
X0124688Y0126617D01*
X0125426Y0126500D01*
X0125550Y0126500D01*
X0125550Y0131000D01*
X0126050Y0131000D01*
X0126050Y0131500D01*
X0130550Y0131500D01*
X0130550Y0131624D01*
X0130433Y0132362D01*
X0130202Y0133073D01*
X0129863Y0133740D01*
X0129423Y0134344D01*
X0128894Y0134873D01*
X0128290Y0135313D01*
X0127623Y0135652D01*
X0126912Y0135883D01*
X0126174Y0136000D01*
X0126050Y0136000D01*
X0126050Y0133644D02*
X0125550Y0133644D01*
X0125550Y0132146D02*
X0126050Y0132146D01*
X0126050Y0131000D02*
X0130550Y0131000D01*
X0130550Y0130876D01*
X0130433Y0130138D01*
X0130202Y0129427D01*
X0129863Y0128760D01*
X0129423Y0128156D01*
X0128894Y0127627D01*
X0128290Y0127187D01*
X0127623Y0126848D01*
X0126912Y0126617D01*
X0126174Y0126500D01*
X0126050Y0126500D01*
X0126050Y0131000D01*
X0126050Y0130647D02*
X0125550Y0130647D01*
X0125550Y0129149D02*
X0126050Y0129149D01*
X0126050Y0127650D02*
X0125550Y0127650D01*
X0122682Y0127650D02*
X0047350Y0127650D01*
X0047350Y0128235D02*
X0046596Y0130054D01*
X0045204Y0131446D01*
X0043385Y0132200D01*
X0041415Y0132200D01*
X0039596Y0131446D01*
X0038204Y0130054D01*
X0037450Y0128235D01*
X0037450Y0126265D01*
X0038204Y0124446D01*
X0039596Y0123054D01*
X0041415Y0122300D01*
X0043385Y0122300D01*
X0045204Y0123054D01*
X0046596Y0124446D01*
X0047350Y0126265D01*
X0047350Y0128235D01*
X0046971Y0129149D02*
X0121540Y0129149D01*
X0121086Y0130647D02*
X0046003Y0130647D01*
X0043515Y0132146D02*
X0121133Y0132146D01*
X0121689Y0133644D02*
X0001800Y0133644D01*
X0001800Y0132146D02*
X0021285Y0132146D01*
X0021415Y0132200D02*
X0019596Y0131446D01*
X0018204Y0130054D01*
X0017450Y0128235D01*
X0017450Y0126265D01*
X0018204Y0124446D01*
X0019596Y0123054D01*
X0021415Y0122300D01*
X0023385Y0122300D01*
X0025204Y0123054D01*
X0026596Y0124446D01*
X0027350Y0126265D01*
X0027350Y0128235D01*
X0026596Y0130054D01*
X0025204Y0131446D01*
X0023385Y0132200D01*
X0021415Y0132200D01*
X0023515Y0132146D02*
X0041285Y0132146D01*
X0038797Y0130647D02*
X0035720Y0130647D01*
X0035494Y0130873D02*
X0034890Y0131313D01*
X0034223Y0131652D01*
X0033512Y0131883D01*
X0032774Y0132000D01*
X0032650Y0132000D01*
X0032650Y0127500D01*
X0032150Y0127500D01*
X0032150Y0132000D01*
X0032026Y0132000D01*
X0031288Y0131883D01*
X0030577Y0131652D01*
X0029910Y0131313D01*
X0029306Y0130873D01*
X0028777Y0130344D01*
X0028337Y0129740D01*
X0027998Y0129073D01*
X0027767Y0128362D01*
X0027650Y0127624D01*
X0027650Y0127500D01*
X0032150Y0127500D01*
X0032150Y0127000D01*
X0027650Y0127000D01*
X0027650Y0126876D01*
X0027767Y0126138D01*
X0027998Y0125427D01*
X0028337Y0124760D01*
X0028777Y0124156D01*
X0029306Y0123627D01*
X0029910Y0123187D01*
X0030577Y0122848D01*
X0031288Y0122617D01*
X0032026Y0122500D01*
X0032150Y0122500D01*
X0032150Y0127000D01*
X0032650Y0127000D01*
X0032650Y0127500D01*
X0037150Y0127500D01*
X0037150Y0127624D01*
X0037033Y0128362D01*
X0036802Y0129073D01*
X0036463Y0129740D01*
X0036023Y0130344D01*
X0035494Y0130873D01*
X0036764Y0129149D02*
X0037829Y0129149D01*
X0037450Y0127650D02*
X0037146Y0127650D01*
X0037150Y0127000D02*
X0032650Y0127000D01*
X0032650Y0122500D01*
X0032774Y0122500D01*
X0033512Y0122617D01*
X0034223Y0122848D01*
X0034890Y0123187D01*
X0035494Y0123627D01*
X0036023Y0124156D01*
X0036463Y0124760D01*
X0036802Y0125427D01*
X0037033Y0126138D01*
X0037150Y0126876D01*
X0037150Y0127000D01*
X0037035Y0126152D02*
X0037497Y0126152D01*
X0038118Y0124653D02*
X0036385Y0124653D01*
X0034825Y0123155D02*
X0039495Y0123155D01*
X0045305Y0123155D02*
X0169006Y0123155D01*
X0167508Y0124653D02*
X0046682Y0124653D01*
X0047303Y0126152D02*
X0166009Y0126152D01*
X0164511Y0127650D02*
X0139201Y0127650D01*
X0138604Y0127054D02*
X0139996Y0128446D01*
X0140750Y0130265D01*
X0140750Y0132235D01*
X0139996Y0134054D01*
X0138604Y0135446D01*
X0136785Y0136200D01*
X0134815Y0136200D01*
X0132996Y0135446D01*
X0131604Y0134054D01*
X0130850Y0132235D01*
X0130850Y0130265D01*
X0131604Y0128446D01*
X0132996Y0127054D01*
X0134815Y0126300D01*
X0136785Y0126300D01*
X0138604Y0127054D01*
X0140287Y0129149D02*
X0163012Y0129149D01*
X0161514Y0130647D02*
X0140750Y0130647D01*
X0140750Y0132146D02*
X0160015Y0132146D01*
X0158517Y0133644D02*
X0140166Y0133644D01*
X0138908Y0135143D02*
X0157282Y0135143D01*
X0163285Y0142635D02*
X0163882Y0142635D01*
X0162219Y0144134D02*
X0185381Y0144134D01*
X0184315Y0142635D02*
X0169718Y0142635D01*
X0170492Y0141137D02*
X0184050Y0141137D01*
X0184409Y0139638D02*
X0170550Y0139638D01*
X0169985Y0138140D02*
X0185607Y0138140D01*
X0191550Y0141137D02*
X0214108Y0141137D01*
X0214882Y0142635D02*
X0191285Y0142635D01*
X0190219Y0144134D02*
X0235381Y0144134D01*
X0235676Y0144429D02*
X0234621Y0143374D01*
X0234050Y0141996D01*
X0234050Y0140504D01*
X0234621Y0139126D01*
X0235676Y0138071D01*
X0237054Y0137500D01*
X0238546Y0137500D01*
X0239924Y0138071D01*
X0240979Y0139126D01*
X0241550Y0140504D01*
X0241550Y0141996D01*
X0240979Y0143374D01*
X0239924Y0144429D01*
X0238546Y0145000D01*
X0237054Y0145000D01*
X0235676Y0144429D01*
X0234315Y0142635D02*
X0220718Y0142635D01*
X0221492Y0141137D02*
X0234050Y0141137D01*
X0234409Y0139638D02*
X0221550Y0139638D01*
X0220985Y0138140D02*
X0235607Y0138140D01*
X0239993Y0138140D02*
X0270455Y0138140D01*
X0268957Y0139638D02*
X0241191Y0139638D01*
X0241550Y0141137D02*
X0267458Y0141137D01*
X0265960Y0142635D02*
X0241285Y0142635D01*
X0240219Y0144134D02*
X0264461Y0144134D01*
X0298140Y0162800D02*
X0300350Y0160590D01*
X0303237Y0159394D01*
X0306363Y0159394D01*
X0309250Y0160590D01*
X0311460Y0162800D01*
X0312655Y0165687D01*
X0312655Y0168813D01*
X0311460Y0171700D01*
X0309250Y0173910D01*
X0306363Y0175105D01*
X0303237Y0175105D01*
X0300350Y0173910D01*
X0298140Y0171700D01*
X0296944Y0168813D01*
X0296944Y0165687D01*
X0298140Y0162800D01*
X0297803Y0163615D02*
X0001800Y0163615D01*
X0001800Y0165113D02*
X0297182Y0165113D01*
X0296944Y0166612D02*
X0001800Y0166612D01*
X0001800Y0168110D02*
X0296944Y0168110D01*
X0297274Y0169609D02*
X0001800Y0169609D01*
X0001800Y0171107D02*
X0297895Y0171107D01*
X0299046Y0172606D02*
X0001800Y0172606D01*
X0001800Y0174104D02*
X0300820Y0174104D01*
X0308780Y0174104D02*
X0476800Y0174104D01*
X0476800Y0172606D02*
X0310554Y0172606D01*
X0311705Y0171107D02*
X0476800Y0171107D01*
X0476800Y0169609D02*
X0312326Y0169609D01*
X0312655Y0168110D02*
X0476800Y0168110D01*
X0476800Y0166612D02*
X0312655Y0166612D01*
X0312418Y0165113D02*
X0476800Y0165113D01*
X0476800Y0163615D02*
X0311797Y0163615D01*
X0310775Y0162116D02*
X0476800Y0162116D01*
X0476800Y0160618D02*
X0309277Y0160618D01*
X0300323Y0160618D02*
X0148469Y0160618D01*
X0148924Y0160429D02*
X0147546Y0161000D01*
X0146054Y0161000D01*
X0144676Y0160429D01*
X0143621Y0159374D01*
X0143050Y0157996D01*
X0143050Y0156504D01*
X0143621Y0155126D01*
X0144676Y0154071D01*
X0146054Y0153500D01*
X0147546Y0153500D01*
X0148924Y0154071D01*
X0149979Y0155126D01*
X0150550Y0156504D01*
X0150550Y0157996D01*
X0149979Y0159374D01*
X0148924Y0160429D01*
X0150085Y0159119D02*
X0476800Y0159119D01*
X0476800Y0157620D02*
X0150550Y0157620D01*
X0150392Y0156122D02*
X0476800Y0156122D01*
X0476800Y0175603D02*
X0001800Y0175603D01*
X0001800Y0177101D02*
X0476800Y0177101D01*
X0476800Y0178600D02*
X0001800Y0178600D01*
X0001800Y0180098D02*
X0476800Y0180098D01*
X0476800Y0181597D02*
X0001800Y0181597D01*
X0001800Y0183095D02*
X0282021Y0183095D01*
X0282023Y0183094D02*
X0283825Y0182347D01*
X0285775Y0182347D01*
X0287577Y0183094D01*
X0288956Y0184473D01*
X0289703Y0186275D01*
X0289703Y0188225D01*
X0288956Y0190027D01*
X0287577Y0191406D01*
X0285775Y0192153D01*
X0283825Y0192153D01*
X0282023Y0191406D01*
X0280644Y0190027D01*
X0279897Y0188225D01*
X0279897Y0186275D01*
X0280644Y0184473D01*
X0282023Y0183094D01*
X0280594Y0184594D02*
X0001800Y0184594D01*
X0001800Y0186092D02*
X0279973Y0186092D01*
X0279897Y0187591D02*
X0001800Y0187591D01*
X0001800Y0189089D02*
X0096657Y0189089D01*
X0096676Y0189071D02*
X0098054Y0188500D01*
X0099546Y0188500D01*
X0100924Y0189071D01*
X0101979Y0190126D01*
X0102550Y0191504D01*
X0102550Y0192996D01*
X0101979Y0194374D01*
X0100924Y0195429D01*
X0099546Y0196000D01*
X0098054Y0196000D01*
X0096676Y0195429D01*
X0095621Y0194374D01*
X0095050Y0192996D01*
X0095050Y0191504D01*
X0095621Y0190126D01*
X0096676Y0189071D01*
X0095430Y0190588D02*
X0001800Y0190588D01*
X0001800Y0192086D02*
X0095050Y0192086D01*
X0095294Y0193585D02*
X0001800Y0193585D01*
X0001800Y0195083D02*
X0096330Y0195083D01*
X0101270Y0195083D02*
X0476800Y0195083D01*
X0476800Y0193585D02*
X0102306Y0193585D01*
X0102550Y0192086D02*
X0283664Y0192086D01*
X0285936Y0192086D02*
X0476800Y0192086D01*
X0476800Y0190588D02*
X0298113Y0190588D01*
X0297864Y0190837D02*
X0297265Y0191272D01*
X0296605Y0191608D01*
X0295901Y0191837D01*
X0295170Y0191953D01*
X0295034Y0191953D01*
X0295034Y0187484D01*
X0299503Y0187484D01*
X0299503Y0187620D01*
X0299387Y0188351D01*
X0299158Y0189055D01*
X0298822Y0189715D01*
X0298387Y0190314D01*
X0297864Y0190837D01*
X0299141Y0189089D02*
X0476800Y0189089D01*
X0476800Y0187591D02*
X0299503Y0187591D01*
X0299503Y0187016D02*
X0295034Y0187016D01*
X0295034Y0182547D01*
X0295170Y0182547D01*
X0295901Y0182663D01*
X0296605Y0182892D01*
X0297265Y0183228D01*
X0297864Y0183663D01*
X0298387Y0184186D01*
X0298822Y0184785D01*
X0299158Y0185445D01*
X0299387Y0186149D01*
X0299503Y0186880D01*
X0299503Y0187016D01*
X0299369Y0186092D02*
X0476800Y0186092D01*
X0476800Y0184594D02*
X0298683Y0184594D01*
X0297004Y0183095D02*
X0476800Y0183095D01*
X0476800Y0196582D02*
X0001800Y0196582D01*
X0001800Y0198080D02*
X0476800Y0198080D01*
X0476800Y0199579D02*
X0266808Y0199579D01*
X0266363Y0199394D02*
X0269250Y0200590D01*
X0271460Y0202800D01*
X0272655Y0205687D01*
X0272655Y0208813D01*
X0271460Y0211700D01*
X0269250Y0213910D01*
X0266363Y0215105D01*
X0263237Y0215105D01*
X0260350Y0213910D01*
X0258140Y0211700D01*
X0256944Y0208813D01*
X0256944Y0205687D01*
X0258140Y0202800D01*
X0260350Y0200590D01*
X0263237Y0199394D01*
X0266363Y0199394D01*
X0262792Y0199579D02*
X0001800Y0199579D01*
X0001800Y0201077D02*
X0259863Y0201077D01*
X0258365Y0202576D02*
X0001800Y0202576D01*
X0001800Y0204074D02*
X0257613Y0204074D01*
X0256992Y0205573D02*
X0001800Y0205573D01*
X0001800Y0207071D02*
X0256944Y0207071D01*
X0256944Y0208570D02*
X0001800Y0208570D01*
X0001800Y0210068D02*
X0257465Y0210068D01*
X0258085Y0211567D02*
X0001800Y0211567D01*
X0001800Y0213065D02*
X0259506Y0213065D01*
X0261930Y0214564D02*
X0001800Y0214564D01*
X0001800Y0216062D02*
X0476800Y0216062D01*
X0476800Y0214564D02*
X0267670Y0214564D01*
X0270094Y0213065D02*
X0476800Y0213065D01*
X0476800Y0211567D02*
X0271515Y0211567D01*
X0272135Y0210068D02*
X0476800Y0210068D01*
X0476800Y0208570D02*
X0272655Y0208570D01*
X0272655Y0207071D02*
X0476800Y0207071D01*
X0476800Y0205573D02*
X0272608Y0205573D01*
X0271987Y0204074D02*
X0476800Y0204074D01*
X0476800Y0202576D02*
X0271235Y0202576D01*
X0269737Y0201077D02*
X0476800Y0201077D01*
X0476800Y0217561D02*
X0001800Y0217561D01*
X0001800Y0219059D02*
X0476800Y0219059D01*
X0476800Y0220558D02*
X0001800Y0220558D01*
X0001800Y0222056D02*
X0476800Y0222056D01*
X0476800Y0223555D02*
X0001800Y0223555D01*
X0001800Y0225053D02*
X0476800Y0225053D01*
X0476800Y0226552D02*
X0001800Y0226552D01*
X0100943Y0189089D02*
X0280255Y0189089D01*
X0281204Y0190588D02*
X0102170Y0190588D01*
X0145131Y0160618D02*
X0001800Y0160618D01*
X0001800Y0162116D02*
X0298825Y0162116D01*
X0294566Y0182547D02*
X0294566Y0187016D01*
X0295034Y0187016D01*
X0295034Y0187484D01*
X0294566Y0187484D01*
X0294566Y0187016D01*
X0290097Y0187016D01*
X0290097Y0186880D01*
X0290213Y0186149D01*
X0290442Y0185445D01*
X0290778Y0184785D01*
X0291213Y0184186D01*
X0291736Y0183663D01*
X0292335Y0183228D01*
X0292995Y0182892D01*
X0293699Y0182663D01*
X0294430Y0182547D01*
X0294566Y0182547D01*
X0294566Y0183095D02*
X0295034Y0183095D01*
X0295034Y0184594D02*
X0294566Y0184594D01*
X0294566Y0186092D02*
X0295034Y0186092D01*
X0294566Y0187484D02*
X0290097Y0187484D01*
X0290097Y0187620D01*
X0290213Y0188351D01*
X0290442Y0189055D01*
X0290778Y0189715D01*
X0291213Y0190314D01*
X0291736Y0190837D01*
X0292335Y0191272D01*
X0292995Y0191608D01*
X0293699Y0191837D01*
X0294430Y0191953D01*
X0294566Y0191953D01*
X0294566Y0187484D01*
X0294566Y0187591D02*
X0295034Y0187591D01*
X0295034Y0189089D02*
X0294566Y0189089D01*
X0294566Y0190588D02*
X0295034Y0190588D01*
X0291487Y0190588D02*
X0288396Y0190588D01*
X0289345Y0189089D02*
X0290459Y0189089D01*
X0290097Y0187591D02*
X0289703Y0187591D01*
X0289627Y0186092D02*
X0290231Y0186092D01*
X0290917Y0184594D02*
X0289006Y0184594D01*
X0287579Y0183095D02*
X0292596Y0183095D01*
X0203870Y0154623D02*
X0149477Y0154623D01*
X0144123Y0154623D02*
X0001800Y0154623D01*
X0001800Y0153125D02*
X0203103Y0153125D01*
X0203050Y0151626D02*
X0001800Y0151626D01*
X0001800Y0150128D02*
X0203620Y0150128D01*
X0172003Y0120158D02*
X0001800Y0120158D01*
X0001800Y0121656D02*
X0170505Y0121656D01*
X0173502Y0118659D02*
X0001800Y0118659D01*
X0001800Y0117161D02*
X0175000Y0117161D01*
X0176499Y0115662D02*
X0001800Y0115662D01*
X0001800Y0114164D02*
X0177997Y0114164D01*
X0179496Y0112665D02*
X0001800Y0112665D01*
X0001800Y0111167D02*
X0180994Y0111167D01*
X0182493Y0109668D02*
X0001800Y0109668D01*
X0001800Y0108170D02*
X0183991Y0108170D01*
X0185490Y0106671D02*
X0001800Y0106671D01*
X0001800Y0105173D02*
X0186988Y0105173D01*
X0188487Y0103674D02*
X0001800Y0103674D01*
X0001800Y0102176D02*
X0189985Y0102176D01*
X0191484Y0100677D02*
X0001800Y0100677D01*
X0001800Y0099179D02*
X0192982Y0099179D01*
X0194481Y0097680D02*
X0001800Y0097680D01*
X0001800Y0096182D02*
X0195979Y0096182D01*
X0235032Y0099179D02*
X0237568Y0099179D01*
X0236393Y0100677D02*
X0236207Y0100677D01*
X0249550Y0100677D02*
X0476800Y0100677D01*
X0476800Y0099179D02*
X0250060Y0099179D01*
X0250550Y0097680D02*
X0476800Y0097680D01*
X0476800Y0096182D02*
X0250416Y0096182D01*
X0249536Y0094683D02*
X0476800Y0094683D01*
X0476800Y0102176D02*
X0249550Y0102176D01*
X0249550Y0103674D02*
X0476800Y0103674D01*
X0476800Y0105173D02*
X0249550Y0105173D01*
X0249550Y0106671D02*
X0476800Y0106671D01*
X0476800Y0060217D02*
X0223018Y0060217D01*
X0222054Y0058719D02*
X0476800Y0058719D01*
X0204971Y0052725D02*
X0184629Y0052725D01*
X0185455Y0051226D02*
X0204145Y0051226D01*
X0204050Y0049728D02*
X0185550Y0049728D01*
X0185022Y0048229D02*
X0204578Y0048229D01*
X0156585Y0066211D02*
X0001800Y0066211D01*
X0001800Y0067710D02*
X0156050Y0067710D01*
X0156138Y0069208D02*
X0001800Y0069208D01*
X0001800Y0070707D02*
X0156954Y0070707D01*
X0132399Y0127650D02*
X0128918Y0127650D01*
X0130060Y0129149D02*
X0131313Y0129149D01*
X0130850Y0130647D02*
X0130514Y0130647D01*
X0130467Y0132146D02*
X0130850Y0132146D01*
X0131434Y0133644D02*
X0129911Y0133644D01*
X0128523Y0135143D02*
X0132692Y0135143D01*
X0113615Y0138140D02*
X0001800Y0138140D01*
X0001800Y0139638D02*
X0113050Y0139638D01*
X0113108Y0141137D02*
X0001800Y0141137D01*
X0001800Y0142635D02*
X0113882Y0142635D01*
X0143208Y0156122D02*
X0001800Y0156122D01*
X0001800Y0157620D02*
X0143050Y0157620D01*
X0143515Y0159119D02*
X0001800Y0159119D01*
X0001800Y0130647D02*
X0018797Y0130647D01*
X0017829Y0129149D02*
X0001800Y0129149D01*
X0001800Y0127650D02*
X0017450Y0127650D01*
X0017497Y0126152D02*
X0001800Y0126152D01*
X0001800Y0124653D02*
X0018118Y0124653D01*
X0019495Y0123155D02*
X0001800Y0123155D01*
X0025305Y0123155D02*
X0029975Y0123155D01*
X0028415Y0124653D02*
X0026682Y0124653D01*
X0027303Y0126152D02*
X0027765Y0126152D01*
X0027654Y0127650D02*
X0027350Y0127650D01*
X0026971Y0129149D02*
X0028036Y0129149D01*
X0029080Y0130647D02*
X0026003Y0130647D01*
X0032150Y0130647D02*
X0032650Y0130647D01*
X0032650Y0129149D02*
X0032150Y0129149D01*
X0032150Y0127650D02*
X0032650Y0127650D01*
X0032650Y0126152D02*
X0032150Y0126152D01*
X0032150Y0124653D02*
X0032650Y0124653D01*
X0032650Y0123155D02*
X0032150Y0123155D01*
D20*
X0116800Y0140250D03*
X0146800Y0157250D03*
X0159800Y0141250D03*
X0166800Y0140250D03*
X0187800Y0141250D03*
X0202800Y0135250D03*
X0217800Y0140250D03*
X0237800Y0141250D03*
X0256800Y0152250D03*
X0206800Y0152250D03*
X0236800Y0126250D03*
X0239800Y0102250D03*
X0232800Y0102250D03*
X0224800Y0103250D03*
X0217800Y0103250D03*
X0213800Y0093250D03*
X0215800Y0087250D03*
X0199800Y0075250D03*
X0171800Y0080250D03*
X0159800Y0068250D03*
X0181800Y0050250D03*
X0201800Y0044250D03*
X0207800Y0050250D03*
X0247800Y0075250D03*
X0246800Y0097250D03*
X0296800Y0074250D03*
X0325800Y0080250D03*
X0299800Y0113250D03*
X0098800Y0192250D03*
X0069800Y0048250D03*
D21*
X0256800Y0152250D02*
X0260800Y0152250D01*
X0299800Y0113250D01*
M02*
